<?xml version="1.0" standalone="no"?>
<!DOCTYPE svg PUBLIC "-//W3C//DTD SVG 1.1//EN" "http://www.w3.org/Graphics/SVG/1.1/DTD/svg11.dtd" >
<svg xmlns="http://www.w3.org/2000/svg" xmlns:xlink="http://www.w3.org/1999/xlink" version="1.1">
<metadata>
Created by FontForge 20141024 at Wed Mar 16 00:59:49 2016
 By Jimmy Warting
Copyright (c) 2004-9 by Kris Sowersby. All rights reserved.
</metadata>
<defs>
<font id="National-LightItalic" horiz-adv-x="518" >
  <font-face 
    font-family="National Light Italic"
    font-weight="470"
    font-style="italic"
    font-stretch="normal"
    units-per-em="1000"
    panose-1="0 0 0 0 0 0 0 0 0 0"
    ascent="800"
    descent="-200"
    x-height="462"
    cap-height="589"
    bbox="-153 -257 1187 911"
    underline-thickness="57"
    underline-position="28"
    stemh="44"
    stemv="51"
    unicode-range="U+0020-F778"
  />
<missing-glyph horiz-adv-x="755" 
d="M83 0v589h589v-589h-589zM377 264l-221 -221h443zM156 546l221 -222l222 222h-443zM407 294l222 -221v443zM347 294l-221 222v-443z" />
    <glyph glyph-name="f_b" unicode="fb" horiz-adv-x="768" 
d="M298 0l104 599c-21 22 -58 36 -94 36c-55 0 -101 -25 -117 -112l-10 -61h105l-7 -42h-106l-91 -524c-14 -75 -45 -107 -105 -107c-33 0 -61 12 -76 28l14 40c18 -17 36 -26 57 -26c35 0 51 21 59 66l92 523h-70l8 42h69l12 64c21 113 89 149 164 149c41 0 85 -14 104 -32
l45 25h11l-56 -314c27 69 86 117 163 117c96 0 153 -65 153 -188c0 -165 -88 -292 -226 -292c-75 0 -129 46 -137 106l-28 -97h-37zM395 262l-14 -79c-13 -75 25 -154 116 -154c110 0 177 113 177 252c0 93 -42 148 -115 148c-80 0 -148 -69 -164 -167z" />
    <glyph glyph-name="f_f_b" unicode="ffb" horiz-adv-x="1016" 
d="M546 0l105 599c-22 22 -59 36 -95 36c-54 0 -100 -25 -116 -112l-11 -61h104l-7 -42h-104l-90 -511c-13 -75 -45 -107 -105 -107c-33 0 -60 12 -76 28l15 40c17 -17 35 -26 57 -26c35 0 51 21 59 66l90 510h-199l-91 -524c-14 -75 -45 -107 -105 -107
c-33 0 -61 12 -76 28l14 40c18 -17 36 -26 57 -26c35 0 51 21 59 66l92 523h-70l8 42h69l13 70c20 101 66 134 132 134c37 0 65 -12 88 -35l-24 -40c-18 20 -35 31 -64 31c-41 0 -69 -21 -82 -92l-12 -68h198l11 64c22 113 89 149 164 149c42 0 85 -14 105 -32l44 25h11
l-55 -314c26 69 85 117 162 117c96 0 154 -65 154 -188c0 -165 -88 -292 -226 -292c-76 0 -129 46 -138 106l-28 -97h-37zM643 262l-14 -79c-13 -75 26 -154 116 -154c110 0 177 113 177 252c0 93 -41 148 -114 148c-80 0 -148 -69 -165 -167z" />
    <glyph glyph-name="f_f_h" unicode="ffh" horiz-adv-x="996" 
d="M546 0l105 599c-22 22 -59 36 -95 36c-54 0 -101 -25 -116 -112l-11 -61h104l-7 -42h-104l-90 -511c-13 -75 -45 -107 -105 -107c-33 0 -60 12 -76 28l15 40c17 -17 35 -26 57 -26c35 0 51 21 59 66l90 510h-199l-91 -524c-14 -75 -45 -107 -105 -107
c-33 0 -61 12 -76 28l14 40c18 -17 36 -26 57 -26c35 0 51 21 59 66l92 523h-70l8 42h69l13 70c19 101 66 134 132 134c37 0 65 -12 88 -35l-24 -40c-18 20 -35 31 -64 31c-41 0 -69 -21 -82 -92l-12 -68h198l11 64c21 113 89 149 164 149c42 0 85 -14 105 -32l44 25h11
l-56 -314c29 68 84 117 161 117c70 0 117 -37 117 -109c0 -14 -2 -34 -6 -57l-38 -216c-1 -9 -2 -17 -2 -25c0 -18 7 -29 28 -29c8 0 17 2 30 7l-7 -39c-11 -5 -24 -8 -40 -8c-44 0 -63 23 -63 60c0 9 1 17 3 29l39 222c4 19 6 33 6 46c0 46 -26 75 -80 75
c-68 0 -145 -54 -165 -173l-44 -254h-51z" />
    <glyph glyph-name="f_f_j" unicode="ffj" horiz-adv-x="717" 
d="M620 420h-198l-90 -511c-13 -75 -45 -107 -105 -107c-33 0 -60 12 -76 28l15 40c17 -17 35 -26 57 -26c35 0 51 21 59 66l90 510h-199l-91 -524c-14 -75 -45 -107 -105 -107c-33 0 -61 12 -76 28l14 40c18 -17 36 -26 57 -26c35 0 51 21 59 66l92 523h-70l8 42h69l13 70
c20 101 66 134 132 134c37 0 65 -12 88 -35l-24 -40c-18 20 -35 31 -64 31c-41 0 -69 -21 -82 -92l-12 -68h198l11 64c21 113 84 149 156 149c42 0 76 -13 101 -41l-24 -40c-19 23 -41 37 -78 37c-51 0 -89 -24 -105 -110l-11 -59h249l-98 -553c-13 -76 -46 -107 -106 -107
c-33 0 -60 11 -76 27l15 41c17 -17 35 -26 57 -26c35 0 51 20 59 65z" />
    <glyph glyph-name="f_f_k" unicode="ffk" horiz-adv-x="934" 
d="M546 0l105 599c-22 22 -59 36 -95 36c-54 0 -101 -25 -116 -112l-11 -61h104l-7 -42h-104l-90 -511c-13 -75 -45 -107 -105 -107c-33 0 -60 12 -76 28l15 40c17 -17 35 -26 57 -26c35 0 51 21 59 66l90 510h-199l-91 -524c-14 -75 -45 -107 -105 -107
c-33 0 -61 12 -76 28l14 40c18 -17 36 -26 57 -26c35 0 51 21 59 66l92 523h-70l8 42h69l13 70c19 101 66 134 132 134c37 0 65 -12 88 -35l-24 -40c-18 20 -35 31 -64 31c-41 0 -69 -21 -82 -92l-12 -68h198l11 64c21 113 89 149 164 149c42 0 85 -14 105 -32l44 25h11
l-70 -399h40l189 193h62l-212 -211l93 -172c15 -28 29 -43 51 -43c10 0 21 2 35 8l-8 -41c-14 -6 -27 -8 -43 -8c-33 0 -53 18 -74 56l-97 179h-43l-40 -230h-51z" />
    <glyph glyph-name="f_h" unicode="fh" horiz-adv-x="748" 
d="M298 0l104 599c-21 22 -58 36 -94 36c-54 0 -101 -25 -117 -112l-10 -61h105l-7 -42h-106l-91 -524c-14 -75 -45 -107 -105 -107c-33 0 -61 12 -76 28l14 40c18 -17 36 -26 57 -26c35 0 51 21 59 66l92 523h-70l8 42h69l12 64c21 113 89 149 164 149c41 0 85 -14 104 -32
l45 25h11l-56 -314c29 68 83 117 160 117c71 0 118 -37 118 -109c0 -14 -2 -34 -6 -57l-38 -216c-1 -9 -3 -17 -3 -25c0 -18 8 -29 28 -29c9 0 18 2 31 7l-7 -39c-12 -5 -25 -8 -41 -8c-43 0 -62 23 -62 60c0 9 1 17 3 29l39 222c3 19 5 33 5 46c0 46 -26 75 -79 75
c-69 0 -145 -54 -166 -173l-44 -254h-50z" />
    <glyph glyph-name="f_j" unicode="fj" horiz-adv-x="469" 
d="M372 420h-199l-91 -524c-14 -75 -45 -107 -105 -107c-33 0 -61 12 -76 28l14 40c18 -17 36 -26 57 -26c35 0 51 21 59 66l92 523h-70l8 42h69l12 64c21 113 84 149 156 149c42 0 75 -13 101 -41l-24 -40c-20 23 -41 37 -79 37c-51 0 -89 -24 -105 -110l-10 -59h249
l-98 -553c-14 -76 -46 -107 -106 -107c-33 0 -61 11 -76 27l14 41c18 -17 36 -26 57 -26c35 0 51 20 59 65z" />
    <glyph glyph-name="f_k" unicode="fk" horiz-adv-x="686" 
d="M298 0l104 599c-21 22 -58 36 -94 36c-54 0 -101 -25 -117 -112l-10 -61h104l-7 -42h-105l-91 -524c-14 -75 -45 -107 -105 -107c-33 0 -61 12 -76 28l14 40c18 -17 36 -26 57 -26c35 0 51 21 59 66l92 523h-70l8 42h69l12 64c21 113 89 149 164 149c41 0 85 -14 104 -32
l45 25h11l-70 -399h40l188 193h63l-212 -211l92 -172c16 -28 30 -43 52 -43c10 0 21 2 35 8l-8 -41c-14 -6 -27 -8 -43 -8c-33 0 -53 18 -74 56l-98 179h-43l-40 -230h-50z" />
    <glyph glyph-name="ff" unicode="ff" horiz-adv-x="513" 
d="M282 -90l90 510h-199l-91 -524c-14 -75 -45 -107 -105 -107c-33 0 -61 12 -76 28l14 40c18 -17 36 -26 57 -26c35 0 51 21 59 66l92 523h-70l8 42h69l13 70c20 101 66 134 132 134c37 0 65 -12 88 -35l-24 -40c-18 20 -35 31 -64 31c-41 0 -69 -21 -82 -92l-12 -68h198
l13 71c21 109 72 142 142 142c39 0 70 -12 94 -34l-23 -41c-20 20 -40 31 -70 31c-46 0 -79 -20 -93 -98l-13 -71h116l-7 -42h-116l-90 -511c-13 -75 -45 -107 -105 -107c-33 0 -60 12 -76 28l15 40c17 -17 35 -26 57 -26c35 0 51 21 59 66z" />
    <glyph glyph-name="ffi" unicode="ffi" horiz-adv-x="727" 
d="M422 420l-90 -511c-13 -75 -45 -107 -105 -107c-33 0 -60 12 -76 28l15 40c17 -17 35 -26 57 -26c35 0 51 21 59 66l90 510h-199l-91 -524c-14 -75 -45 -107 -105 -107c-33 0 -61 12 -76 28l14 40c18 -17 36 -26 57 -26c35 0 51 21 59 66l92 523h-70l8 42h69l13 70
c19 101 66 134 132 134c37 0 65 -12 88 -35l-24 -40c-18 20 -35 31 -64 31c-41 0 -69 -21 -82 -92l-12 -68h198l11 64c21 113 84 149 156 149c42 0 76 -13 101 -41l-24 -40c-19 23 -41 37 -78 37c-51 0 -89 -24 -105 -110l-11 -59h249l-65 -373c-2 -9 -3 -17 -3 -25
c0 -18 7 -29 28 -29c9 0 18 2 30 7l-7 -39c-11 -5 -24 -8 -40 -8c-44 0 -63 23 -63 60c0 9 1 17 3 29l59 336h-198z" />
    <glyph glyph-name="ffl" unicode="ffl" horiz-adv-x="724" 
d="M379 462l11 64c21 113 89 149 164 149c42 0 85 -14 105 -32l44 25h11l-101 -579c-2 -9 -3 -17 -3 -25c0 -18 7 -29 28 -29c9 0 18 2 30 7l-7 -39c-11 -5 -24 -8 -40 -8c-44 0 -63 23 -63 60c0 9 1 17 3 29l90 515c-22 22 -59 36 -95 36c-54 0 -101 -25 -116 -112l-11 -61
h105l-7 -42h-105l-90 -511c-13 -75 -45 -107 -105 -107c-33 0 -60 12 -76 28l15 40c17 -17 35 -26 57 -26c35 0 51 21 59 66l90 510h-199l-91 -524c-14 -75 -45 -107 -105 -107c-33 0 -61 12 -76 28l14 40c18 -17 36 -26 57 -26c35 0 51 21 59 66l92 523h-70l8 42h69l13 70
c19 101 66 134 132 134c37 0 65 -12 88 -35l-24 -40c-18 20 -35 31 -64 31c-41 0 -69 -21 -82 -92l-12 -68h198z" />
    <glyph glyph-name="fi" unicode="fi" horiz-adv-x="478" 
d="M430 462l-66 -373c-1 -9 -3 -17 -3 -25c0 -18 8 -29 28 -29c9 0 18 2 31 7l-7 -39c-12 -5 -24 -8 -41 -8c-43 0 -62 23 -62 60c0 9 1 17 3 29l58 336h-198l-91 -524c-14 -75 -45 -107 -105 -107c-33 0 -61 12 -76 28l14 40c18 -17 36 -26 57 -26c35 0 51 21 59 66l92 523
h-70l8 42h69l12 64c21 113 84 149 156 149c42 0 75 -13 101 -41l-24 -40c-20 23 -41 37 -79 37c-51 0 -89 -24 -105 -110l-10 -59h249z" />
    <glyph glyph-name="fl" unicode="fl" horiz-adv-x="476" 
d="M466 668l-102 -579c-1 -9 -3 -17 -3 -25c0 -18 8 -29 28 -29c9 0 18 2 31 7l-7 -39c-12 -5 -24 -8 -41 -8c-43 0 -62 23 -62 60c0 9 1 17 3 29l89 515c-21 22 -58 36 -94 36c-54 0 -101 -25 -117 -112l-10 -61h105l-7 -42h-106l-91 -524c-14 -75 -45 -107 -105 -107
c-33 0 -61 12 -76 28l14 40c18 -17 36 -26 57 -26c35 0 51 21 59 66l92 523h-70l8 42h69l12 64c21 113 89 149 164 149c41 0 85 -14 104 -32l45 25h11z" />
    <glyph glyph-name=".notdef" horiz-adv-x="755" 
d="M83 0v589h589v-589h-589zM377 264l-221 -221h443zM156 546l221 -222l222 222h-443zM407 294l222 -221v443zM347 294l-221 222v-443z" />
    <glyph glyph-name=".null" horiz-adv-x="0" 
 />
    <glyph glyph-name="A" unicode="A" horiz-adv-x="548" 
d="M436 0l-38 187h-264l-102 -187h-56l326 589h69l119 -589h-54zM256 408l-98 -176h232l-34 172c-17 87 -25 150 -25 150h-3s-20 -52 -72 -146z" />
    <glyph glyph-name="AE" unicode="&#xc6;" horiz-adv-x="810" 
d="M719 0h-335l33 189h-228l-153 -189h-60l475 589h371l-8 -46h-281l-40 -225h251l-8 -46h-251l-40 -226h282zM483 554l-259 -321h200l34 191c17 95 28 130 28 130h-3z" />
    <glyph glyph-name="AEacute" unicode="&#x1fc;" horiz-adv-x="810" 
d="M719 0h-335l33 189h-228l-153 -189h-60l475 589h371l-8 -46h-281l-40 -225h251l-8 -46h-251l-40 -226h282zM483 554l-259 -321h200l34 191c17 95 28 130 28 130h-3zM635 642h-46l73 121h71z" />
    <glyph glyph-name="acute.cap" unicode="&#xe422;" horiz-adv-x="277" 
d="M112 642h-45l72 121h71z" />
    <glyph glyph-name="AEmacron" unicode="&#x1e2;" horiz-adv-x="810" 
d="M719 0h-335l33 189h-228l-153 -189h-60l475 589h371l-8 -46h-281l-40 -225h251l-8 -46h-251l-40 -226h282zM483 554l-259 -321h200l34 191c17 95 28 130 28 130h-3zM745 667h-221l6 41h222z" />
    <glyph glyph-name="macron.cap" unicode="&#xe425;" horiz-adv-x="362" 
d="M288 667h-221l6 41h222z" />
    <glyph glyph-name="Aacute" unicode="&#xc1;" horiz-adv-x="548" 
d="M436 0l-38 187h-264l-102 -187h-56l326 589h69l119 -589h-54zM256 408l-98 -176h232l-34 172c-17 87 -25 150 -25 150h-3s-20 -52 -72 -146zM368 642h-46l73 121h71z" />
    <glyph glyph-name="Abreve" unicode="&#x102;" horiz-adv-x="548" 
d="M436 0l-38 187h-264l-102 -187h-56l326 589h69l119 -589h-54zM256 408l-98 -176h232l-34 172c-17 87 -25 150 -25 150h-3s-20 -52 -72 -146zM343 638c-65 0 -101 34 -101 92c0 10 1 20 3 31h42c-1 -9 -1 -15 -1 -23c0 -39 20 -60 63 -60c53 0 81 29 95 83h41
c-14 -78 -66 -123 -142 -123z" />
    <glyph glyph-name="breve.cap" unicode="&#xe426;" horiz-adv-x="376" 
d="M168 638c-65 0 -101 34 -101 92c0 10 1 20 3 31h42c-2 -9 -2 -15 -2 -23c0 -39 20 -60 64 -60c53 0 81 29 95 83h41c-14 -78 -66 -123 -142 -123z" />
    <glyph glyph-name="Acaron" unicode="&#x1cd;" horiz-adv-x="548" 
d="M436 0l-38 187h-264l-102 -187h-56l326 589h69l119 -589h-54zM256 408l-98 -176h232l-34 172c-17 87 -25 150 -25 150h-3s-20 -52 -72 -146zM356 642h-31l-93 125h57l33 -48c14 -21 22 -38 22 -38h2s15 18 37 39l49 47h61z" />
    <glyph glyph-name="caron.cap" unicode="&#xe42d;" horiz-adv-x="393" 
d="M190 642h-31l-92 125h56l34 -48c15 -22 22 -38 22 -38h2s11 16 35 39l51 47h60z" />
    <glyph glyph-name="Acircumflex" unicode="&#xc2;" horiz-adv-x="548" 
d="M436 0l-38 187h-264l-102 -187h-56l326 589h69l119 -589h-54zM256 408l-98 -176h232l-34 172c-17 87 -25 150 -25 150h-3s-20 -52 -72 -146zM345 767h31l92 -125h-56l-33 48c-14 21 -23 38 -23 38h-2c1 0 -14 -18 -36 -39l-49 -47h-61z" />
    <glyph glyph-name="circumflex.cap" unicode="&#xe423;" horiz-adv-x="393" 
d="M203 767h31l93 -125h-57l-34 48c-15 22 -22 38 -22 38h-2s-11 -16 -35 -39l-51 -47h-59z" />
    <glyph glyph-name="Adieresis" unicode="&#xc4;" horiz-adv-x="548" 
d="M436 0l-38 187h-264l-102 -187h-56l326 589h69l119 -589h-54zM256 408l-98 -176h232l-34 172c-17 87 -25 150 -25 150h-3s-20 -52 -72 -146zM227 690c0 21 17 38 38 38s38 -17 38 -38s-17 -38 -38 -38s-38 17 -38 38zM399 689c0 22 16 38 37 38c22 0 38 -16 38 -38
c0 -21 -16 -38 -38 -38c-21 0 -37 17 -37 38z" />
    <glyph glyph-name="dieresis.cap" unicode="&#xe429;" horiz-adv-x="380" 
d="M67 690c0 21 16 38 37 38c22 0 38 -17 38 -38s-16 -38 -38 -38c-21 0 -37 17 -37 38zM238 689c0 22 17 38 38 38s38 -16 38 -38c0 -21 -17 -38 -38 -38s-38 17 -38 38z" />
    <glyph glyph-name="Adotabove" unicode="&#x226;" horiz-adv-x="548" 
d="M436 0l-38 187h-264l-102 -187h-56l326 589h69l119 -589h-54zM256 408l-98 -176h232l-34 172c-17 87 -25 150 -25 150h-3s-20 -52 -72 -146zM311 698c0 22 16 38 37 38c22 0 39 -16 39 -38c0 -21 -17 -38 -39 -38c-21 0 -37 17 -37 38z" />
    <glyph glyph-name="dotaccent.cap" unicode="&#xe428;" horiz-adv-x="210" 
d="M66 698c0 22 16 38 37 38c22 0 38 -16 38 -38c0 -21 -16 -38 -38 -38c-21 0 -37 17 -37 38z" />
    <glyph glyph-name="Adoublegrave" unicode="&#x200;" horiz-adv-x="548" 
d="M436 0l-38 187h-264l-102 -187h-56l326 589h69l119 -589h-54zM256 408l-98 -176h232l-34 172c-17 87 -25 150 -25 150h-3s-20 -52 -72 -146zM307 642h-40l-89 121h67zM429 642h-39l-83 121h65z" />
    <glyph glyph-name="doublegrave.cap" unicode="&#xe42c;" horiz-adv-x="384" 
d="M195 642h-39l-89 121h66zM317 642h-38l-84 121h66z" />
    <glyph glyph-name="Agrave" unicode="&#xc0;" horiz-adv-x="548" 
d="M436 0l-38 187h-264l-102 -187h-56l326 589h69l119 -589h-54zM256 408l-98 -176h232l-34 172c-17 87 -25 150 -25 150h-3s-20 -52 -72 -146zM369 642h-45l-79 121h69z" />
    <glyph glyph-name="grave.cap" unicode="&#xe421;" horiz-adv-x="257" 
d="M190 642h-44l-79 121h69z" />
    <glyph glyph-name="Ainvertedbreve" unicode="&#x202;" horiz-adv-x="548" 
d="M436 0l-38 187h-264l-102 -187h-56l326 589h69l119 -589h-54zM256 408l-98 -176h232l-34 172c-17 87 -25 150 -25 150h-3s-20 -52 -72 -146zM367 765c65 0 101 -34 101 -92c0 -10 -1 -20 -3 -31h-42c1 8 2 14 2 22c0 39 -20 61 -64 61c-53 0 -81 -29 -95 -83h-41
c14 78 66 123 142 123z" />
    <glyph glyph-name="invertedbreve.cap" unicode="&#xe427;" horiz-adv-x="376" 
d="M209 765c65 0 101 -34 101 -92c0 -10 -1 -20 -3 -31h-42c1 8 2 14 2 22c0 39 -20 61 -64 61c-53 0 -81 -29 -95 -83h-41c14 78 66 123 142 123z" />
    <glyph glyph-name="Amacron" unicode="&#x100;" horiz-adv-x="548" 
d="M436 0l-38 187h-264l-102 -187h-56l326 589h69l119 -589h-54zM256 408l-98 -176h232l-34 172c-17 87 -25 150 -25 150h-3s-20 -52 -72 -146zM459 667h-222l7 41h222z" />
    <glyph glyph-name="Anocross" horiz-adv-x="548" 
d="M256 408l-224 -408h-56l326 589h69l119 -589h-54l-81 407c-18 92 -24 147 -24 147h-3s-20 -52 -72 -146z" />
    <glyph glyph-name="Aogonek" unicode="&#x104;" horiz-adv-x="548" 
d="M445 -128l20 -25c-17 -27 -43 -48 -90 -48c-52 0 -80 28 -80 75c0 75 72 129 136 151l-33 162h-264l-102 -187h-56l326 589h69l119 -589c-90 -16 -149 -61 -149 -122c0 -27 16 -42 42 -42c29 0 46 13 62 36zM256 408l-98 -176h232l-34 172c-17 87 -25 150 -25 150h-3
s-20 -52 -72 -146z" />
    <glyph glyph-name="ogonek" unicode="&#x2db;" horiz-adv-x="306" 
d="M216 -128l21 -25c-17 -27 -44 -48 -91 -48c-52 0 -79 28 -79 75c0 82 86 139 153 156l21 -30c-67 -15 -129 -60 -129 -122c0 -27 16 -42 42 -42c30 0 47 13 62 36z" />
    <glyph glyph-name="Aring" unicode="&#xc5;" horiz-adv-x="548" 
d="M436 0l-38 187h-264l-102 -187h-56l326 589h69l119 -589h-54zM256 408l-98 -176h232l-34 172c-17 87 -25 150 -25 150h-3s-20 -52 -72 -146zM354 658c34 0 58 28 58 62c0 30 -17 51 -50 51c-35 0 -59 -28 -59 -61c0 -31 17 -52 51 -52zM350 630c-52 0 -80 33 -80 77
c0 50 38 92 94 92c51 0 80 -34 80 -76c0 -51 -38 -93 -94 -93z" />
    <glyph glyph-name="ring.cap" unicode="&#xe42a;" horiz-adv-x="307" 
d="M150 658c34 0 58 28 58 62c0 30 -17 51 -50 51c-35 0 -59 -28 -59 -61c0 -31 17 -52 51 -52zM146 630c-52 0 -79 33 -79 77c0 50 38 92 94 92c50 0 79 -34 79 -76c0 -51 -37 -93 -94 -93z" />
    <glyph glyph-name="Atilde" unicode="&#xc3;" horiz-adv-x="548" 
d="M436 0l-38 187h-264l-102 -187h-56l326 589h69l119 -589h-54zM256 408l-98 -176h232l-34 172c-17 87 -25 150 -25 150h-3s-20 -52 -72 -146zM240 652l-33 1c-2 8 -3 15 -3 22c0 45 33 77 75 77c25 0 42 -9 61 -22l36 -27c13 -9 23 -14 37 -14c24 0 36 19 39 58l33 -2
c1 -7 2 -14 2 -22c0 -44 -32 -76 -74 -76c-25 0 -42 9 -61 22l-36 27c-13 9 -23 13 -37 13c-24 0 -36 -18 -39 -57z" />
    <glyph glyph-name="tilde.cap" unicode="&#xe424;" horiz-adv-x="416" 
d="M103 652l-34 1c-1 8 -2 15 -2 22c0 45 32 77 74 77c26 0 42 -9 61 -22l36 -27c13 -9 23 -14 37 -14c24 0 36 19 39 58l33 -2c2 -7 3 -14 3 -22c0 -44 -33 -76 -75 -76c-25 0 -42 9 -61 22l-36 27c-13 9 -23 13 -37 13c-24 0 -36 -18 -38 -57z" />
    <glyph glyph-name="B" unicode="B" horiz-adv-x="501" 
d="M332 303v-3c66 -5 114 -43 114 -118c0 -125 -84 -182 -223 -182h-179l103 589h160c111 0 161 -46 161 -132c0 -94 -62 -146 -136 -154zM154 322h110c84 0 150 36 150 128c0 66 -41 94 -119 94h-102zM146 278l-41 -233h124c102 0 165 38 165 133c0 63 -39 100 -128 100
h-120z" />
    <glyph glyph-name="C" unicode="C" horiz-adv-x="550" 
d="M276 -9c-139 0 -221 96 -221 238c0 233 134 369 296 369c102 0 168 -50 187 -142l-47 -20c-14 78 -71 117 -144 117c-144 0 -238 -138 -238 -320c0 -118 62 -197 172 -197c77 0 128 26 170 108l44 -23c-42 -87 -116 -130 -219 -130z" />
    <glyph glyph-name="CR" horiz-adv-x="221" 
 />
    <glyph glyph-name="Cacute" unicode="&#x106;" horiz-adv-x="550" 
d="M384 642h-46l73 121h71zM276 -9c-139 0 -221 96 -221 238c0 233 134 369 296 369c102 0 168 -50 187 -142l-47 -20c-14 78 -71 117 -144 117c-144 0 -238 -138 -238 -320c0 -118 62 -197 172 -197c77 0 128 26 170 108l44 -23c-42 -87 -116 -130 -219 -130z" />
    <glyph glyph-name="Ccaron" unicode="&#x10c;" horiz-adv-x="550" 
d="M378 642h-31l-93 125h57l34 -48c15 -22 22 -38 22 -38h2s11 16 35 39l51 47h60zM276 -9c-139 0 -221 96 -221 238c0 233 134 369 296 369c102 0 168 -50 187 -142l-47 -20c-14 78 -71 117 -144 117c-144 0 -238 -138 -238 -320c0 -118 62 -197 172 -197
c77 0 128 26 170 108l44 -23c-42 -87 -116 -130 -219 -130z" />
    <glyph glyph-name="Ccedilla" unicode="&#xc7;" horiz-adv-x="550" 
d="M326 -124c0 -52 -43 -81 -97 -81c-42 0 -70 17 -86 40l19 32c16 -25 38 -38 67 -38c32 0 54 17 54 47c0 31 -26 48 -76 50l27 68c-113 17 -179 107 -179 235c0 233 134 369 296 369c102 0 168 -50 187 -142l-47 -20c-14 78 -71 117 -144 117c-144 0 -238 -138 -238 -320
c0 -118 62 -197 172 -197c77 0 128 26 170 108l44 -23c-42 -87 -116 -130 -219 -130h-14l-15 -37c49 -8 79 -31 79 -78z" />
    <glyph glyph-name="cedilla" unicode="&#xb8;" horiz-adv-x="318" 
d="M251 -124c0 -52 -43 -81 -98 -81c-41 0 -69 17 -85 40l19 32c15 -25 38 -38 66 -38c32 0 54 17 54 47c0 31 -25 48 -75 50l31 79h30l-21 -51c48 -8 79 -31 79 -78z" />
    <glyph glyph-name="Ccircumflex" unicode="&#x108;" horiz-adv-x="550" 
d="M367 767h31l92 -125h-56l-34 48c-15 22 -22 38 -22 38h-2s-11 -16 -35 -39l-51 -47h-60zM276 -9c-139 0 -221 96 -221 238c0 233 134 369 296 369c102 0 168 -50 187 -142l-47 -20c-14 78 -71 117 -144 117c-144 0 -238 -138 -238 -320c0 -118 62 -197 172 -197
c77 0 128 26 170 108l44 -23c-42 -87 -116 -130 -219 -130z" />
    <glyph glyph-name="Cdotaccent" unicode="&#x10a;" horiz-adv-x="550" 
d="M336 698c0 22 16 38 37 38c22 0 38 -16 38 -38c0 -21 -16 -38 -38 -38c-21 0 -37 17 -37 38zM276 -9c-139 0 -221 96 -221 238c0 233 134 369 296 369c102 0 168 -50 187 -142l-47 -20c-14 78 -71 117 -144 117c-144 0 -238 -138 -238 -320c0 -118 62 -197 172 -197
c77 0 128 26 170 108l44 -23c-42 -87 -116 -130 -219 -130z" />
    <glyph glyph-name="D" unicode="D" horiz-adv-x="583" 
d="M105 45h112c159 0 274 99 274 313c0 128 -76 186 -194 186h-104zM219 0h-175l103 589h157c157 0 243 -81 243 -227c0 -251 -149 -362 -328 -362z" />
    <glyph glyph-name="Dcaron" unicode="&#x10e;" horiz-adv-x="586" 
d="M105 45h112c159 0 274 99 274 313c0 128 -76 186 -194 186h-104zM219 0h-175l103 589h157c157 0 243 -81 243 -227c0 -251 -149 -362 -328 -362zM338 642h-30l-93 125h57l34 -48c15 -22 21 -38 21 -38h2s11 16 36 39l50 47h60z" />
    <glyph glyph-name="Dcedilla" unicode="&#x1e10;" horiz-adv-x="586" 
d="M197 0h-153l103 589h157c157 0 243 -81 243 -227c0 -251 -147 -357 -321 -362l-19 -46c49 -8 80 -31 80 -78c0 -52 -44 -81 -98 -81c-41 0 -70 17 -85 40l19 32c15 -25 37 -38 66 -38c32 0 54 17 54 47c0 31 -25 48 -75 50zM105 45h112c159 0 274 99 274 313
c0 128 -76 186 -194 186h-104z" />
    <glyph glyph-name="Dcroat" unicode="&#x110;" horiz-adv-x="586" 
d="M219 0h-175l47 272h-62l8 46h63l47 271h157c157 0 243 -81 243 -227c0 -251 -149 -362 -328 -362zM105 45h112c159 0 274 99 274 313c0 128 -76 186 -194 186h-104l-40 -226h146l-8 -46h-146z" />
    <glyph glyph-name="Ddotbelow" unicode="&#x1e0c;" horiz-adv-x="586" 
d="M105 45h112c159 0 274 99 274 313c0 128 -76 186 -194 186h-104zM219 0h-175l103 589h157c157 0 243 -81 243 -227c0 -251 -149 -362 -328 -362zM150 -139c0 22 16 39 37 39c22 0 39 -17 39 -39c0 -21 -17 -38 -39 -38c-21 0 -37 17 -37 38z" />
    <glyph glyph-name="dotbelow" unicode="&#xe415;" horiz-adv-x="210" 
d="M66 -139c0 22 16 39 37 39c22 0 38 -17 38 -39c0 -21 -16 -38 -38 -38c-21 0 -37 17 -37 38z" />
    <glyph glyph-name="E" unicode="E" horiz-adv-x="471" 
d="M387 46l-8 -46h-335l103 589h335l-8 -46h-281l-40 -225h251l-8 -46h-251l-40 -226h282z" />
    <glyph glyph-name="Eacute" unicode="&#xc9;" horiz-adv-x="471" 
d="M387 46l-8 -46h-335l103 589h335l-8 -46h-281l-40 -225h251l-8 -46h-251l-40 -226h282zM336 642h-46l73 121h71z" />
    <glyph glyph-name="Ebreve" unicode="&#x114;" horiz-adv-x="471" 
d="M387 46l-8 -46h-335l103 589h335l-8 -46h-281l-40 -225h251l-8 -46h-251l-40 -226h282zM316 638c-64 0 -100 34 -100 92c0 10 1 20 3 31h41c-1 -9 -1 -15 -1 -23c0 -39 20 -60 63 -60c53 0 82 29 95 83h42c-14 -78 -67 -123 -143 -123z" />
    <glyph glyph-name="Ecaron" unicode="&#x11a;" horiz-adv-x="471" 
d="M387 46l-8 -46h-335l103 589h335l-8 -46h-281l-40 -225h251l-8 -46h-251l-40 -226h282zM329 642h-31l-92 125h56l33 -48c14 -21 23 -38 23 -38h2c-1 0 14 18 36 39l49 47h61z" />
    <glyph glyph-name="Ecircumflex" unicode="&#xca;" horiz-adv-x="471" 
d="M387 46l-8 -46h-335l103 589h335l-8 -46h-281l-40 -225h251l-8 -46h-251l-40 -226h282zM319 767h31l92 -125h-56l-33 48c-14 21 -23 38 -23 38h-2c1 0 -15 -18 -36 -39l-50 -47h-60z" />
    <glyph glyph-name="Edieresis" unicode="&#xcb;" horiz-adv-x="471" 
d="M387 46l-8 -46h-335l103 589h335l-8 -46h-281l-40 -225h251l-8 -46h-251l-40 -226h282zM200 690c0 21 17 38 38 38c22 0 38 -17 38 -38s-16 -38 -38 -38c-21 0 -38 17 -38 38zM372 689c0 22 17 38 38 38s38 -16 38 -38c0 -21 -17 -38 -38 -38s-38 17 -38 38z" />
    <glyph glyph-name="Edotaccent" unicode="&#x116;" horiz-adv-x="471" 
d="M387 46l-8 -46h-335l103 589h335l-8 -46h-281l-40 -225h251l-8 -46h-251l-40 -226h282zM287 698c0 22 16 38 37 38c22 0 39 -16 39 -38c0 -21 -17 -38 -39 -38c-21 0 -37 17 -37 38z" />
    <glyph glyph-name="Edoublegrave" unicode="&#x204;" horiz-adv-x="471" 
d="M387 46l-8 -46h-335l103 589h335l-8 -46h-281l-40 -225h251l-8 -46h-251l-40 -226h282zM281 642h-40l-89 121h67zM403 642h-39l-83 121h65z" />
    <glyph glyph-name="Egrave" unicode="&#xc8;" horiz-adv-x="471" 
d="M387 46l-8 -46h-335l103 589h335l-8 -46h-281l-40 -225h251l-8 -46h-251l-40 -226h282zM342 642h-44l-80 121h70z" />
    <glyph glyph-name="Einvertedbreve" unicode="&#x206;" horiz-adv-x="471" 
d="M387 46l-8 -46h-335l103 589h335l-8 -46h-281l-40 -225h251l-8 -46h-251l-40 -226h282zM341 765c64 0 100 -34 100 -92c0 -10 -1 -20 -3 -31h-41c1 8 1 14 1 22c0 39 -20 61 -63 61c-53 0 -82 -29 -95 -83h-42c14 78 67 123 143 123z" />
    <glyph glyph-name="Emacron" unicode="&#x112;" horiz-adv-x="471" 
d="M387 46l-8 -46h-335l103 589h335l-8 -46h-281l-40 -225h251l-8 -46h-251l-40 -226h282zM433 667h-222l7 41h222z" />
    <glyph glyph-name="Eng" unicode="&#x14a;" horiz-adv-x="613" 
d="M155 -133l38 37c19 -40 57 -70 110 -70c80 0 110 43 129 142l4 22l-202 407c-28 58 -48 112 -48 112h-3s-4 -56 -16 -122l-69 -395h-54l103 589h57l198 -406c30 -62 46 -112 46 -112h3s7 57 19 123l69 395h53l-109 -626c-22 -126 -78 -173 -183 -173
c-77 0 -122 33 -145 77z" />
    <glyph glyph-name="Eogonek" unicode="&#x118;" horiz-adv-x="471" 
d="M350 -128l20 -25c-17 -27 -44 -48 -90 -48c-52 0 -80 28 -80 75c0 51 39 99 88 126h-244l103 589h335l-8 -46h-281l-40 -225h251l-8 -46h-251l-40 -226h282l-8 -46c-80 -15 -133 -61 -133 -122c0 -27 15 -42 42 -42c29 0 46 13 62 36z" />
    <glyph glyph-name="Eth" unicode="&#xd0;" horiz-adv-x="586" 
d="M219 0h-175l47 272h-62l8 46h63l47 271h157c157 0 243 -81 243 -227c0 -251 -149 -362 -328 -362zM105 45h112c159 0 274 99 274 313c0 128 -76 186 -194 186h-104l-40 -226h146l-8 -46h-146z" />
    <glyph glyph-name="Euro" unicode="&#x20ac;" horiz-adv-x="530" 
d="M359 284h-199c-6 -24 -10 -50 -10 -78h179l-15 -36h-162c7 -84 58 -137 138 -137c63 0 115 27 150 96l38 -27c-41 -77 -105 -111 -194 -111c-106 0 -178 67 -186 179h-82l6 36h76c0 28 4 53 10 78h-72l6 36h76c37 105 122 170 233 170c90 0 142 -44 158 -117l-49 -22
c-11 64 -54 96 -117 96c-77 0 -139 -48 -170 -127h201z" />
    <glyph glyph-name="Euro.LP" unicode="&#xe521;" horiz-adv-x="553" 
d="M329 221h-185c4 -111 62 -185 163 -185c75 0 126 26 165 108l42 -23c-41 -87 -112 -130 -211 -130c-131 0 -209 92 -212 230h-71l6 36h65c1 27 5 53 9 78h-60l6 36h63c40 145 144 227 265 227c98 0 161 -50 179 -142l-50 -21c-14 78 -63 118 -133 118
c-100 0 -175 -72 -207 -182h226l-14 -36h-222c-5 -25 -8 -51 -9 -78h200z" />
    <glyph glyph-name="Ezh" unicode="&#x1b7;" horiz-adv-x="482" 
d="M484 553l-278 -287l-1 -4c126 -1 206 -70 206 -196c0 -158 -117 -247 -241 -247s-198 64 -198 184l45 12c0 -107 60 -154 153 -154c104 0 190 72 190 205c0 115 -78 164 -217 163l7 40l193 203c47 50 77 72 77 72v3s-26 -4 -89 -4h-232l8 46h384z" />
    <glyph glyph-name="Ezhcaron" unicode="&#x1ee;" horiz-adv-x="482" 
d="M484 553l-278 -287l-1 -4c126 -1 206 -70 206 -196c0 -158 -117 -247 -241 -247s-198 64 -198 184l45 12c0 -107 60 -154 153 -154c104 0 190 72 190 205c0 115 -78 164 -217 163l7 40l193 203c47 50 77 72 77 72v3s-26 -4 -89 -4h-232l8 46h384zM320 642h-30l-93 125h57
l34 -48c15 -22 21 -38 21 -38h2s11 16 36 39l50 47h60z" />
    <glyph glyph-name="F" unicode="F" horiz-adv-x="437" 
d="M98 0h-54l103 589h321l-8 -46h-267l-40 -225h236l-8 -46h-236z" />
    <glyph glyph-name="G" unicode="G" horiz-adv-x="579" 
d="M318 288h212l-51 -288h-42l8 99c-25 -64 -85 -108 -170 -108c-138 0 -220 96 -220 238c0 233 134 369 297 369c102 0 167 -50 186 -142l-47 -20c-14 78 -71 117 -144 117c-143 0 -238 -138 -238 -320c0 -118 60 -197 172 -197c86 0 162 53 182 167l6 37h-160z" />
    <glyph glyph-name="Gacute" unicode="&#x1f4;" horiz-adv-x="579" 
d="M381 642h-46l73 121h71zM318 288h212l-51 -288h-42l8 99c-25 -64 -85 -108 -170 -108c-138 0 -220 96 -220 238c0 233 134 369 297 369c102 0 167 -50 186 -142l-47 -20c-14 78 -71 117 -144 117c-143 0 -238 -138 -238 -320c0 -118 60 -197 172 -197
c86 0 162 53 182 167l6 37h-160z" />
    <glyph glyph-name="Gbreve" unicode="&#x11e;" horiz-adv-x="579" 
d="M361 638c-64 0 -100 34 -100 92c0 10 1 20 3 31h42c-2 -9 -2 -15 -2 -23c0 -39 20 -60 64 -60c53 0 81 29 95 83h41c-14 -78 -66 -123 -143 -123zM318 288h212l-51 -288h-42l8 99c-25 -64 -85 -108 -170 -108c-138 0 -220 96 -220 238c0 233 134 369 297 369
c102 0 167 -50 186 -142l-47 -20c-14 78 -71 117 -144 117c-143 0 -238 -138 -238 -320c0 -118 60 -197 172 -197c86 0 162 53 182 167l6 37h-160z" />
    <glyph glyph-name="Gcaron" unicode="&#x1e6;" horiz-adv-x="579" 
d="M375 642h-31l-93 125h57l33 -48c14 -21 22 -38 22 -38h2s15 18 37 39l49 47h61zM318 288h212l-51 -288h-42l8 99c-25 -64 -85 -108 -170 -108c-138 0 -220 96 -220 238c0 233 134 369 297 369c102 0 167 -50 186 -142l-47 -20c-14 78 -71 117 -144 117
c-143 0 -238 -138 -238 -320c0 -118 60 -197 172 -197c86 0 162 53 182 167l6 37h-160z" />
    <glyph glyph-name="Gcircumflex" unicode="&#x11c;" horiz-adv-x="579" 
d="M364 767h31l92 -125h-56l-33 48c-14 21 -22 38 -22 38h-2s-15 -18 -37 -39l-49 -47h-61zM318 288h212l-51 -288h-42l8 99c-25 -64 -85 -108 -170 -108c-138 0 -220 96 -220 238c0 233 134 369 297 369c102 0 167 -50 186 -142l-47 -20c-14 78 -71 117 -144 117
c-143 0 -238 -138 -238 -320c0 -118 60 -197 172 -197c86 0 162 53 182 167l6 37h-160z" />
    <glyph glyph-name="Gcommaaccent" unicode="&#x122;" horiz-adv-x="579" 
d="M281 -141c0 -61 -49 -91 -113 -91v25c36 2 76 15 76 47c0 4 -1 7 -2 10c-4 -4 -9 -5 -15 -5c-19 0 -32 13 -32 32c0 22 16 36 39 36c25 0 47 -18 47 -54zM318 288h212l-51 -288h-42l8 99c-25 -64 -85 -108 -170 -108c-138 0 -220 96 -220 238c0 233 134 369 297 369
c102 0 167 -50 186 -142l-47 -20c-14 78 -71 117 -144 117c-143 0 -238 -138 -238 -320c0 -118 60 -197 172 -197c86 0 162 53 182 167l6 37h-160z" />
    <glyph glyph-name="commaaccent" unicode="&#xe414;" horiz-adv-x="255" 
d="M191 -141c0 -61 -49 -91 -113 -91v25c36 2 76 15 76 47c0 4 -1 7 -2 10c-4 -4 -9 -5 -15 -5c-19 0 -31 13 -31 32c0 22 15 36 38 36c26 0 47 -18 47 -54z" />
    <glyph glyph-name="commaaccent" unicode="&#xf6c3;" horiz-adv-x="255" 
d="M191 -141c0 -61 -49 -91 -113 -91v25c36 2 76 15 76 47c0 4 -1 7 -2 10c-4 -4 -9 -5 -15 -5c-19 0 -31 13 -31 32c0 22 15 36 38 36c26 0 47 -18 47 -54z" />
    <glyph glyph-name="Gcommaturnedabove" unicode="&#xe107;" horiz-adv-x="579" 
d="M328 708c0 61 50 91 113 91v-26c-36 -1 -75 -15 -75 -47c0 -4 0 -6 1 -9c4 3 9 5 16 5c18 0 31 -14 31 -32c0 -22 -15 -36 -39 -36c-25 0 -47 18 -47 54zM318 288h212l-51 -288h-42l8 99c-25 -64 -85 -108 -170 -108c-138 0 -220 96 -220 238c0 233 134 369 297 369
c102 0 167 -50 186 -142l-47 -20c-14 78 -71 117 -144 117c-143 0 -238 -138 -238 -320c0 -118 60 -197 172 -197c86 0 162 53 182 167l6 37h-160z" />
    <glyph glyph-name="commaaccent.cap" unicode="&#xe42e;" horiz-adv-x="255" 
d="M67 708c0 61 49 91 113 91v-26c-36 -1 -76 -15 -76 -47c0 -4 0 -6 2 -9c3 3 9 5 15 5c19 0 31 -14 31 -32c0 -22 -15 -36 -38 -36c-26 0 -47 18 -47 54z" />
    <glyph glyph-name="Gdotaccent" unicode="&#x120;" horiz-adv-x="579" 
d="M333 698c0 22 16 38 37 38c22 0 38 -16 38 -38c0 -21 -16 -38 -38 -38c-21 0 -37 17 -37 38zM318 288h212l-51 -288h-42l8 99c-25 -64 -85 -108 -170 -108c-138 0 -220 96 -220 238c0 233 134 369 297 369c102 0 167 -50 186 -142l-47 -20c-14 78 -71 117 -144 117
c-143 0 -238 -138 -238 -320c0 -118 60 -197 172 -197c86 0 162 53 182 167l6 37h-160z" />
    <glyph glyph-name="Gstroke" unicode="&#x1e4;" horiz-adv-x="587" 
d="M569 173h-59l-31 -173h-42l8 99c-25 -64 -85 -108 -170 -108c-138 0 -220 96 -220 238c0 233 134 369 297 369c102 0 167 -50 186 -142l-47 -20c-14 78 -71 117 -144 117c-143 0 -238 -138 -238 -320c0 -118 60 -197 172 -197c78 0 149 45 175 137h-158l7 42h160l10 56
h-160l8 45h212l-18 -101h59z" />
    <glyph glyph-name="Gtilde" unicode="&#xe105;" horiz-adv-x="579" 
d="M260 652l-34 1c-1 8 -2 15 -2 22c0 45 32 77 74 77c26 0 42 -9 61 -22l36 -27c13 -9 23 -14 37 -14c24 0 36 19 39 58l33 -2c2 -7 3 -14 3 -22c0 -44 -33 -76 -75 -76c-25 0 -42 9 -61 22l-36 27c-13 9 -23 13 -37 13c-24 0 -36 -18 -38 -57zM318 288h212l-51 -288h-42
l8 99c-25 -64 -85 -108 -170 -108c-138 0 -220 96 -220 238c0 233 134 369 297 369c102 0 167 -50 186 -142l-47 -20c-14 78 -71 117 -144 117c-143 0 -238 -138 -238 -320c0 -118 60 -197 172 -197c86 0 162 53 182 167l6 37h-160z" />
    <glyph glyph-name="H" unicode="H" horiz-adv-x="614" 
d="M540 589h53l-102 -589h-54l47 274h-339l-47 -274h-54l103 589h54l-47 -268h339z" />
    <glyph glyph-name="Hbar" unicode="&#x126;" horiz-adv-x="627" 
d="M545 589h53l-21 -118h80l-9 -46h-79l-73 -425h-54l47 274h-339l-47 -274h-54l74 425h-74l8 46h74l21 118h54l-21 -118h339zM159 321h339l17 104h-339z" />
    <glyph glyph-name="Hcaron" unicode="&#x21e;" horiz-adv-x="614" 
d="M540 589h53l-102 -589h-54l47 274h-339l-47 -274h-54l103 589h54l-47 -268h339zM362 642l-93 125h56l33 -48c15 -21 23 -38 23 -38h2c-1 0 15 18 36 39l50 47h60l-137 -125h-30z" />
    <glyph glyph-name="Hcircumflex" unicode="&#x124;" horiz-adv-x="614" 
d="M540 589h53l-102 -589h-54l47 274h-339l-47 -274h-54l103 589h54l-47 -268h339zM382 767h30l93 -125h-56l-33 48c-15 21 -23 38 -23 38h-2c1 0 -15 -18 -36 -39l-50 -47h-60z" />
    <glyph glyph-name="Hdotbelow" unicode="&#x1e24;" horiz-adv-x="614" 
d="M540 589h53l-102 -589h-54l47 274h-339l-47 -274h-54l103 589h54l-47 -268h339zM204 -139c0 22 17 39 37 39c22 0 39 -17 39 -39c0 -21 -17 -38 -39 -38c-20 0 -37 17 -37 38z" />
    <glyph glyph-name="Hmacronbelow" unicode="&#xe109;" horiz-adv-x="614" 
d="M540 589h53l-102 -589h-54l47 274h-339l-47 -274h-54l103 589h54l-47 -268h339zM360 -169h-240l8 42h240z" />
    <glyph glyph-name="uni0320" unicode="&#x320;" horiz-adv-x="381" 
d="M306 -169h-239l7 42h240z" />
    <glyph glyph-name="I" unicode="I" horiz-adv-x="221" 
d="M147 589h54l-103 -589h-54z" />
    <glyph glyph-name="IJ" unicode="&#x132;" horiz-adv-x="633" 
d="M147 589h54l-103 -589h-54zM569 589h54l-75 -425c-22 -128 -80 -173 -184 -173c-94 0 -145 52 -158 121l44 26c14 -68 53 -104 116 -104c80 0 113 40 130 139z" />
    <glyph glyph-name="J" unicode="J" horiz-adv-x="419" 
d="M355 589h54l-75 -425c-23 -128 -80 -173 -185 -173c-93 0 -144 52 -157 121l44 26c13 -68 53 -104 116 -104c79 0 113 40 130 139z" />
    <glyph glyph-name="Iacute" unicode="&#xcd;" horiz-adv-x="221" 
d="M147 589h54l-103 -589h-54zM202 642h-46l73 121h71z" />
    <glyph glyph-name="Ibreve" unicode="&#x12c;" horiz-adv-x="221" 
d="M147 589h54l-103 -589h-54zM182 638c-64 0 -100 34 -100 92c0 10 1 20 3 31h42c-2 -9 -2 -15 -2 -23c0 -39 20 -60 64 -60c53 0 81 29 95 83h41c-14 -78 -66 -123 -143 -123z" />
    <glyph glyph-name="Icaron" unicode="&#x1cf;" horiz-adv-x="221" 
d="M147 589h54l-103 -589h-54zM196 642h-31l-93 125h57l33 -48c14 -21 22 -38 22 -38h2s15 18 37 39l49 47h61z" />
    <glyph glyph-name="Icircumflex" unicode="&#xce;" horiz-adv-x="221" 
d="M147 589h54l-103 -589h-54zM185 767h31l92 -125h-56l-33 48c-14 21 -22 38 -22 38h-2s-15 -18 -37 -39l-49 -47h-61z" />
    <glyph glyph-name="Idieresis" unicode="&#xcf;" horiz-adv-x="221" 
d="M147 589h54l-103 -589h-54zM67 690c0 21 17 38 37 38c22 0 38 -17 38 -38s-16 -38 -38 -38c-20 0 -37 17 -37 38zM238 689c0 22 17 38 38 38s38 -16 38 -38c0 -21 -17 -38 -38 -38s-38 17 -38 38z" />
    <glyph glyph-name="Idotaccent" unicode="&#x130;" horiz-adv-x="221" 
d="M147 589h54l-103 -589h-54zM154 698c0 22 16 38 37 38c22 0 38 -16 38 -38c0 -21 -16 -38 -38 -38c-21 0 -37 17 -37 38z" />
    <glyph glyph-name="Idotbelow" unicode="&#x1eca;" horiz-adv-x="221" 
d="M147 589h54l-103 -589h-54zM8 -139c0 22 16 39 37 39c22 0 38 -17 38 -39c0 -21 -16 -38 -38 -38c-21 0 -37 17 -37 38z" />
    <glyph glyph-name="Idoublegrave" unicode="&#x208;" horiz-adv-x="221" 
d="M147 589h54l-103 -589h-54zM147 642h-40l-89 121h67zM269 642h-39l-83 121h66z" />
    <glyph glyph-name="Igrave" unicode="&#xcc;" horiz-adv-x="221" 
d="M147 589h54l-103 -589h-54zM209 642h-45l-79 121h69z" />
    <glyph glyph-name="Iinvertedbreve" unicode="&#x20a;" horiz-adv-x="221" 
d="M147 589h54l-103 -589h-54zM207 765c65 0 101 -34 101 -92c0 -10 -1 -20 -3 -31h-42c1 8 1 14 1 22c0 39 -20 61 -63 61c-53 0 -81 -29 -95 -83h-41c14 78 66 123 142 123z" />
    <glyph glyph-name="Imacron" unicode="&#x12a;" horiz-adv-x="221" 
d="M147 589h54l-103 -589h-54zM299 667h-221l6 41h222z" />
    <glyph glyph-name="Iogonek" unicode="&#x12e;" horiz-adv-x="221" 
d="M73 -128l21 -25c-17 -27 -44 -48 -91 -48c-52 0 -80 28 -80 75c0 70 63 123 125 150l99 565h54l-103 -589c-66 -15 -129 -60 -129 -122c0 -27 16 -42 42 -42c29 0 46 13 62 36z" />
    <glyph glyph-name="Itilde" unicode="&#x128;" horiz-adv-x="221" 
d="M147 589h54l-103 -589h-54zM81 652l-34 1c-1 8 -2 15 -2 22c0 45 32 77 74 77c26 0 42 -9 61 -22l36 -27c13 -9 23 -14 37 -14c24 0 36 19 39 58l33 -2c2 -7 3 -14 3 -22c0 -44 -33 -76 -75 -76c-25 0 -42 9 -60 22l-37 27c-13 9 -23 13 -37 13c-24 0 -36 -18 -38 -57z
" />
    <glyph glyph-name="Jcaron" unicode="&#xe10b;" horiz-adv-x="419" 
d="M355 589h54l-75 -425c-23 -128 -80 -173 -185 -173c-93 0 -144 52 -157 121l44 26c13 -68 53 -104 116 -104c79 0 113 40 130 139zM404 642h-31l-93 125h57l34 -48c15 -22 22 -38 22 -38h2s11 16 35 39l51 47h60z" />
    <glyph glyph-name="Jcircumflex" unicode="&#x134;" horiz-adv-x="419" 
d="M355 589h54l-75 -425c-23 -128 -80 -173 -185 -173c-93 0 -144 52 -157 121l44 26c13 -68 53 -104 116 -104c79 0 113 40 130 139zM393 767h31l92 -125h-56l-34 48c-15 22 -22 38 -22 38h-2s-11 -16 -35 -39l-51 -47h-60z" />
    <glyph glyph-name="K" unicode="K" horiz-adv-x="493" 
d="M442 0h-60l-181 274h-56l-47 -274h-54l103 589h54l-47 -269h49l263 269h65l-287 -289z" />
    <glyph glyph-name="Kcaron" unicode="&#x1e8;" horiz-adv-x="493" 
d="M442 0h-60l-181 274h-56l-47 -274h-54l103 589h54l-47 -269h49l263 269h65l-287 -289zM332 642h-30l-93 125h57l34 -48c15 -22 21 -38 21 -38h2s11 16 36 39l50 47h60z" />
    <glyph glyph-name="Kcedilla" unicode="&#xe10d;" horiz-adv-x="493" 
d="M442 0h-60l-181 274h-56l-47 -274h-54l103 589h54l-47 -269h49l263 269h65l-287 -289zM279 -124c0 -52 -44 -81 -98 -81c-41 0 -69 17 -85 40l19 32c15 -25 38 -38 66 -38c32 0 54 17 54 47c0 31 -25 48 -75 50l31 79h30l-21 -51c48 -8 79 -31 79 -78z" />
    <glyph glyph-name="altcedilla" unicode="&#xe416;" horiz-adv-x="314" 
d="M130 -70l5 28c64 2 112 -29 112 -85c0 -50 -38 -79 -94 -79c-44 0 -73 18 -85 42l19 29c16 -23 41 -36 67 -36c30 0 52 17 52 49c0 33 -27 50 -76 52z" />
    <glyph glyph-name="Kcommaaccent" unicode="&#x136;" horiz-adv-x="493" 
d="M442 0h-60l-181 274h-56l-47 -274h-54l103 589h54l-47 -269h49l263 269h65l-287 -289zM239 -141c0 -61 -50 -91 -114 -91v25c37 2 76 15 76 47c0 4 0 7 -2 10c-3 -4 -8 -5 -15 -5c-19 0 -31 13 -31 32c0 22 15 36 39 36c25 0 47 -18 47 -54z" />
    <glyph glyph-name="Khook" unicode="&#x198;" horiz-adv-x="493" 
d="M203 320l128 176c45 65 78 102 134 102c39 0 63 -20 69 -51l-36 -30c-6 22 -19 32 -38 32c-31 0 -50 -25 -83 -71l-133 -178l198 -300h-60l-181 274h-56l-47 -274h-54l103 589h54l-47 -269h49z" />
    <glyph glyph-name="L" unicode="L" horiz-adv-x="436" 
d="M147 589h54l-96 -543h273l-7 -46h-327z" />
    <glyph glyph-name="Lacute" unicode="&#x139;" horiz-adv-x="436" 
d="M147 589h54l-96 -543h273l-7 -46h-327zM203 642h-46l73 121h71z" />
    <glyph glyph-name="Lcaron" unicode="&#x13d;" horiz-adv-x="436" 
d="M147 589h54l-96 -543h273l-7 -46h-327zM370 632l-52 -175h-38l30 175h60z" />
    <glyph glyph-name="caronSlovak" unicode="&#xe413;" horiz-adv-x="223" 
d="M156 668l-52 -175h-37l29 175h60z" />
    <glyph glyph-name="Lcedilla" unicode="&#xe10f;" horiz-adv-x="436" 
d="M278 -124c0 -52 -43 -81 -97 -81c-41 0 -70 17 -86 40l19 32c16 -25 38 -38 67 -38c32 0 54 17 54 47c0 31 -26 48 -76 50l29 74h-144l103 589h54l-96 -543h273l-7 -46h-153l-19 -46c49 -8 79 -31 79 -78z" />
    <glyph glyph-name="Lcommaaccent" unicode="&#x13b;" horiz-adv-x="436" 
d="M147 589h54l-96 -543h273l-7 -46h-327zM236 -141c0 -61 -49 -91 -113 -91v25c36 2 76 15 76 47c0 4 -1 7 -2 10c-4 -4 -9 -5 -15 -5c-19 0 -31 13 -31 32c0 22 15 36 38 36c25 0 47 -18 47 -54z" />
    <glyph glyph-name="Ldot" unicode="&#x13f;" horiz-adv-x="436" 
d="M147 589h54l-96 -543h273l-7 -46h-327zM299 302c0 24 18 42 42 42s42 -18 42 -42c0 -25 -18 -43 -42 -43s-42 18 -42 43z" />
    <glyph glyph-name="periodcentered" unicode="&#xb7;" horiz-adv-x="246" 
d="M81 249c0 24 18 42 43 42c24 0 42 -18 42 -42s-18 -42 -42 -42c-25 0 -43 18 -43 42z" />
    <glyph glyph-name="Ldotbelow" unicode="&#x1e36;" horiz-adv-x="436" 
d="M147 589h54l-96 -543h273l-7 -46h-327zM142 -139c0 22 16 39 37 39c22 0 38 -17 38 -39c0 -21 -16 -38 -38 -38c-21 0 -37 17 -37 38z" />
    <glyph glyph-name="Lslash" unicode="&#x141;" horiz-adv-x="439" 
d="M150 589h53l-48 -276l163 68l-9 -48l-162 -67l-39 -220h273l-7 -46h-327l43 245l-71 -29l9 46l70 29z" />
    <glyph glyph-name="M" unicode="M" horiz-adv-x="690" 
d="M353 147h-40l-94 267c-24 67 -31 103 -31 103h-3s-3 -32 -15 -103l-72 -414h-54l103 589h63l111 -320c15 -43 19 -70 19 -70h3s9 25 39 68l224 322h64l-102 -589h-54l72 414c12 70 21 103 21 103h-3s-16 -35 -62 -101z" />
    <glyph glyph-name="Mcedilla" unicode="&#xe113;" horiz-adv-x="690" 
d="M377 -124c0 -52 -44 -81 -98 -81c-41 0 -70 17 -86 40l19 32c16 -25 38 -38 67 -38c32 0 54 17 54 47c0 31 -25 48 -75 50l30 79h30l-21 -51c49 -8 80 -31 80 -78zM353 147h-40l-94 267c-24 67 -31 103 -31 103h-3s-3 -32 -15 -103l-72 -414h-54l103 589h63l111 -320
c15 -43 19 -70 19 -70h3s9 25 39 68l224 322h64l-102 -589h-54l72 414c12 70 21 103 21 103h-3s-16 -35 -62 -101z" />
    <glyph glyph-name="Mdotbelow" unicode="&#x1e42;" horiz-adv-x="690" 
d="M243 -139c0 22 16 39 37 39c22 0 38 -17 38 -39c0 -21 -16 -38 -38 -38c-21 0 -37 17 -37 38zM353 147h-40l-94 267c-24 67 -31 103 -31 103h-3s-3 -32 -15 -103l-72 -414h-54l103 589h63l111 -320c15 -43 19 -70 19 -70h3s9 25 39 68l224 322h64l-102 -589h-54l72 414
c12 70 21 103 21 103h-3s-16 -35 -62 -101z" />
    <glyph glyph-name="Mmacron" unicode="&#xe111;" horiz-adv-x="690" 
d="M534 667h-221l6 41h222zM353 147h-40l-94 267c-24 67 -31 103 -31 103h-3s-3 -32 -15 -103l-72 -414h-54l103 589h63l111 -320c15 -43 19 -70 19 -70h3s9 25 39 68l224 322h64l-102 -589h-54l72 414c12 70 21 103 21 103h-3s-16 -35 -62 -101z" />
    <glyph glyph-name="N" unicode="N" horiz-adv-x="613" 
d="M204 589l196 -406c30 -61 48 -114 48 -114h3s7 59 19 125l69 395h53l-102 -589h-56l-198 405c-27 55 -50 114 -50 114h-3s-4 -58 -16 -124l-69 -395h-54l103 589h57z" />
    <glyph glyph-name="Nacute" unicode="&#x143;" horiz-adv-x="613" 
d="M391 642h-45l72 121h71zM204 589l196 -406c30 -61 48 -114 48 -114h3s7 59 19 125l69 395h53l-102 -589h-56l-198 405c-27 55 -50 114 -50 114h-3s-4 -58 -16 -124l-69 -395h-54l103 589h57z" />
    <glyph glyph-name="Ncaron" unicode="&#x147;" horiz-adv-x="613" 
d="M385 642h-30l-93 125h57l34 -48c15 -22 21 -38 21 -38h2s11 16 36 39l50 47h60zM204 589l196 -406c30 -61 48 -114 48 -114h3s7 59 19 125l69 395h53l-102 -589h-56l-198 405c-27 55 -50 114 -50 114h-3s-4 -58 -16 -124l-69 -395h-54l103 589h57z" />
    <glyph glyph-name="Ncedilla" unicode="&#xe119;" horiz-adv-x="613" 
d="M331 -124c0 -52 -43 -81 -98 -81c-41 0 -69 17 -85 40l19 32c15 -25 38 -38 66 -38c32 0 54 17 54 47c0 31 -25 48 -75 50l31 79h30l-21 -51c48 -8 79 -31 79 -78zM204 589l196 -406c30 -61 48 -114 48 -114h3s7 59 19 125l69 395h53l-102 -589h-56l-198 405
c-27 55 -50 114 -50 114h-3s-4 -58 -16 -124l-69 -395h-54l103 589h57z" />
    <glyph glyph-name="Ncommaaccent" unicode="&#x145;" horiz-adv-x="613" 
d="M293 -141c0 -61 -50 -91 -113 -91v25c36 2 75 15 75 47c0 4 0 7 -2 10c-3 -4 -8 -5 -15 -5c-18 0 -31 13 -31 32c0 22 15 36 39 36c25 0 47 -18 47 -54zM204 589l196 -406c30 -61 48 -114 48 -114h3s7 59 19 125l69 395h53l-102 -589h-56l-198 405
c-27 55 -50 114 -50 114h-3s-4 -58 -16 -124l-69 -395h-54l103 589h57z" />
    <glyph glyph-name="Ndescender" horiz-adv-x="613" 
d="M204 589l196 -406c30 -62 48 -112 48 -112h3s7 57 19 123l69 395h53l-138 -792h-53l35 200l-200 408c-28 58 -50 114 -50 114h-3s-4 -58 -16 -124l-69 -395h-54l103 589h57z" />
    <glyph glyph-name="Ndieresis" unicode="&#xe115;" horiz-adv-x="613" 
d="M256 690c0 21 17 38 38 38s38 -17 38 -38s-17 -38 -38 -38s-38 17 -38 38zM428 689c0 22 16 38 37 38c22 0 38 -16 38 -38c0 -21 -16 -38 -38 -38c-21 0 -37 17 -37 38zM204 589l196 -406c30 -61 48 -114 48 -114h3s7 59 19 125l69 395h53l-102 -589h-56l-198 405
c-27 55 -50 114 -50 114h-3s-4 -58 -16 -124l-69 -395h-54l103 589h57z" />
    <glyph glyph-name="Ndotaccent" unicode="&#x1e44;" horiz-adv-x="613" 
d="M343 698c0 22 17 38 37 38c23 0 39 -16 39 -38c0 -21 -16 -38 -39 -38c-20 0 -37 17 -37 38zM204 589l196 -406c30 -61 48 -114 48 -114h3s7 59 19 125l69 395h53l-102 -589h-56l-198 405c-27 55 -50 114 -50 114h-3s-4 -58 -16 -124l-69 -395h-54l103 589h57z" />
    <glyph glyph-name="Ndotbelow" unicode="&#x1e46;" horiz-adv-x="613" 
d="M197 -139c0 22 16 39 37 39c22 0 39 -17 39 -39c0 -21 -17 -38 -39 -38c-21 0 -37 17 -37 38zM204 589l196 -406c30 -61 48 -114 48 -114h3s7 59 19 125l69 395h53l-102 -589h-56l-198 405c-27 55 -50 114 -50 114h-3s-4 -58 -16 -124l-69 -395h-54l103 589h57z" />
    <glyph glyph-name="Ngrave" unicode="&#x1f8;" horiz-adv-x="613" 
d="M398 642h-45l-79 121h69zM204 589l196 -406c30 -61 48 -114 48 -114h3s7 59 19 125l69 395h53l-102 -589h-56l-198 405c-27 55 -50 114 -50 114h-3s-4 -58 -16 -124l-69 -395h-54l103 589h57z" />
    <glyph glyph-name="Nmacron" unicode="&#xe117;" horiz-adv-x="613" 
d="M489 667h-222l7 41h222zM204 589l196 -406c30 -61 48 -114 48 -114h3s7 59 19 125l69 395h53l-102 -589h-56l-198 405c-27 55 -50 114 -50 114h-3s-4 -58 -16 -124l-69 -395h-54l103 589h57z" />
    <glyph glyph-name="Ntilde" unicode="&#xd1;" horiz-adv-x="613" 
d="M270 652l-33 1c-2 8 -3 15 -3 22c0 45 33 77 75 77c25 0 42 -9 60 -22l37 -27c12 -9 23 -14 37 -14c24 0 36 19 38 58l34 -2c1 -7 2 -14 2 -22c0 -44 -33 -76 -75 -76c-25 0 -42 9 -60 22l-37 27c-12 9 -22 13 -37 13c-24 0 -36 -18 -38 -57zM204 589l196 -406
c30 -61 48 -114 48 -114h3s7 59 19 125l69 395h53l-102 -589h-56l-198 405c-27 55 -50 114 -50 114h-3s-4 -58 -16 -124l-69 -395h-54l103 589h57z" />
    <glyph glyph-name="O" unicode="O" horiz-adv-x="610" 
d="M281 36c140 0 236 137 236 319c0 116 -57 197 -172 197c-140 0 -236 -136 -236 -319c0 -121 63 -197 172 -197zM277 -9c-138 0 -222 94 -222 239c0 230 134 368 295 368c137 0 222 -94 222 -240c0 -230 -135 -367 -295 -367z" />
    <glyph glyph-name="OE" unicode="&#x152;" horiz-adv-x="830" 
d="M277 -9c-138 0 -222 94 -222 239c0 230 134 368 295 368c24 0 47 -3 68 -9h423l-8 -46h-337c48 -40 76 -104 76 -185c0 -13 -1 -27 -2 -40h192l-8 -46h-190c-16 -104 -64 -181 -130 -226h312l-8 -46h-392c-23 -6 -46 -9 -69 -9zM281 36c140 0 236 137 236 319
c0 116 -57 197 -172 197c-140 0 -236 -136 -236 -319c0 -121 63 -197 172 -197z" />
    <glyph glyph-name="Oacute" unicode="&#xd3;" horiz-adv-x="610" 
d="M281 36c140 0 236 137 236 319c0 116 -57 197 -172 197c-140 0 -236 -136 -236 -319c0 -121 63 -197 172 -197zM277 -9c-138 0 -222 94 -222 239c0 230 134 368 295 368c137 0 222 -94 222 -240c0 -230 -135 -367 -295 -367zM387 642h-45l73 121h70z" />
    <glyph glyph-name="Obreve" unicode="&#x14e;" horiz-adv-x="610" 
d="M281 36c140 0 236 137 236 319c0 116 -57 197 -172 197c-140 0 -236 -136 -236 -319c0 -121 63 -197 172 -197zM277 -9c-138 0 -222 94 -222 239c0 230 134 368 295 368c137 0 222 -94 222 -240c0 -230 -135 -367 -295 -367zM368 638c-65 0 -101 34 -101 92
c0 10 1 20 3 31h42c-1 -9 -1 -15 -1 -23c0 -39 20 -60 63 -60c53 0 81 29 95 83h41c-14 -78 -66 -123 -142 -123z" />
    <glyph glyph-name="Ocaron" unicode="&#x1d1;" horiz-adv-x="610" 
d="M281 36c140 0 236 137 236 319c0 116 -57 197 -172 197c-140 0 -236 -136 -236 -319c0 -121 63 -197 172 -197zM277 -9c-138 0 -222 94 -222 239c0 230 134 368 295 368c137 0 222 -94 222 -240c0 -230 -135 -367 -295 -367zM381 642h-30l-93 125h57l34 -48
c15 -22 21 -38 21 -38h2s11 16 36 39l50 47h60z" />
    <glyph glyph-name="Ocedilla" unicode="&#xe11f;" horiz-adv-x="610" 
d="M330 -124c0 -52 -44 -81 -98 -81c-41 0 -70 17 -85 40l19 32c15 -25 37 -38 66 -38c32 0 54 17 54 47c0 31 -25 48 -75 50l26 68c-114 15 -182 104 -182 236c0 230 134 368 295 368c137 0 222 -94 222 -240c0 -230 -135 -367 -295 -367h-12l-14 -37c48 -8 79 -31 79 -78z
M281 36c140 0 236 137 236 319c0 116 -57 197 -172 197c-140 0 -236 -136 -236 -319c0 -121 63 -197 172 -197z" />
    <glyph glyph-name="Ocircumflex" unicode="&#xd4;" horiz-adv-x="610" 
d="M281 36c140 0 236 137 236 319c0 116 -57 197 -172 197c-140 0 -236 -136 -236 -319c0 -121 63 -197 172 -197zM277 -9c-138 0 -222 94 -222 239c0 230 134 368 295 368c137 0 222 -94 222 -240c0 -230 -135 -367 -295 -367zM371 767h30l93 -125h-57l-34 48
c-15 22 -21 38 -21 38h-2s-11 -16 -36 -39l-50 -47h-60z" />
    <glyph glyph-name="Ocommaturnedabove" unicode="&#xe11b;" horiz-adv-x="610" 
d="M281 36c140 0 236 137 236 319c0 116 -57 197 -172 197c-140 0 -236 -136 -236 -319c0 -121 63 -197 172 -197zM277 -9c-138 0 -222 94 -222 239c0 230 134 368 295 368c137 0 222 -94 222 -240c0 -230 -135 -367 -295 -367zM335 703c0 61 49 91 113 91v-25
c-36 -2 -76 -15 -76 -47c0 -4 1 -7 2 -10c4 4 9 6 15 6c19 0 31 -14 31 -33c0 -22 -15 -35 -38 -35c-26 0 -47 17 -47 53z" />
    <glyph glyph-name="Odieresis" unicode="&#xd6;" horiz-adv-x="610" 
d="M281 36c140 0 236 137 236 319c0 116 -57 197 -172 197c-140 0 -236 -136 -236 -319c0 -121 63 -197 172 -197zM277 -9c-138 0 -222 94 -222 239c0 230 134 368 295 368c137 0 222 -94 222 -240c0 -230 -135 -367 -295 -367zM252 690c0 21 17 38 38 38s38 -17 38 -38
s-17 -38 -38 -38s-38 17 -38 38zM424 689c0 22 17 38 37 38c22 0 38 -16 38 -38c0 -21 -16 -38 -38 -38c-20 0 -37 17 -37 38z" />
    <glyph glyph-name="Odotabove" unicode="&#x22e;" horiz-adv-x="610" 
d="M281 36c140 0 236 137 236 319c0 116 -57 197 -172 197c-140 0 -236 -136 -236 -319c0 -121 63 -197 172 -197zM277 -9c-138 0 -222 94 -222 239c0 230 134 368 295 368c137 0 222 -94 222 -240c0 -230 -135 -367 -295 -367zM339 698c0 22 17 38 38 38
c22 0 38 -16 38 -38c0 -21 -16 -38 -38 -38c-21 0 -38 17 -38 38z" />
    <glyph glyph-name="Odotbelow" unicode="&#x1ecc;" horiz-adv-x="610" 
d="M281 36c140 0 236 137 236 319c0 116 -57 197 -172 197c-140 0 -236 -136 -236 -319c0 -121 63 -197 172 -197zM277 -9c-138 0 -222 94 -222 239c0 230 134 368 295 368c137 0 222 -94 222 -240c0 -230 -135 -367 -295 -367zM193 -139c0 22 17 39 37 39
c22 0 39 -17 39 -39c0 -21 -17 -38 -39 -38c-20 0 -37 17 -37 38z" />
    <glyph glyph-name="Odoublegrave" unicode="&#x20c;" horiz-adv-x="610" 
d="M281 36c140 0 236 137 236 319c0 116 -57 197 -172 197c-140 0 -236 -136 -236 -319c0 -121 63 -197 172 -197zM277 -9c-138 0 -222 94 -222 239c0 230 134 368 295 368c137 0 222 -94 222 -240c0 -230 -135 -367 -295 -367zM333 642h-40l-89 121h67zM455 642h-39
l-84 121h66z" />
    <glyph glyph-name="Ograve" unicode="&#xd2;" horiz-adv-x="610" 
d="M281 36c140 0 236 137 236 319c0 116 -57 197 -172 197c-140 0 -236 -136 -236 -319c0 -121 63 -197 172 -197zM277 -9c-138 0 -222 94 -222 239c0 230 134 368 295 368c137 0 222 -94 222 -240c0 -230 -135 -367 -295 -367zM394 642h-45l-79 121h69z" />
    <glyph glyph-name="Ohungarumlaut" unicode="&#x150;" horiz-adv-x="610" 
d="M281 36c140 0 236 137 236 319c0 116 -57 197 -172 197c-140 0 -236 -136 -236 -319c0 -121 63 -197 172 -197zM277 -9c-138 0 -222 94 -222 239c0 230 134 368 295 368c137 0 222 -94 222 -240c0 -230 -135 -367 -295 -367zM318 642h-39l74 121h68zM441 642h-40l80 121
h68z" />
    <glyph glyph-name="hungarumlaut.cap" unicode="&#xe42b;" horiz-adv-x="404" 
d="M106 642h-39l74 121h67zM229 642h-40l80 121h68z" />
    <glyph glyph-name="Oinvertedbreve" unicode="&#x20e;" horiz-adv-x="610" 
d="M281 36c140 0 236 137 236 319c0 116 -57 197 -172 197c-140 0 -236 -136 -236 -319c0 -121 63 -197 172 -197zM277 -9c-138 0 -222 94 -222 239c0 230 134 368 295 368c137 0 222 -94 222 -240c0 -230 -135 -367 -295 -367zM393 765c64 0 100 -34 100 -92
c0 -10 -1 -20 -3 -31h-42c1 8 2 14 2 22c0 39 -20 61 -64 61c-53 0 -81 -29 -95 -83h-41c14 78 66 123 143 123z" />
    <glyph glyph-name="Omacron" unicode="&#x14c;" horiz-adv-x="610" 
d="M281 36c140 0 236 137 236 319c0 116 -57 197 -172 197c-140 0 -236 -136 -236 -319c0 -121 63 -197 172 -197zM277 -9c-138 0 -222 94 -222 239c0 230 134 368 295 368c137 0 222 -94 222 -240c0 -230 -135 -367 -295 -367zM485 667h-222l7 41h222z" />
    <glyph glyph-name="Oogonek" unicode="&#x1ea;" horiz-adv-x="610" 
d="M315 -128l21 -25c-17 -27 -44 -48 -90 -48c-53 0 -80 28 -80 75c0 48 30 90 72 121c-113 15 -183 103 -183 235c0 230 134 368 295 368c137 0 222 -94 222 -240c0 -220 -124 -356 -276 -366c-48 -26 -84 -66 -84 -114c0 -27 15 -42 42 -42c29 0 46 13 61 36zM281 36
c140 0 236 137 236 319c0 116 -57 197 -172 197c-140 0 -236 -136 -236 -319c0 -121 63 -197 172 -197z" />
    <glyph glyph-name="Oslash" unicode="&#xd8;" horiz-adv-x="610" 
d="M277 -9c-69 0 -125 23 -164 66l-64 -67l-30 28l70 72c-23 38 -34 85 -34 140c0 230 134 368 295 368c69 0 124 -24 162 -67l65 67l31 -29l-70 -73c22 -37 34 -84 34 -138c0 -230 -135 -367 -295 -367zM109 233c0 -39 7 -73 20 -101l348 361c-29 38 -73 59 -132 59
c-140 0 -236 -136 -236 -319zM281 36c140 0 236 137 236 319c0 38 -7 72 -20 100l-347 -361c29 -37 74 -58 131 -58z" />
    <glyph glyph-name="Oslashacute" unicode="&#x1fe;" horiz-adv-x="610" 
d="M277 -9c-69 0 -125 23 -164 66l-64 -67l-30 28l70 72c-23 38 -34 85 -34 140c0 230 134 368 295 368c69 0 124 -24 162 -67l65 67l31 -29l-70 -73c22 -37 34 -84 34 -138c0 -230 -135 -367 -295 -367zM109 233c0 -39 7 -73 20 -101l348 361c-29 38 -73 59 -132 59
c-140 0 -236 -136 -236 -319zM281 36c140 0 236 137 236 319c0 38 -7 72 -20 100l-347 -361c29 -37 74 -58 131 -58zM394 642h-46l73 121h70z" />
    <glyph glyph-name="Otilde" unicode="&#xd5;" horiz-adv-x="610" 
d="M281 36c140 0 236 137 236 319c0 116 -57 197 -172 197c-140 0 -236 -136 -236 -319c0 -121 63 -197 172 -197zM277 -9c-138 0 -222 94 -222 239c0 230 134 368 295 368c137 0 222 -94 222 -240c0 -230 -135 -367 -295 -367zM266 652l-33 1c-2 8 -3 15 -3 22
c0 45 33 77 75 77c25 0 42 -9 60 -22l37 -27c12 -9 23 -14 37 -14c24 0 36 19 38 58l34 -2c1 -7 2 -14 2 -22c0 -44 -32 -76 -75 -76c-25 0 -42 9 -60 22l-36 27c-13 9 -23 13 -38 13c-23 0 -36 -18 -38 -57z" />
    <glyph glyph-name="Otildemacron" unicode="&#x22c;" horiz-adv-x="610" 
d="M281 36c140 0 236 137 236 319c0 116 -57 197 -172 197c-140 0 -236 -136 -236 -319c0 -121 63 -197 172 -197zM277 -9c-138 0 -222 94 -222 239c0 230 134 368 295 368c137 0 222 -94 222 -240c0 -230 -135 -367 -295 -367zM262 615l-33 2c-2 8 -3 15 -3 22
c0 45 33 76 75 76c25 0 42 -8 60 -21l37 -27c13 -10 23 -14 37 -14c24 0 36 19 38 58l34 -2c1 -7 2 -14 2 -22c0 -44 -32 -76 -74 -76c-26 0 -42 9 -61 22l-36 26c-13 10 -23 14 -37 14c-24 0 -36 -18 -39 -58zM502 742h-222l7 41h222z" />
    <glyph glyph-name="Ounderlineaccent" unicode="&#xe121;" horiz-adv-x="610" 
d="M281 36c140 0 236 137 236 319c0 116 -57 197 -172 197c-140 0 -236 -136 -236 -319c0 -121 63 -197 172 -197zM277 -9c-138 0 -222 94 -222 239c0 230 134 368 295 368c137 0 222 -94 222 -240c0 -230 -135 -367 -295 -367zM217 -198l20 143h42l-21 -141z" />
    <glyph glyph-name="P" unicode="P" horiz-adv-x="470" 
d="M193 544l-47 -268h105c106 0 170 56 170 161c0 74 -40 107 -127 107h-101zM98 0h-54l103 589h153c117 0 176 -46 176 -148c0 -138 -93 -209 -226 -209h-112z" />
    <glyph glyph-name="Pmacron" unicode="&#xe123;" horiz-adv-x="470" 
d="M193 544l-47 -268h105c106 0 170 56 170 161c0 74 -40 107 -127 107h-101zM98 0h-54l103 589h153c117 0 176 -46 176 -148c0 -138 -93 -209 -226 -209h-112zM420 667h-221l6 41h222z" />
    <glyph glyph-name="Q" unicode="Q" horiz-adv-x="612" 
d="M442 -135c-115 -6 -195 44 -210 131c-109 18 -175 106 -175 234c0 230 135 368 295 368c138 0 222 -94 222 -240c0 -226 -130 -362 -288 -367c27 -67 99 -84 173 -78zM284 36c140 0 236 137 236 319c0 116 -58 197 -172 197c-140 0 -237 -136 -237 -319
c0 -121 64 -197 173 -197z" />
    <glyph glyph-name="R" unicode="R" horiz-adv-x="526" 
d="M463 0h-57c-10 13 -17 31 -21 59l-14 104c-10 71 -42 96 -117 96h-111l-45 -259h-54l103 589h177c119 0 170 -49 170 -139c0 -111 -82 -166 -164 -170v-3c56 -8 82 -35 92 -103l16 -109c4 -27 12 -48 25 -65zM193 544l-42 -240h125c99 0 163 45 163 140
c0 69 -40 100 -122 100h-124z" />
    <glyph glyph-name="R.alt" unicode="&#xe141;" horiz-adv-x="506" 
d="M451 0h-60l-143 252h-107l-44 -252h-53l103 589h163c121 0 173 -55 173 -142c0 -121 -88 -180 -182 -189zM192 544l-44 -249h110c106 0 170 47 170 146c0 68 -40 103 -121 103h-115z" />
    <glyph glyph-name="Racute" unicode="&#x154;" horiz-adv-x="526" 
d="M463 0h-57c-10 13 -17 31 -21 59l-14 104c-10 71 -42 96 -117 96h-111l-45 -259h-54l103 589h177c119 0 170 -49 170 -139c0 -111 -82 -166 -164 -170v-3c56 -8 82 -35 92 -103l16 -109c4 -27 12 -48 25 -65zM193 544l-42 -240h125c99 0 163 45 163 140
c0 69 -40 100 -122 100h-124zM341 642h-46l73 121h71z" />
    <glyph glyph-name="Racute.alt" unicode="&#xe142;" horiz-adv-x="506" 
d="M451 0h-60l-143 252h-107l-44 -252h-53l103 589h163c121 0 173 -55 173 -142c0 -121 -88 -180 -182 -189zM192 544l-44 -249h110c106 0 170 47 170 146c0 68 -40 103 -121 103h-115zM341 642h-46l73 121h71z" />
    <glyph glyph-name="Rcaron" unicode="&#x158;" horiz-adv-x="526" 
d="M463 0h-57c-10 13 -17 31 -21 59l-14 104c-10 71 -42 96 -117 96h-111l-45 -259h-54l103 589h177c119 0 170 -49 170 -139c0 -111 -82 -166 -164 -170v-3c56 -8 82 -35 92 -103l16 -109c4 -27 12 -48 25 -65zM193 544l-42 -240h125c99 0 163 45 163 140
c0 69 -40 100 -122 100h-124zM335 642h-31l-93 125h57l34 -48c15 -22 22 -38 22 -38h2s11 16 35 39l51 47h60z" />
    <glyph glyph-name="Rcaron.alt" unicode="&#xe143;" horiz-adv-x="506" 
d="M451 0h-60l-143 252h-107l-44 -252h-53l103 589h163c121 0 173 -55 173 -142c0 -121 -88 -180 -182 -189zM192 544l-44 -249h110c106 0 170 47 170 146c0 68 -40 103 -121 103h-115zM335 642h-31l-93 125h57l34 -48c15 -22 22 -38 22 -38h2s11 16 35 39l51 47h60z" />
    <glyph glyph-name="Rcedilla" unicode="&#xe127;" horiz-adv-x="526" 
d="M463 0h-57c-10 13 -17 31 -21 59l-14 104c-10 71 -42 96 -117 96h-111l-45 -259h-54l103 589h177c119 0 170 -49 170 -139c0 -111 -82 -166 -164 -170v-3c56 -8 82 -35 92 -103l16 -109c4 -27 12 -48 25 -65zM193 544l-42 -240h125c99 0 163 45 163 140
c0 69 -40 100 -122 100h-124zM297 -124c0 -52 -43 -81 -97 -81c-41 0 -70 17 -86 40l19 32c16 -25 38 -38 67 -38c32 0 54 17 54 47c0 31 -26 48 -76 50l31 79h30l-21 -51c49 -8 79 -31 79 -78z" />
    <glyph glyph-name="Rcedilla.alt" unicode="&#xe147;" horiz-adv-x="506" 
d="M451 0h-60l-143 252h-107l-44 -252h-53l103 589h163c121 0 173 -55 173 -142c0 -121 -88 -180 -182 -189zM192 544l-44 -249h110c106 0 170 47 170 146c0 68 -40 103 -121 103h-115zM291 -124c0 -52 -44 -81 -98 -81c-41 0 -70 17 -85 40l19 32c15 -25 37 -38 66 -38
c32 0 54 17 54 47c0 31 -25 48 -75 50l31 79h29l-20 -51c48 -8 79 -31 79 -78z" />
    <glyph glyph-name="Rcommaaccent" unicode="&#x156;" horiz-adv-x="526" 
d="M463 0h-57c-10 13 -17 31 -21 59l-14 104c-10 71 -42 96 -117 96h-111l-45 -259h-54l103 589h177c119 0 170 -49 170 -139c0 -111 -82 -166 -164 -170v-3c56 -8 82 -35 92 -103l16 -109c4 -27 12 -48 25 -65zM193 544l-42 -240h125c99 0 163 45 163 140
c0 69 -40 100 -122 100h-124zM252 -141c0 -61 -49 -91 -113 -91v25c36 2 76 15 76 47c0 4 -1 7 -2 10c-4 -4 -9 -5 -15 -5c-19 0 -32 13 -32 32c0 22 16 36 39 36c25 0 47 -18 47 -54z" />
    <glyph glyph-name="Rcommaaccent.alt" unicode="&#xe146;" horiz-adv-x="506" 
d="M451 0h-60l-143 252h-107l-44 -252h-53l103 589h163c121 0 173 -55 173 -142c0 -121 -88 -180 -182 -189zM192 544l-44 -249h110c106 0 170 47 170 146c0 68 -40 103 -121 103h-115zM252 -141c0 -61 -49 -91 -113 -91v25c36 2 76 15 76 47c0 4 -1 7 -2 10
c-4 -4 -9 -5 -15 -5c-19 0 -32 13 -32 32c0 22 16 36 39 36c25 0 47 -18 47 -54z" />
    <glyph glyph-name="Rdotbelow" unicode="&#x1e5a;" horiz-adv-x="526" 
d="M463 0h-57c-10 13 -17 31 -21 59l-14 104c-10 71 -42 96 -117 96h-111l-45 -259h-54l103 589h177c119 0 170 -49 170 -139c0 -111 -82 -166 -164 -170v-3c56 -8 82 -35 92 -103l16 -109c4 -27 12 -48 25 -65zM193 544l-42 -240h125c99 0 163 45 163 140
c0 69 -40 100 -122 100h-124zM163 -139c0 22 16 39 37 39c22 0 39 -17 39 -39c0 -21 -17 -38 -39 -38c-21 0 -37 17 -37 38z" />
    <glyph glyph-name="Rdotbelow.alt" unicode="&#xe148;" horiz-adv-x="506" 
d="M451 0h-60l-143 252h-107l-44 -252h-53l103 589h163c121 0 173 -55 173 -142c0 -121 -88 -180 -182 -189zM192 544l-44 -249h110c106 0 170 47 170 146c0 68 -40 103 -121 103h-115zM157 -139c0 22 17 39 38 39c22 0 38 -17 38 -39c0 -21 -16 -38 -38 -38
c-21 0 -38 17 -38 38z" />
    <glyph glyph-name="Rdotbelowmacron" unicode="&#x1e5c;" horiz-adv-x="526" 
d="M463 0h-57c-10 13 -17 31 -21 59l-14 104c-10 71 -42 96 -117 96h-111l-45 -259h-54l103 589h177c119 0 170 -49 170 -139c0 -111 -82 -166 -164 -170v-3c56 -8 82 -35 92 -103l16 -109c4 -27 12 -48 25 -65zM193 544l-42 -240h125c99 0 163 45 163 140
c0 69 -40 100 -122 100h-124zM163 -139c0 22 16 39 37 39c22 0 39 -17 39 -39c0 -21 -17 -38 -39 -38c-21 0 -37 17 -37 38zM438 667h-222l7 41h222z" />
    <glyph glyph-name="Rdotbelowmacron.alt" unicode="&#xe149;" horiz-adv-x="506" 
d="M451 0h-60l-143 252h-107l-44 -252h-53l103 589h163c121 0 173 -55 173 -142c0 -121 -88 -180 -182 -189zM192 544l-44 -249h110c106 0 170 47 170 146c0 68 -40 103 -121 103h-115zM157 -139c0 22 17 39 38 39c22 0 38 -17 38 -39c0 -21 -16 -38 -38 -38
c-21 0 -38 17 -38 38zM438 667h-222l7 41h222z" />
    <glyph glyph-name="Rdoublegrave" unicode="&#xe125;" horiz-adv-x="526" 
d="M463 0h-57c-10 13 -17 31 -21 59l-14 104c-10 71 -42 96 -117 96h-111l-45 -259h-54l103 589h177c119 0 170 -49 170 -139c0 -111 -82 -166 -164 -170v-3c56 -8 82 -35 92 -103l16 -109c4 -27 12 -48 25 -65zM193 544l-42 -240h125c99 0 163 45 163 140
c0 69 -40 100 -122 100h-124zM286 642h-40l-89 121h67zM408 642h-39l-83 121h65z" />
    <glyph glyph-name="Rdoublegrave.alt" unicode="&#xe145;" horiz-adv-x="506" 
d="M451 0h-60l-143 252h-107l-44 -252h-53l103 589h163c121 0 173 -55 173 -142c0 -121 -88 -180 -182 -189zM192 544l-44 -249h110c106 0 170 47 170 146c0 68 -40 103 -121 103h-115zM276 642h-40l-89 121h67zM398 642h-39l-83 121h65z" />
    <glyph glyph-name="Rinvertedbreve" unicode="&#x212;" horiz-adv-x="526" 
d="M463 0h-57c-10 13 -17 31 -21 59l-14 104c-11 71 -42 96 -117 96h-111l-45 -259h-54l103 589h177c119 0 170 -49 170 -139c0 -111 -82 -166 -164 -170v-3c56 -8 82 -35 92 -103l16 -109c4 -27 12 -48 25 -65zM193 544l-42 -240h125c99 0 163 45 163 140
c0 69 -40 100 -122 100h-124zM342 765c65 0 101 -34 101 -92c0 -10 -1 -20 -3 -31h-42c1 8 2 14 2 22c0 39 -20 61 -64 61c-53 0 -81 -29 -95 -83h-41c14 78 66 123 142 123z" />
    <glyph glyph-name="Rinvertedbreve.alt" unicode="&#xe144;" horiz-adv-x="506" 
d="M451 0h-60l-143 252h-107l-44 -252h-53l103 589h163c121 0 173 -55 173 -142c0 -121 -88 -180 -182 -189zM192 544l-44 -249h110c106 0 170 47 170 146c0 68 -40 103 -121 103h-115zM342 765c64 0 100 -34 100 -92c0 -10 -1 -20 -3 -31h-41c1 8 1 14 1 22
c0 39 -20 61 -63 61c-53 0 -81 -29 -95 -83h-42c14 78 67 123 143 123z" />
    <glyph glyph-name="S" unicode="S" horiz-adv-x="472" 
d="M22 151l48 9c0 -86 52 -127 138 -127c83 0 140 37 140 122c0 66 -37 98 -120 128c-80 29 -138 61 -138 154c0 118 97 161 183 161c109 0 174 -43 175 -154l-50 -8c-1 83 -48 120 -128 120c-75 0 -130 -38 -130 -113c0 -67 39 -87 118 -117c89 -34 143 -74 143 -166
c0 -116 -87 -169 -197 -169c-115 0 -182 54 -182 160z" />
    <glyph glyph-name="Sacute" unicode="&#x15a;" horiz-adv-x="472" 
d="M22 151l48 9c0 -86 52 -127 138 -127c83 0 140 37 140 122c0 66 -37 98 -120 128c-80 29 -138 61 -138 154c0 118 97 161 183 161c109 0 174 -43 175 -154l-50 -8c-1 83 -48 120 -128 120c-75 0 -130 -38 -130 -113c0 -67 39 -87 118 -117c89 -34 143 -74 143 -166
c0 -116 -87 -169 -197 -169c-115 0 -182 54 -182 160zM315 642h-46l73 121h71z" />
    <glyph glyph-name="Scaron" unicode="&#x160;" horiz-adv-x="472" 
d="M22 151l48 9c0 -86 52 -127 138 -127c83 0 140 37 140 122c0 66 -37 98 -120 128c-80 29 -138 61 -138 154c0 118 97 161 183 161c109 0 174 -43 175 -154l-50 -8c-1 83 -48 120 -128 120c-75 0 -130 -38 -130 -113c0 -67 39 -87 118 -117c89 -34 143 -74 143 -166
c0 -116 -87 -169 -197 -169c-115 0 -182 54 -182 160zM309 642h-31l-93 125h57l34 -48c15 -22 22 -38 22 -38h2s11 16 35 39l51 47h59z" />
    <glyph glyph-name="Scedilla" unicode="&#x15e;" horiz-adv-x="472" 
d="M257 -124c0 -52 -43 -81 -98 -81c-41 0 -69 17 -85 40l19 32c15 -25 38 -38 66 -38c32 0 54 17 54 47c0 31 -25 48 -75 50l26 67c-90 11 -142 65 -142 158l48 9c0 -86 52 -127 138 -127c83 0 140 37 140 122c0 66 -37 98 -120 128c-80 29 -138 61 -138 154
c0 118 97 161 183 161c109 0 174 -43 175 -154l-50 -8c-1 83 -48 120 -128 120c-75 0 -130 -38 -130 -113c0 -67 39 -87 118 -117c89 -34 143 -74 143 -166c0 -108 -75 -161 -174 -168c-11 -1 -22 -1 -34 -1l-15 -37c48 -8 79 -31 79 -78z" />
    <glyph glyph-name="Schwa" unicode="&#x18f;" horiz-adv-x="563" 
d="M128 431l-44 12c35 105 113 155 220 155c144 0 221 -91 221 -244c0 -213 -122 -363 -279 -363c-140 0 -196 100 -196 206c0 40 9 80 24 110h397c2 14 3 27 3 40c0 123 -58 206 -175 206c-87 0 -143 -43 -171 -122zM246 35c115 0 193 99 218 227h-353
c-7 -15 -11 -46 -11 -69c0 -80 44 -158 146 -158z" />
    <glyph glyph-name="Scircumflex" unicode="&#x15c;" horiz-adv-x="472" 
d="M22 151l48 9c0 -86 52 -127 138 -127c83 0 140 37 140 122c0 66 -37 98 -120 128c-80 29 -138 61 -138 154c0 118 97 161 183 161c109 0 174 -43 175 -154l-50 -8c-1 83 -48 120 -128 120c-75 0 -130 -38 -130 -113c0 -67 39 -87 118 -117c89 -34 143 -74 143 -166
c0 -116 -87 -169 -197 -169c-115 0 -182 54 -182 160zM298 767h31l92 -125h-56l-35 48c-15 22 -21 38 -21 38h-2s-11 -16 -36 -39l-50 -47h-60z" />
    <glyph glyph-name="Scommaaccent" unicode="&#x218;" horiz-adv-x="472" 
d="M22 151l48 9c0 -86 52 -127 138 -127c83 0 140 37 140 122c0 66 -37 98 -120 128c-80 29 -138 61 -138 154c0 118 97 161 183 161c109 0 174 -43 175 -154l-50 -8c-1 83 -48 120 -128 120c-75 0 -130 -38 -130 -113c0 -67 39 -87 118 -117c89 -34 143 -74 143 -166
c0 -116 -87 -169 -197 -169c-115 0 -182 54 -182 160zM215 -141c0 -61 -50 -91 -113 -91v25c36 2 76 15 76 47c0 4 -1 7 -2 10c-4 -4 -9 -5 -15 -5c-19 0 -32 13 -32 32c0 22 15 36 39 36c25 0 47 -18 47 -54z" />
    <glyph glyph-name="Sdotbelow" unicode="&#x1e62;" horiz-adv-x="472" 
d="M22 151l48 9c0 -86 52 -127 138 -127c83 0 140 37 140 122c0 66 -37 98 -120 128c-80 29 -138 61 -138 154c0 118 97 161 183 161c109 0 174 -43 175 -154l-50 -8c-1 83 -48 120 -128 120c-75 0 -130 -38 -130 -113c0 -67 39 -87 118 -117c89 -34 143 -74 143 -166
c0 -116 -87 -169 -197 -169c-115 0 -182 54 -182 160zM120 -139c0 22 17 39 38 39c22 0 38 -17 38 -39c0 -21 -16 -38 -38 -38c-21 0 -38 17 -38 38z" />
    <glyph glyph-name="T" unicode="T" horiz-adv-x="476" 
d="M222 0h-54l95 543h-194l8 46h437l-8 -46h-190z" />
    <glyph glyph-name="Tbar" unicode="&#x166;" horiz-adv-x="476" 
d="M222 0h-54l49 282h-117l8 45h117l38 216h-194l8 46h437l-8 -46h-190l-38 -216h128l-8 -45h-127z" />
    <glyph glyph-name="Tcaron" unicode="&#x164;" horiz-adv-x="476" 
d="M222 0h-54l95 543h-194l8 46h437l-8 -46h-190zM321 642h-31l-92 125h56l35 -48c15 -22 21 -38 21 -38h2s11 16 35 39l51 47h60z" />
    <glyph glyph-name="Tcedilla" unicode="&#xe129;" horiz-adv-x="476" 
d="M268 -124c0 -52 -43 -81 -97 -81c-42 0 -70 17 -86 40l19 32c16 -25 38 -38 67 -38c32 0 54 17 54 47c0 31 -26 48 -76 50l29 74h-10l95 543h-194l8 46h437l-8 -46h-190l-94 -543h-14l-19 -46c48 -8 79 -31 79 -78z" />
    <glyph glyph-name="Tcommaaccent" unicode="&#x162;" horiz-adv-x="476" 
d="M222 0h-54l95 543h-194l8 46h437l-8 -46h-190zM228 -141c0 -61 -50 -91 -113 -91v25c36 2 76 15 76 47c0 4 -1 7 -2 10c-4 -4 -9 -5 -15 -5c-19 0 -32 13 -32 32c0 22 15 36 39 36c25 0 47 -18 47 -54z" />
    <glyph glyph-name="Tdotbelow" unicode="&#x1e6c;" horiz-adv-x="476" 
d="M222 0h-54l95 543h-194l8 46h437l-8 -46h-190zM133 -139c0 22 17 39 38 39c22 0 38 -17 38 -39c0 -21 -16 -38 -38 -38c-21 0 -38 17 -38 38z" />
    <glyph glyph-name="Thorn" unicode="&#xde;" horiz-adv-x="475" 
d="M173 434l-45 -263h105c106 0 170 50 170 155c0 75 -41 108 -128 108h-102zM98 0h-54l103 589h54l-20 -111h100c117 0 177 -45 177 -148c0 -137 -93 -203 -226 -203h-112z" />
    <glyph glyph-name="U" unicode="U" horiz-adv-x="574" 
d="M512 589h53l-69 -399c-27 -153 -121 -199 -237 -199c-113 0 -197 57 -197 178c0 16 2 37 6 58l63 362h53l-64 -366c-3 -22 -4 -37 -4 -51c0 -94 63 -137 148 -137c88 0 158 39 180 164z" />
    <glyph glyph-name="Uacute" unicode="&#xda;" horiz-adv-x="574" 
d="M512 589h53l-69 -399c-27 -153 -121 -199 -237 -199c-113 0 -197 57 -197 178c0 16 2 37 6 58l63 362h53l-64 -366c-3 -22 -4 -37 -4 -51c0 -94 63 -137 148 -137c88 0 158 39 180 164zM373 642h-46l73 121h71z" />
    <glyph glyph-name="Ubreve" unicode="&#x16c;" horiz-adv-x="574" 
d="M512 589h53l-69 -399c-27 -153 -121 -199 -237 -199c-113 0 -197 57 -197 178c0 16 2 37 6 58l63 362h53l-64 -366c-3 -22 -4 -37 -4 -51c0 -94 63 -137 148 -137c87 0 158 39 180 164zM354 638c-65 0 -101 34 -101 92c0 10 1 20 3 31h42c-2 -9 -2 -15 -2 -23
c0 -39 20 -60 64 -60c53 0 81 29 95 83h41c-14 -78 -66 -123 -142 -123z" />
    <glyph glyph-name="Ucaron" unicode="&#x1d3;" horiz-adv-x="574" 
d="M512 589h53l-69 -399c-27 -153 -121 -199 -237 -199c-113 0 -197 57 -197 178c0 16 2 37 6 58l63 362h53l-64 -366c-3 -22 -4 -37 -4 -51c0 -94 63 -137 148 -137c88 0 158 39 180 164zM367 642h-31l-93 125h57l34 -48c15 -22 21 -38 21 -38h2s12 16 36 39l50 47h60z" />
    <glyph glyph-name="Ucircumflex" unicode="&#xdb;" horiz-adv-x="574" 
d="M512 589h53l-69 -399c-27 -153 -121 -199 -237 -199c-113 0 -197 57 -197 178c0 16 2 37 6 58l63 362h53l-64 -366c-3 -22 -4 -37 -4 -51c0 -94 63 -137 148 -137c88 0 158 39 180 164zM356 767h30l93 -125h-57l-34 48c-15 22 -21 38 -21 38h-2s-11 -16 -36 -39l-50 -47
h-60z" />
    <glyph glyph-name="Udieresis" unicode="&#xdc;" horiz-adv-x="574" 
d="M512 589h53l-69 -399c-27 -153 -121 -199 -237 -199c-113 0 -197 57 -197 178c0 16 2 37 6 58l63 362h53l-64 -366c-3 -22 -4 -37 -4 -51c0 -94 63 -137 148 -137c88 0 158 39 180 164zM237 690c0 21 17 38 38 38c22 0 38 -17 38 -38s-16 -38 -38 -38
c-21 0 -38 17 -38 38zM409 689c0 22 17 38 38 38s37 -16 37 -38c0 -21 -16 -38 -37 -38s-38 17 -38 38z" />
    <glyph glyph-name="Udotbelow" unicode="&#x1ee4;" horiz-adv-x="574" 
d="M512 589h53l-69 -399c-27 -153 -121 -199 -237 -199c-113 0 -197 57 -197 178c0 16 2 37 6 58l63 362h53l-64 -366c-3 -22 -4 -37 -4 -51c0 -94 63 -137 148 -137c88 0 158 39 180 164zM179 -139c0 22 16 39 37 39c22 0 38 -17 38 -39c0 -21 -16 -38 -38 -38
c-21 0 -37 17 -37 38z" />
    <glyph glyph-name="Udoublegrave" unicode="&#x214;" horiz-adv-x="574" 
d="M512 589h53l-69 -399c-27 -153 -121 -199 -237 -199c-113 0 -197 57 -197 178c0 16 2 37 6 58l63 362h53l-64 -366c-3 -22 -4 -37 -4 -51c0 -94 63 -137 148 -137c88 0 158 39 180 164zM316 642h-40l-89 121h67zM438 642h-39l-83 121h65z" />
    <glyph glyph-name="Ugrave" unicode="&#xd9;" horiz-adv-x="574" 
d="M512 589h53l-69 -399c-27 -153 -121 -199 -237 -199c-113 0 -197 57 -197 178c0 16 2 37 6 58l63 362h53l-64 -366c-3 -22 -4 -37 -4 -51c0 -94 63 -137 148 -137c88 0 158 39 180 164zM379 642h-45l-79 121h69z" />
    <glyph glyph-name="Uhungarumlaut" unicode="&#x170;" horiz-adv-x="574" 
d="M512 589h53l-69 -399c-27 -153 -121 -199 -237 -199c-113 0 -197 57 -197 178c0 16 2 37 6 58l63 362h53l-64 -366c-3 -22 -4 -37 -4 -51c0 -94 63 -137 148 -137c88 0 158 39 180 164zM303 642h-39l74 121h68zM427 642h-41l80 121h68z" />
    <glyph glyph-name="Uinvertedbreve" unicode="&#x216;" horiz-adv-x="574" 
d="M512 589h53l-69 -399c-27 -153 -121 -199 -237 -199c-113 0 -197 57 -197 178c0 16 2 37 6 58l63 362h53l-64 -366c-3 -22 -4 -37 -4 -51c0 -94 63 -137 148 -137c88 0 158 39 180 164zM378 765c65 0 101 -34 101 -92c0 -10 -1 -20 -3 -31h-42c1 8 1 14 1 22
c0 39 -20 61 -63 61c-53 0 -81 -29 -95 -83h-41c14 78 66 123 142 123z" />
    <glyph glyph-name="Umacron" unicode="&#x16a;" horiz-adv-x="574" 
d="M512 589h53l-69 -399c-27 -153 -121 -199 -237 -199c-113 0 -197 57 -197 178c0 16 2 37 6 58l63 362h53l-64 -366c-3 -22 -4 -37 -4 -51c0 -94 63 -137 148 -137c88 0 158 39 180 164zM470 667h-221l6 41h222z" />
    <glyph glyph-name="Umacronbelow" unicode="&#xe12b;" horiz-adv-x="574" 
d="M512 589h53l-69 -399c-27 -153 -121 -199 -237 -199c-113 0 -197 57 -197 178c0 16 2 37 6 58l63 362h53l-64 -366c-3 -22 -4 -37 -4 -51c0 -94 63 -137 148 -137c88 0 158 39 180 164zM334 -169h-239l7 42h240z" />
    <glyph glyph-name="Uogonek" unicode="&#x172;" horiz-adv-x="574" 
d="M316 -128l21 -25c-17 -27 -44 -48 -91 -48c-52 0 -80 28 -80 75s31 89 72 120c-8 1 -17 1 -24 3c-91 10 -152 69 -152 171c0 17 2 38 6 59l63 362h53l-64 -366c-3 -22 -4 -37 -4 -51c0 -94 63 -137 148 -137c88 0 158 39 180 164l68 390h53l-69 -399
c-24 -133 -99 -184 -194 -196c-50 -26 -90 -67 -90 -116c0 -27 16 -42 42 -42c30 0 47 13 62 36z" />
    <glyph glyph-name="Uring" unicode="&#x16e;" horiz-adv-x="574" 
d="M512 589h53l-69 -399c-27 -153 -121 -199 -237 -199c-113 0 -197 57 -197 178c0 16 2 37 6 58l63 362h53l-64 -366c-3 -22 -4 -37 -4 -51c0 -94 63 -137 148 -137c88 0 158 39 180 164zM364 658c34 0 58 28 58 62c0 30 -17 51 -50 51c-35 0 -59 -28 -59 -61
c0 -31 17 -52 51 -52zM360 630c-52 0 -80 33 -80 77c0 50 38 92 95 92c50 0 79 -34 79 -76c0 -51 -37 -93 -94 -93z" />
    <glyph glyph-name="Utilde" unicode="&#x168;" horiz-adv-x="574" 
d="M512 589h53l-69 -399c-27 -153 -121 -199 -237 -199c-113 0 -197 57 -197 178c0 16 2 37 6 58l63 362h53l-64 -366c-3 -22 -4 -37 -4 -51c0 -94 63 -137 148 -137c88 0 158 39 180 164zM252 652l-34 1c-1 8 -2 15 -2 22c0 45 32 77 75 77c25 0 42 -9 60 -22l36 -27
c13 -9 23 -14 37 -14c24 0 36 19 39 58l33 -2c2 -7 3 -14 3 -22c0 -44 -33 -76 -75 -76c-25 0 -42 9 -60 22l-37 27c-13 9 -23 13 -37 13c-24 0 -36 -18 -38 -57z" />
    <glyph glyph-name="V" unicode="V" horiz-adv-x="522" 
d="M133 589l72 -429c13 -80 14 -124 14 -124h3s15 43 58 126l227 427h57l-314 -589h-71l-100 589h54z" />
    <glyph glyph-name="W" unicode="W" horiz-adv-x="796" 
d="M481 589l40 -405c9 -93 10 -150 10 -150h3s18 58 59 151l181 404h56l-268 -589h-74l-36 392c-8 91 -7 147 -7 147h-3s-17 -55 -59 -147l-178 -392h-74l-41 589h53l26 -403c6 -92 6 -152 6 -152h3s17 59 60 152l184 403h59z" />
    <glyph glyph-name="Wacute" unicode="&#x1e82;" horiz-adv-x="796" 
d="M479 642h-46l73 121h71zM481 589l40 -405c9 -93 10 -150 10 -150h3s18 58 59 151l181 404h56l-268 -589h-74l-36 392c-8 91 -7 147 -7 147h-3s-17 -55 -59 -147l-178 -392h-74l-41 589h53l26 -403c6 -92 6 -152 6 -152h3s17 59 60 152l184 403h59z" />
    <glyph glyph-name="Wcircumflex" unicode="&#x174;" horiz-adv-x="796" 
d="M462 767h30l93 -125h-57l-34 48c-15 22 -21 38 -21 38h-2s-11 -16 -36 -39l-50 -47h-60zM481 589l40 -405c9 -93 10 -150 10 -150h3s18 58 59 151l181 404h56l-268 -589h-74l-36 392c-8 91 -7 147 -7 147h-3s-17 -55 -59 -147l-178 -392h-74l-41 589h53l26 -403
c6 -92 6 -152 6 -152h3s17 59 60 152l184 403h59z" />
    <glyph glyph-name="Wdieresis" unicode="&#x1e84;" horiz-adv-x="796" 
d="M343 690c0 21 17 38 38 38c22 0 38 -17 38 -38s-16 -38 -38 -38c-21 0 -38 17 -38 38zM515 689c0 22 17 38 38 38s38 -16 38 -38c0 -21 -17 -38 -38 -38s-38 17 -38 38zM481 589l40 -405c9 -93 10 -150 10 -150h3s18 58 59 151l181 404h56l-268 -589h-74l-36 392
c-8 91 -7 147 -7 147h-3s-17 -55 -59 -147l-178 -392h-74l-41 589h53l26 -403c6 -92 6 -152 6 -152h3s17 59 60 152l184 403h59z" />
    <glyph glyph-name="Wgrave" unicode="&#x1e80;" horiz-adv-x="796" 
d="M485 642h-44l-80 121h69zM481 589l40 -405c9 -93 10 -150 10 -150h3s18 58 59 151l181 404h56l-268 -589h-74l-36 392c-8 91 -7 147 -7 147h-3s-17 -55 -59 -147l-178 -392h-74l-41 589h53l26 -403c6 -92 6 -152 6 -152h3s17 59 60 152l184 403h59z" />
    <glyph glyph-name="X" unicode="X" horiz-adv-x="514" 
d="M396 0l-103 198c-26 49 -29 66 -29 66h-3s-7 -15 -51 -67l-168 -197h-63l260 303l-146 286h58l92 -181c26 -51 29 -68 29 -68h2s6 13 51 67l153 182h62l-244 -286l155 -303h-55z" />
    <glyph glyph-name="Y" unicode="Y" horiz-adv-x="485" 
d="M137 589l81 -216c25 -65 30 -98 30 -98h3s15 32 60 98l153 216h58l-252 -353l-41 -236h-53l41 236l-135 353h55z" />
    <glyph glyph-name="Yacute" unicode="&#xdd;" horiz-adv-x="485" 
d="M137 589l81 -216c25 -65 30 -98 30 -98h3s15 32 60 98l153 216h58l-252 -353l-41 -236h-53l41 236l-135 353h55zM332 642h-46l73 121h71z" />
    <glyph glyph-name="Ycircumflex" unicode="&#x176;" horiz-adv-x="485" 
d="M137 589l81 -216c25 -65 30 -98 30 -98h3s15 32 60 98l153 216h58l-252 -353l-41 -236h-53l41 236l-135 353h55zM315 767h30l93 -125h-57l-34 48c-15 22 -21 38 -21 38h-2s-11 -16 -36 -39l-50 -47h-60z" />
    <glyph glyph-name="Ydieresis" unicode="&#x178;" horiz-adv-x="485" 
d="M137 589l81 -216c25 -65 30 -98 30 -98h3s15 32 60 98l153 216h58l-252 -353l-41 -236h-53l41 236l-135 353h55zM197 690c0 21 17 38 38 38s37 -17 37 -38s-16 -38 -37 -38s-38 17 -38 38zM368 689c0 22 17 38 38 38c22 0 38 -16 38 -38c0 -21 -16 -38 -38 -38
c-21 0 -38 17 -38 38z" />
    <glyph glyph-name="Ygrave" unicode="&#x1ef2;" horiz-adv-x="485" 
d="M137 589l81 -216c25 -65 30 -98 30 -98h3s15 32 60 98l153 216h58l-252 -353l-41 -236h-53l41 236l-135 353h55zM339 642h-45l-79 121h69z" />
    <glyph glyph-name="Ymacron" unicode="&#x232;" horiz-adv-x="485" 
d="M137 589l81 -216c25 -65 30 -98 30 -98h3s15 32 60 98l153 216h58l-252 -353l-41 -236h-53l41 236l-135 353h55zM429 667h-222l7 41h222z" />
    <glyph glyph-name="Ytilde" unicode="&#x1ef8;" horiz-adv-x="485" 
d="M137 589l81 -216c25 -65 30 -98 30 -98h3s15 32 60 98l153 216h58l-252 -353l-41 -236h-53l41 236l-135 353h55zM206 652l-34 1c-1 8 -2 15 -2 22c0 45 32 77 75 77c25 0 42 -9 60 -22l36 -27c13 -9 23 -14 37 -14c24 0 37 19 39 58l33 -2c2 -7 3 -14 3 -22
c0 -44 -33 -76 -75 -76c-25 0 -42 9 -60 22l-37 27c-13 9 -23 13 -37 13c-24 0 -36 -18 -38 -57z" />
    <glyph glyph-name="Z" unicode="Z" horiz-adv-x="484" 
d="M499 553l-365 -434c-44 -53 -70 -73 -70 -73v-4s25 4 88 4h264l-7 -46h-414l5 31l369 440c45 54 70 73 70 73v3s-26 -4 -89 -4h-248l8 46h396z" />
    <glyph glyph-name="Zacute" unicode="&#x179;" horiz-adv-x="484" 
d="M439 547c0 0 -26 -4 -89 -4h-248l8 46h396l-7 -36l-365 -434c-44 -53 -70 -73 -70 -73v-4s25 4 88 4h264l-7 -46h-414l5 31l369 440c45 54 70 73 70 73v3zM338 642h-45l72 121h71z" />
    <glyph glyph-name="Zcaron" unicode="&#x17d;" horiz-adv-x="484" 
d="M439 547c0 0 -26 -4 -89 -4h-248l8 46h396l-7 -36l-365 -434c-44 -53 -70 -73 -70 -73v-4s25 4 88 4h264l-7 -46h-414l5 31l369 440c45 54 70 73 70 73v3zM301 642l-93 125h57l34 -48c15 -22 22 -38 22 -38h2s11 16 35 39l51 47h60l-137 -125h-31z" />
    <glyph glyph-name="Zdotaccent" unicode="&#x17b;" horiz-adv-x="484" 
d="M439 547c0 0 -26 -4 -89 -4h-248l8 46h396l-7 -36l-365 -434c-44 -53 -70 -73 -70 -73v-4s25 4 88 4h264l-7 -46h-414l5 31l369 440c45 54 70 73 70 73v3zM290 698c0 22 16 38 37 38c22 0 38 -16 38 -38c0 -21 -16 -38 -38 -38c-21 0 -37 17 -37 38z" />
    <glyph glyph-name="a" unicode="a" horiz-adv-x="515" 
d="M381 268c14 82 -22 161 -111 161c-106 0 -178 -106 -178 -246c0 -91 41 -149 117 -149c80 0 143 65 159 163zM426 35c9 0 18 2 31 7l-8 -39c-11 -5 -24 -8 -40 -8c-40 0 -60 23 -60 61c0 5 0 12 6 46c-25 -67 -86 -111 -158 -111c-91 0 -155 64 -155 187
c0 161 89 293 225 293c73 0 122 -41 132 -107l25 98h42l-65 -373c-2 -9 -3 -17 -3 -25c0 -18 8 -29 28 -29z" />
    <glyph glyph-name="a.school" unicode="&#xe151;" horiz-adv-x="468" 
d="M322 148l12 73c-19 4 -41 5 -65 5c-109 0 -181 -37 -181 -114c0 -52 31 -82 90 -82c69 0 131 48 144 118zM398 302l-36 -209c-2 -11 -3 -19 -3 -27c0 -17 8 -29 28 -29c9 0 18 2 31 8l-8 -40c-11 -5 -24 -8 -40 -8c-40 0 -61 21 -61 59c0 7 2 19 4 27
c-26 -61 -83 -92 -149 -92c-84 0 -127 47 -127 118c0 102 88 153 235 153c23 0 49 -2 68 -6l7 45c3 18 5 33 5 44c0 57 -37 84 -95 84c-61 0 -105 -27 -121 -90l-46 8c23 94 99 124 173 124c81 0 141 -32 141 -116c0 -14 -3 -36 -6 -53z" />
    <glyph glyph-name="a.smcp" unicode="&#xe201;" horiz-adv-x="486" 
d="M262 481h61l108 -481h-52l-31 139h-229l-78 -139h-55zM226 326l-83 -145h196l-32 144c-18 84 -20 120 -20 120h-3s-10 -36 -58 -119z" />
    <glyph glyph-name="a.smcp" unicode="&#xf761;" horiz-adv-x="486" 
d="M262 481h61l108 -481h-52l-31 139h-229l-78 -139h-55zM226 326l-83 -145h196l-32 144c-18 84 -20 120 -20 120h-3s-10 -36 -58 -119z" />
    <glyph glyph-name="a.superior" unicode="&#xe361;" horiz-adv-x="370" 
d="M228 566c-72 0 -122 -67 -122 -157c0 -58 28 -94 79 -94c53 0 94 40 106 103l9 47c11 52 -14 101 -72 101zM323 350c-1 -5 -2 -9 -2 -14c0 -10 5 -17 17 -17c5 0 10 0 25 5l-7 -33c-9 -4 -20 -6 -31 -6c-26 0 -42 13 -46 33c-1 4 0 15 1 29c-19 -37 -59 -65 -105 -65
c-66 0 -113 43 -113 125c0 106 65 193 163 193c48 0 80 -28 90 -66l17 60h37z" />
    <glyph glyph-name="aacute" unicode="&#xe1;" horiz-adv-x="515" 
d="M381 268c14 82 -22 161 -111 161c-106 0 -178 -106 -178 -246c0 -91 41 -149 117 -149c80 0 143 65 159 163zM457 42l-8 -39c-11 -5 -24 -8 -40 -8c-40 0 -60 23 -60 61c0 5 0 12 6 46c-25 -67 -86 -111 -158 -111c-91 0 -155 64 -155 187c0 161 89 293 225 293
c73 0 122 -41 132 -107l25 98h42l-65 -373c-2 -9 -3 -17 -3 -25c0 -18 8 -29 28 -29c9 0 18 2 31 7zM311 533h-43l79 136h72z" />
    <glyph glyph-name="acute" unicode="&#xb4;" horiz-adv-x="284" 
d="M110 533h-43l79 136h72z" />
    <glyph glyph-name="aacute.school" unicode="&#xe153;" horiz-adv-x="468" 
d="M322 148l12 73c-19 4 -41 5 -65 5c-109 0 -181 -37 -181 -114c0 -52 31 -82 90 -82c69 0 131 48 144 118zM398 302l-36 -209c-2 -11 -3 -19 -3 -27c0 -17 8 -29 28 -29c9 0 18 2 31 8l-8 -40c-11 -5 -24 -8 -40 -8c-40 0 -61 21 -61 59c0 7 2 19 4 27
c-26 -61 -83 -92 -149 -92c-84 0 -127 47 -127 118c0 102 88 153 235 153c23 0 49 -2 68 -6l7 45c3 18 5 33 5 44c0 57 -37 84 -95 84c-61 0 -105 -27 -121 -90l-46 8c23 94 99 124 173 124c81 0 141 -32 141 -116c0 -14 -3 -36 -6 -53zM292 533h-44l80 136h72z" />
    <glyph glyph-name="aacute.smcp" unicode="&#xe221;" horiz-adv-x="486" 
d="M262 481h61l108 -481h-52l-31 139h-229l-78 -139h-55zM226 326l-83 -145h196l-32 144c-18 84 -20 120 -20 120h-3s-10 -36 -58 -119zM319 550h-44l80 136h71z" />
    <glyph glyph-name="aacute.smcp" unicode="&#xf7e1;" horiz-adv-x="486" 
d="M262 481h61l108 -481h-52l-31 139h-229l-78 -139h-55zM226 326l-83 -145h196l-32 144c-18 84 -20 120 -20 120h-3s-10 -36 -58 -119zM319 550h-44l80 136h71z" />
    <glyph glyph-name="abreve" unicode="&#x103;" horiz-adv-x="515" 
d="M381 268c14 82 -22 161 -111 161c-106 0 -178 -106 -178 -246c0 -91 41 -149 117 -149c80 0 143 65 159 163zM457 42l-8 -39c-11 -5 -24 -8 -40 -8c-40 0 -60 23 -60 61c0 5 0 12 6 46c-25 -67 -86 -111 -158 -111c-91 0 -155 64 -155 187c0 161 89 293 225 293
c73 0 122 -41 132 -107l25 98h42l-65 -373c-2 -9 -3 -17 -3 -25c0 -18 8 -29 28 -29c9 0 18 2 31 7zM290 530c-65 0 -101 35 -101 95c0 11 1 21 3 33h42c-2 -9 -2 -16 -2 -25c0 -40 19 -63 63 -63c55 0 83 32 96 88h42c-15 -81 -67 -128 -143 -128z" />
    <glyph glyph-name="breve" unicode="&#x2d8;" horiz-adv-x="378" 
d="M168 530c-65 0 -100 35 -100 95c0 11 1 21 3 33h41c-1 -9 -1 -16 -1 -25c0 -40 18 -63 63 -63c55 0 82 32 96 88h41c-15 -81 -67 -128 -143 -128z" />
    <glyph glyph-name="abreve.school" unicode="&#xe15a;" horiz-adv-x="468" 
d="M322 148l12 73c-19 4 -41 5 -65 5c-109 0 -181 -37 -181 -114c0 -52 31 -82 90 -82c69 0 131 48 144 118zM398 302l-36 -209c-2 -11 -3 -19 -3 -27c0 -17 8 -29 28 -29c9 0 18 2 31 8l-8 -40c-11 -5 -24 -8 -40 -8c-40 0 -61 21 -61 59c0 7 2 19 4 27
c-26 -61 -83 -92 -149 -92c-84 0 -127 47 -127 118c0 102 88 153 235 153c23 0 49 -2 68 -6l7 45c3 18 5 33 5 44c0 57 -37 84 -95 84c-61 0 -105 -27 -121 -90l-46 8c23 94 99 124 173 124c81 0 141 -32 141 -116c0 -14 -3 -36 -6 -53zM278 530c-66 0 -101 35 -101 95
c0 11 1 21 3 33h42c-2 -9 -2 -16 -2 -25c0 -40 19 -63 63 -63c55 0 82 32 96 88h41c-14 -81 -66 -128 -142 -128z" />
    <glyph glyph-name="abreve.smcp" unicode="&#xe229;" horiz-adv-x="486" 
d="M262 481h61l108 -481h-52l-31 139h-229l-78 -139h-55zM226 326l-83 -145h196l-32 144c-18 84 -20 120 -20 120h-3s-10 -36 -58 -119zM298 548c-65 0 -101 35 -101 95c0 10 1 21 3 33h42c-2 -10 -2 -16 -2 -25c0 -40 19 -63 63 -63c56 0 83 32 96 88h42
c-15 -82 -67 -128 -143 -128z" />
    <glyph glyph-name="abreve.smcp" unicode="&#xf640;" horiz-adv-x="486" 
d="M262 481h61l108 -481h-52l-31 139h-229l-78 -139h-55zM226 326l-83 -145h196l-32 144c-18 84 -20 120 -20 120h-3s-10 -36 -58 -119zM298 548c-65 0 -101 35 -101 95c0 10 1 21 3 33h42c-2 -10 -2 -16 -2 -25c0 -40 19 -63 63 -63c56 0 83 32 96 88h42
c-15 -82 -67 -128 -143 -128z" />
    <glyph glyph-name="acaron" unicode="&#x1ce;" horiz-adv-x="515" 
d="M381 268c14 82 -22 161 -111 161c-106 0 -178 -106 -178 -246c0 -91 41 -149 117 -149c80 0 143 65 159 163zM457 42l-8 -39c-11 -5 -24 -8 -40 -8c-40 0 -60 23 -60 61c0 5 0 12 6 46c-25 -67 -86 -111 -158 -111c-91 0 -155 64 -155 187c0 161 89 293 225 293
c73 0 122 -41 132 -107l25 98h42l-65 -373c-2 -9 -3 -17 -3 -25c0 -18 8 -29 28 -29c9 0 18 2 31 7zM308 533h-29l-92 136h54l35 -54c15 -24 21 -41 21 -41h3s12 17 36 42l54 53h56z" />
    <glyph glyph-name="caron" unicode="&#x2c7;" horiz-adv-x="392" 
d="M187 533h-29l-91 136h53l35 -54c15 -24 21 -41 21 -41h3s12 17 36 42l54 53h57z" />
    <glyph glyph-name="acaron.school" unicode="&#xe158;" horiz-adv-x="468" 
d="M322 148l12 73c-19 4 -41 5 -65 5c-109 0 -181 -37 -181 -114c0 -52 31 -82 90 -82c69 0 131 48 144 118zM398 302l-36 -209c-2 -11 -3 -19 -3 -27c0 -17 8 -29 28 -29c9 0 18 2 31 8l-8 -40c-11 -5 -24 -8 -40 -8c-40 0 -61 21 -61 59c0 7 2 19 4 27
c-26 -61 -83 -92 -149 -92c-84 0 -127 47 -127 118c0 102 88 153 235 153c23 0 49 -2 68 -6l7 45c3 18 5 33 5 44c0 57 -37 84 -95 84c-61 0 -105 -27 -121 -90l-46 8c23 94 99 124 173 124c81 0 141 -32 141 -116c0 -14 -3 -36 -6 -53zM284 533h-28l-92 136h54l35 -54
c15 -24 21 -41 21 -41h3s11 17 36 42l54 53h56z" />
    <glyph glyph-name="acaron.smcp" unicode="&#xe227;" horiz-adv-x="486" 
d="M262 481h61l108 -481h-52l-31 139h-229l-78 -139h-55zM226 326l-83 -145h196l-32 144c-18 84 -20 120 -20 120h-3s-10 -36 -58 -119zM313 550h-29l-91 136h53l35 -54c15 -23 21 -40 21 -40h3s12 17 36 41l54 53h57z" />
    <glyph glyph-name="acircumflex" unicode="&#xe2;" horiz-adv-x="515" 
d="M381 268c14 82 -22 161 -111 161c-106 0 -178 -106 -178 -246c0 -91 41 -149 117 -149c80 0 143 65 159 163zM457 42l-8 -39c-11 -5 -24 -8 -40 -8c-40 0 -60 23 -60 61c0 5 0 12 6 46c-25 -67 -86 -111 -158 -111c-91 0 -155 64 -155 187c0 161 89 293 225 293
c73 0 122 -41 132 -107l25 98h42l-65 -373c-2 -9 -3 -17 -3 -25c0 -18 8 -29 28 -29c9 0 18 2 31 7zM299 669h29l91 -136h-53l-35 54c-15 23 -22 40 -22 40h-3s-11 -17 -36 -41l-53 -53h-57z" />
    <glyph glyph-name="circumflex" unicode="&#x2c6;" horiz-adv-x="392" 
d="M205 669h29l92 -136h-54l-35 54c-15 23 -21 40 -21 40h-3s-12 -17 -36 -41l-54 -53h-56z" />
    <glyph glyph-name="acircumflex.school" unicode="&#xe154;" horiz-adv-x="468" 
d="M322 148l12 73c-19 4 -41 5 -65 5c-109 0 -181 -37 -181 -114c0 -52 31 -82 90 -82c69 0 131 48 144 118zM398 302l-36 -209c-2 -11 -3 -19 -3 -27c0 -17 8 -29 28 -29c9 0 18 2 31 8l-8 -40c-11 -5 -24 -8 -40 -8c-40 0 -61 21 -61 59c0 7 2 19 4 27
c-26 -61 -83 -92 -149 -92c-84 0 -127 47 -127 118c0 102 88 153 235 153c23 0 49 -2 68 -6l7 45c3 18 5 33 5 44c0 57 -37 84 -95 84c-61 0 -105 -27 -121 -90l-46 8c23 94 99 124 173 124c81 0 141 -32 141 -116c0 -14 -3 -36 -6 -53zM283 669h28l92 -136h-53l-36 54
c-15 23 -21 40 -21 40h-3s-11 -17 -36 -41l-53 -53h-57z" />
    <glyph glyph-name="acircumflex.smcp" unicode="&#xe223;" horiz-adv-x="486" 
d="M262 481h61l108 -481h-52l-31 139h-229l-78 -139h-55zM226 326l-83 -145h196l-32 144c-18 84 -20 120 -20 120h-3s-10 -36 -58 -119zM307 686h29l91 -136h-53l-35 54c-15 24 -21 41 -21 41h-4s-11 -17 -36 -42l-53 -53h-57z" />
    <glyph glyph-name="acircumflex.smcp" unicode="&#xf7e2;" horiz-adv-x="486" 
d="M262 481h61l108 -481h-52l-31 139h-229l-78 -139h-55zM226 326l-83 -145h196l-32 144c-18 84 -20 120 -20 120h-3s-10 -36 -58 -119zM307 686h29l91 -136h-53l-35 54c-15 24 -21 41 -21 41h-4s-11 -17 -36 -42l-53 -53h-57z" />
    <glyph glyph-name="adieresis" unicode="&#xe4;" horiz-adv-x="515" 
d="M381 268c14 82 -22 161 -111 161c-106 0 -178 -106 -178 -246c0 -91 41 -149 117 -149c80 0 143 65 159 163zM457 42l-8 -39c-11 -5 -24 -8 -40 -8c-40 0 -60 23 -60 61c0 5 0 12 6 46c-25 -67 -86 -111 -158 -111c-91 0 -155 64 -155 187c0 161 89 293 225 293
c73 0 122 -41 132 -107l25 98h42l-65 -373c-2 -9 -3 -17 -3 -25c0 -18 8 -29 28 -29c9 0 18 2 31 7zM181 595c0 21 17 38 38 38s38 -17 38 -38s-17 -38 -38 -38s-38 17 -38 38zM353 594c0 22 16 38 37 38c22 0 38 -16 38 -38c0 -20 -16 -37 -38 -37c-21 0 -37 17 -37 37z
" />
    <glyph glyph-name="dieresis" unicode="&#xa8;" horiz-adv-x="380" 
d="M67 595c0 21 16 38 37 38c22 0 38 -17 38 -38s-16 -38 -38 -38c-21 0 -37 17 -37 38zM238 594c0 22 17 38 38 38s38 -16 38 -38c0 -20 -17 -37 -38 -37s-38 17 -38 37z" />
    <glyph glyph-name="adieresis.school" unicode="&#xe155;" horiz-adv-x="468" 
d="M322 148l12 73c-19 4 -41 5 -65 5c-109 0 -181 -37 -181 -114c0 -52 31 -82 90 -82c69 0 131 48 144 118zM398 302l-36 -209c-2 -11 -3 -19 -3 -27c0 -17 8 -29 28 -29c9 0 18 2 31 8l-8 -40c-11 -5 -24 -8 -40 -8c-40 0 -61 21 -61 59c0 7 2 19 4 27
c-26 -61 -83 -92 -149 -92c-84 0 -127 47 -127 118c0 102 88 153 235 153c23 0 49 -2 68 -6l7 45c3 18 5 33 5 44c0 57 -37 84 -95 84c-61 0 -105 -27 -121 -90l-46 8c23 94 99 124 173 124c81 0 141 -32 141 -116c0 -14 -3 -36 -6 -53zM163 595c0 21 17 38 38 38
s38 -17 38 -38s-17 -38 -38 -38s-38 17 -38 38zM334 594c0 22 17 38 38 38c22 0 38 -16 38 -38c0 -20 -16 -37 -38 -37c-21 0 -38 17 -38 37z" />
    <glyph glyph-name="adieresis.smcp" unicode="&#xe224;" horiz-adv-x="486" 
d="M262 481h61l108 -481h-52l-31 139h-229l-78 -139h-55zM226 326l-83 -145h196l-32 144c-18 84 -20 120 -20 120h-3s-10 -36 -58 -119zM189 613c0 21 17 38 37 38c22 0 38 -17 38 -38s-16 -38 -38 -38c-20 0 -37 17 -37 38zM360 612c0 22 17 38 38 38s38 -16 38 -38
c0 -21 -17 -38 -38 -38s-38 17 -38 38z" />
    <glyph glyph-name="adieresis.smcp" unicode="&#xf7e4;" horiz-adv-x="486" 
d="M262 481h61l108 -481h-52l-31 139h-229l-78 -139h-55zM226 326l-83 -145h196l-32 144c-18 84 -20 120 -20 120h-3s-10 -36 -58 -119zM189 613c0 21 17 38 37 38c22 0 38 -17 38 -38s-16 -38 -38 -38c-20 0 -37 17 -37 38zM360 612c0 22 17 38 38 38s38 -16 38 -38
c0 -21 -17 -38 -38 -38s-38 17 -38 38z" />
    <glyph glyph-name="adieresismacron" unicode="&#x1df;" horiz-adv-x="515" 
d="M368 197l13 71c14 82 -22 161 -111 161c-106 0 -178 -106 -178 -246c0 -91 41 -149 117 -149c80 0 143 65 159 163zM457 42l-8 -39c-11 -5 -24 -8 -40 -8c-40 0 -60 23 -60 61c0 5 0 12 6 46c-25 -67 -86 -111 -158 -111c-91 0 -155 64 -155 187c0 161 89 293 225 293
c73 0 122 -41 132 -107l25 98h42l-65 -373c-2 -9 -3 -17 -3 -25c0 -18 8 -29 28 -29c9 0 18 2 31 7zM178 555c0 22 17 38 38 38c22 0 38 -16 38 -38c0 -21 -16 -38 -38 -38c-21 0 -38 17 -38 38zM350 555c0 21 17 37 38 37s38 -16 38 -37s-17 -38 -38 -38s-38 17 -38 38z
M430 643h-222l7 42h222z" />
    <glyph glyph-name="macron" unicode="&#xaf;" horiz-adv-x="362" 
d="M288 564h-221l7 43h222z" />
    <glyph glyph-name="adieresismacron.school" unicode="&#xe15f;" horiz-adv-x="468" 
d="M322 148l12 73c-19 4 -41 5 -65 5c-109 0 -181 -37 -181 -114c0 -52 31 -82 90 -82c69 0 131 48 144 118zM398 302l-36 -209c-2 -11 -3 -19 -3 -27c0 -17 8 -29 28 -29c9 0 18 2 31 8l-8 -40c-11 -5 -24 -8 -40 -8c-40 0 -61 21 -61 59c0 7 2 19 4 27
c-26 -61 -83 -92 -149 -92c-84 0 -127 47 -127 118c0 102 88 153 235 153c23 0 49 -2 68 -6l7 45c3 18 5 33 5 44c0 57 -37 84 -95 84c-61 0 -105 -27 -121 -90l-46 8c23 94 99 124 173 124c81 0 141 -32 141 -116c0 -14 -3 -36 -6 -53zM163 555c0 22 17 38 38 38
c22 0 38 -16 38 -38c0 -21 -16 -38 -38 -38c-21 0 -38 17 -38 38zM335 555c0 21 17 37 38 37s38 -16 38 -37s-17 -38 -38 -38s-38 17 -38 38zM412 641h-222l8 43h222z" />
    <glyph glyph-name="adieresismacron.smcp" unicode="&#xe22e;" horiz-adv-x="486" 
d="M262 481h61l108 -481h-52l-31 139h-229l-78 -139h-55zM226 326l-83 -145h196l-32 144c-18 84 -20 120 -20 120h-3s-10 -36 -58 -119zM181 568c0 22 17 38 38 38c22 0 38 -16 38 -38c0 -21 -16 -38 -38 -38c-21 0 -38 17 -38 38zM353 568c0 21 17 38 38 38s38 -17 38 -38
s-17 -38 -38 -38s-38 17 -38 38zM432 646h-222l8 42h222z" />
    <glyph glyph-name="adotabove" unicode="&#x227;" horiz-adv-x="515" 
d="M368 197l13 71c14 82 -22 161 -111 161c-106 0 -178 -106 -178 -246c0 -91 41 -149 117 -149c80 0 143 65 159 163zM457 42l-8 -39c-11 -5 -24 -8 -40 -8c-40 0 -60 23 -60 61c0 5 0 12 6 46c-25 -67 -86 -111 -158 -111c-91 0 -155 64 -155 187c0 161 89 293 225 293
c73 0 122 -41 132 -107l25 98h42l-65 -373c-2 -9 -3 -17 -3 -25c0 -18 8 -29 28 -29c9 0 18 2 31 7zM265 604c0 22 16 39 37 39c22 0 39 -17 39 -39c0 -21 -17 -37 -39 -37c-21 0 -37 16 -37 37z" />
    <glyph glyph-name="dotaccent" unicode="&#x2d9;" horiz-adv-x="210" 
d="M66 604c0 22 16 39 37 39c22 0 38 -17 38 -39c0 -21 -16 -37 -38 -37c-21 0 -37 16 -37 37z" />
    <glyph glyph-name="adotabove.school" unicode="&#xe15d;" horiz-adv-x="468" 
d="M322 148l12 73c-19 4 -41 5 -65 5c-109 0 -181 -37 -181 -114c0 -52 31 -82 90 -82c69 0 131 48 144 118zM398 302l-36 -209c-2 -11 -3 -19 -3 -27c0 -17 8 -29 28 -29c9 0 18 2 31 8l-8 -40c-11 -5 -24 -8 -40 -8c-40 0 -61 21 -61 59c0 7 2 19 4 27
c-26 -61 -83 -92 -149 -92c-84 0 -127 47 -127 118c0 102 88 153 235 153c23 0 49 -2 68 -6l7 45c3 18 5 33 5 44c0 57 -37 84 -95 84c-61 0 -105 -27 -121 -90l-46 8c23 94 99 124 173 124c81 0 141 -32 141 -116c0 -14 -3 -36 -6 -53zM248 595c0 21 16 38 37 38
c22 0 39 -17 39 -38s-17 -38 -39 -38c-21 0 -37 17 -37 38z" />
    <glyph glyph-name="adotabove.smcp" unicode="&#xe22c;" horiz-adv-x="486" 
d="M262 481h61l108 -481h-52l-31 139h-229l-78 -139h-55zM226 326l-83 -145h196l-32 144c-18 84 -20 120 -20 120h-3s-10 -36 -58 -119zM272 622c0 22 17 39 38 39c22 0 38 -17 38 -39c0 -21 -16 -38 -38 -38c-21 0 -38 17 -38 38z" />
    <glyph glyph-name="adoublegrave" horiz-adv-x="515" 
d="M368 197l13 71c14 82 -22 161 -111 161c-106 0 -178 -106 -178 -246c0 -91 41 -149 117 -149c80 0 143 65 159 163zM457 42l-8 -39c-11 -5 -24 -8 -40 -8c-40 0 -60 23 -60 61c0 5 0 12 6 46c-25 -67 -86 -111 -158 -111c-91 0 -155 64 -155 187c0 161 89 293 225 293
c73 0 122 -41 132 -107l25 98h42l-65 -373c-2 -9 -3 -17 -3 -25c0 -18 8 -29 28 -29c9 0 18 2 31 7zM256 533h-40l-89 136h67zM378 533h-39l-84 136h66z" />
    <glyph glyph-name="doublegrave" unicode="&#xe412;" horiz-adv-x="384" 
d="M195 533h-39l-89 136h66zM317 533h-38l-84 136h66z" />
    <glyph glyph-name="adoublegrave.school" unicode="&#xe15c;" horiz-adv-x="468" 
d="M322 148l12 73c-19 4 -41 5 -65 5c-109 0 -181 -37 -181 -114c0 -52 31 -82 90 -82c69 0 131 48 144 118zM398 302l-36 -209c-2 -11 -3 -19 -3 -27c0 -17 8 -29 28 -29c9 0 18 2 31 8l-8 -40c-11 -5 -24 -8 -40 -8c-40 0 -61 21 -61 59c0 7 2 19 4 27
c-26 -61 -83 -92 -149 -92c-84 0 -127 47 -127 118c0 102 88 153 235 153c23 0 49 -2 68 -6l7 45c3 18 5 33 5 44c0 57 -37 84 -95 84c-61 0 -105 -27 -121 -90l-46 8c23 94 99 124 173 124c81 0 141 -32 141 -116c0 -14 -3 -36 -6 -53zM237 533h-39l-89 136h66zM359 533
h-38l-84 136h66z" />
    <glyph glyph-name="adoublegrave.smcp" unicode="&#xe22b;" horiz-adv-x="486" 
d="M262 481h61l108 -481h-52l-31 139h-229l-78 -139h-55zM226 326l-83 -145h196l-32 144c-18 84 -20 120 -20 120h-3s-10 -36 -58 -119zM263 550h-40l-89 136h67zM385 550h-39l-83 136h66z" />
    <glyph glyph-name="ae" unicode="&#xe6;" horiz-adv-x="730" 
d="M676 226h-305c-2 -13 -3 -27 -3 -40c0 -92 41 -154 129 -154c76 0 111 34 130 93l46 -12c-28 -85 -88 -122 -180 -122c-74 0 -126 32 -152 91c-30 -54 -88 -91 -168 -91c-93 0 -136 47 -136 119c0 103 90 153 233 157c7 1 52 1 60 1c5 23 12 45 22 65c5 64 -34 96 -95 96
s-105 -27 -121 -90l-46 8c23 94 99 124 173 124c65 0 113 -22 129 -74c39 46 90 74 150 74c109 0 153 -73 153 -158c0 -31 -6 -63 -19 -87zM178 30c63 0 119 31 148 96c-3 17 -5 37 -5 58c0 13 1 28 3 42h-54c-107 -3 -182 -37 -182 -114c0 -52 31 -82 90 -82zM540 429
c-88 0 -143 -76 -162 -161h261c5 12 7 31 7 46c0 64 -32 115 -106 115z" />
    <glyph glyph-name="ae.smcp" unicode="&#xe231;" horiz-adv-x="738" 
d="M649 0h-305l23 136h-209l-120 -136h-58l419 481h334l-8 -44h-253l-30 -177h223l-8 -45h-224l-30 -171h253zM426 443l-232 -265h181l20 114c18 103 34 151 34 151h-3z" />
    <glyph glyph-name="ae.smcp" unicode="&#xf7e6;" horiz-adv-x="738" 
d="M649 0h-305l23 136h-209l-120 -136h-58l419 481h334l-8 -44h-253l-30 -177h223l-8 -45h-224l-30 -171h253zM426 443l-232 -265h181l20 114c18 103 34 151 34 151h-3z" />
    <glyph glyph-name="aeacute" unicode="&#x1fd;" horiz-adv-x="730" 
d="M676 226h-305c-2 -13 -3 -27 -3 -40c0 -92 41 -154 129 -154c76 0 111 34 130 93l46 -12c-28 -85 -88 -122 -180 -122c-74 0 -126 32 -152 91c-30 -54 -88 -91 -168 -91c-93 0 -136 47 -136 119c0 103 90 153 233 157c7 1 52 1 60 1c5 23 12 45 22 65c5 64 -34 96 -95 96
s-105 -27 -121 -90l-46 8c23 94 99 124 173 124c65 0 113 -22 129 -74c39 46 90 74 150 74c109 0 153 -73 153 -158c0 -31 -6 -63 -19 -87zM178 30c63 0 119 31 148 96c-3 17 -5 37 -5 58c0 13 1 28 3 42h-54c-107 -3 -182 -37 -182 -114c0 -52 31 -82 90 -82zM540 429
c-88 0 -143 -76 -162 -161h261c5 12 7 31 7 46c0 64 -32 115 -106 115zM434 533h-44l80 136h72z" />
    <glyph glyph-name="aeacute.smcp" unicode="&#xe232;" horiz-adv-x="738" 
d="M649 0h-305l23 136h-209l-120 -136h-58l419 481h334l-8 -44h-253l-30 -177h223l-8 -45h-224l-30 -171h253zM426 443l-232 -265h181l20 114c18 103 34 151 34 151h-3zM565 550h-44l80 136h71z" />
    <glyph glyph-name="aeacute.smcp" unicode="&#xf624;" horiz-adv-x="738" 
d="M649 0h-305l23 136h-209l-120 -136h-58l419 481h334l-8 -44h-253l-30 -177h223l-8 -45h-224l-30 -171h253zM426 443l-232 -265h181l20 114c18 103 34 151 34 151h-3zM565 550h-44l80 136h71z" />
    <glyph glyph-name="aemacron" unicode="&#x1e3;" horiz-adv-x="730" 
d="M676 226h-305c-2 -13 -3 -27 -3 -40c0 -92 41 -154 129 -154c76 0 111 34 130 93l46 -12c-28 -85 -88 -122 -180 -122c-74 0 -126 32 -152 91c-30 -54 -88 -91 -168 -91c-93 0 -136 47 -136 119c0 103 90 153 233 157c7 1 52 1 60 1c5 23 12 45 22 65c5 64 -34 96 -95 96
s-105 -27 -121 -90l-46 8c23 94 99 124 173 124c65 0 113 -22 129 -74c39 46 90 74 150 74c109 0 153 -73 153 -158c0 -31 -6 -63 -19 -87zM178 30c63 0 119 31 148 96c-3 17 -5 37 -5 58c0 13 1 28 3 42h-54c-107 -3 -182 -37 -182 -114c0 -52 31 -82 90 -82zM540 429
c-88 0 -143 -76 -162 -161h261c5 12 7 31 7 46c0 64 -32 115 -106 115zM533 564h-222l7 43h222z" />
    <glyph glyph-name="aemacron.smcp" unicode="&#xe233;" horiz-adv-x="738" 
d="M649 0h-305l23 136h-209l-120 -136h-58l419 481h334l-8 -44h-253l-30 -177h223l-8 -45h-224l-30 -171h253zM426 443l-232 -265h181l20 114c18 103 34 151 34 151h-3zM673 582h-222l7 42h222z" />
    <glyph glyph-name="afii61289" unicode="&#x2113;" horiz-adv-x="317" 
d="M84 187l-46 -36l-21 33l67 50v255c0 116 37 180 115 180c70 0 94 -57 94 -134c0 -142 -74 -246 -162 -320v-101c0 -60 26 -81 72 -81c26 0 46 5 70 18v-44c-20 -10 -47 -16 -76 -16c-70 0 -113 35 -113 115v81zM131 498v-232c72 64 124 154 124 274c0 50 -14 91 -56 91
c-44 0 -68 -50 -68 -133z" />
    <glyph glyph-name="afii61352" unicode="&#x2116;" horiz-adv-x="1037" 
d="M670 0l8 42h283l-8 -42h-283zM131 115l82 474h57l198 -406c30 -62 47 -112 47 -112h3s7 57 18 123l49 283c17 97 55 121 112 121c28 0 53 -9 68 -22l-14 -47c-16 14 -32 22 -51 22c-32 0 -51 -15 -62 -80l-82 -471h-56l-200 405c-28 58 -47 112 -47 112h-4
s-4 -56 -16 -122l-49 -283c-17 -97 -55 -121 -111 -121c-28 0 -54 9 -69 22l14 44c16 -14 32 -21 51 -21c32 0 51 14 62 79zM839 182c69 0 108 72 108 147c0 62 -29 92 -78 92c-70 0 -109 -69 -109 -145c0 -64 30 -94 79 -94zM835 143c-73 0 -121 45 -121 129
c0 99 56 190 160 190c75 0 119 -48 119 -130c0 -99 -56 -189 -158 -189z" />
    <glyph glyph-name="agrave" unicode="&#xe0;" horiz-adv-x="515" 
d="M381 268c14 82 -22 161 -111 161c-106 0 -178 -106 -178 -246c0 -91 41 -149 117 -149c80 0 143 65 159 163zM457 42l-8 -39c-11 -5 -24 -8 -40 -8c-40 0 -60 23 -60 61c0 5 0 12 6 46c-25 -67 -86 -111 -158 -111c-91 0 -155 64 -155 187c0 161 89 293 225 293
c73 0 122 -41 132 -107l25 98h42l-65 -373c-2 -9 -3 -17 -3 -25c0 -18 8 -29 28 -29c9 0 18 2 31 7zM321 533h-42l-89 136h69z" />
    <glyph glyph-name="grave" unicode="`" horiz-adv-x="265" 
d="M198 533h-42l-89 136h69z" />
    <glyph glyph-name="agrave.school" unicode="&#xe152;" horiz-adv-x="468" 
d="M322 148l12 73c-19 4 -41 5 -65 5c-109 0 -181 -37 -181 -114c0 -52 31 -82 90 -82c69 0 131 48 144 118zM398 302l-36 -209c-2 -11 -3 -19 -3 -27c0 -17 8 -29 28 -29c9 0 18 2 31 8l-8 -40c-11 -5 -24 -8 -40 -8c-40 0 -61 21 -61 59c0 7 2 19 4 27
c-26 -61 -83 -92 -149 -92c-84 0 -127 47 -127 118c0 102 88 153 235 153c23 0 49 -2 68 -6l7 45c3 18 5 33 5 44c0 57 -37 84 -95 84c-61 0 -105 -27 -121 -90l-46 8c23 94 99 124 173 124c81 0 141 -32 141 -116c0 -14 -3 -36 -6 -53zM306 533h-43l-89 136h70z" />
    <glyph glyph-name="agrave.smcp" unicode="&#xe222;" horiz-adv-x="486" 
d="M262 481h61l108 -481h-52l-31 139h-229l-78 -139h-55zM226 326l-83 -145h196l-32 144c-18 84 -20 120 -20 120h-3s-10 -36 -58 -119zM329 550h-42l-89 136h69z" />
    <glyph glyph-name="agrave.smcp" unicode="&#xf7e0;" horiz-adv-x="486" 
d="M262 481h61l108 -481h-52l-31 139h-229l-78 -139h-55zM226 326l-83 -145h196l-32 144c-18 84 -20 120 -20 120h-3s-10 -36 -58 -119zM329 550h-42l-89 136h69z" />
    <glyph glyph-name="ainvertedbreve" unicode="&#x203;" horiz-adv-x="515" 
d="M381 268c14 82 -22 161 -111 161c-106 0 -178 -106 -178 -246c0 -91 41 -149 117 -149c80 0 143 65 159 163zM457 42l-8 -39c-11 -5 -24 -8 -40 -8c-40 0 -60 23 -60 61c0 5 0 12 6 46c-25 -67 -86 -111 -158 -111c-91 0 -155 64 -155 187c0 161 89 293 225 293
c73 0 122 -41 132 -107l25 98h42l-65 -373c-2 -9 -3 -17 -3 -25c0 -18 8 -29 28 -29c9 0 18 2 31 7zM314 661c65 0 100 -35 100 -96c0 -11 -1 -21 -3 -33h-41c0 10 1 17 1 26c0 39 -18 63 -63 63c-55 0 -82 -33 -96 -89h-41c14 82 67 129 143 129z" />
    <glyph glyph-name="invertedbreve" unicode="&#xe411;" horiz-adv-x="378" 
d="M210 661c65 0 100 -35 100 -96c0 -11 -1 -21 -3 -33h-41c1 10 1 17 1 26c0 39 -18 63 -63 63c-55 0 -82 -33 -96 -89h-41c15 82 67 129 143 129z" />
    <glyph glyph-name="ainvertedbreve.school" unicode="&#xe15b;" horiz-adv-x="468" 
d="M322 148l12 73c-19 4 -41 5 -65 5c-109 0 -181 -37 -181 -114c0 -52 31 -82 90 -82c69 0 131 48 144 118zM398 302l-36 -209c-2 -11 -3 -19 -3 -27c0 -17 8 -29 28 -29c9 0 18 2 31 8l-8 -40c-11 -5 -24 -8 -40 -8c-40 0 -61 21 -61 59c0 7 2 19 4 27
c-26 -61 -83 -92 -149 -92c-84 0 -127 47 -127 118c0 102 88 153 235 153c23 0 49 -2 68 -6l7 45c3 18 5 33 5 44c0 57 -37 84 -95 84c-61 0 -105 -27 -121 -90l-46 8c23 94 99 124 173 124c81 0 141 -32 141 -116c0 -14 -3 -36 -6 -53zM303 661c65 0 101 -35 101 -96
c0 -11 -1 -21 -3 -33h-42c1 10 1 17 1 26c0 39 -18 63 -62 63c-56 0 -83 -33 -96 -89h-42c15 82 67 129 143 129z" />
    <glyph glyph-name="ainvertedbreve.smcp" unicode="&#xe22a;" horiz-adv-x="486" 
d="M262 481h61l108 -481h-52l-31 139h-229l-78 -139h-55zM226 326l-83 -145h196l-32 144c-18 84 -20 120 -20 120h-3s-10 -36 -58 -119zM322 679c65 0 100 -35 100 -96c0 -11 -1 -21 -3 -33h-41c0 10 1 16 1 25c0 40 -18 64 -63 64c-55 0 -82 -33 -96 -89h-41
c14 82 67 129 143 129z" />
    <glyph glyph-name="amacron" unicode="&#x101;" horiz-adv-x="515" 
d="M368 197l13 71c14 82 -22 161 -111 161c-106 0 -178 -106 -178 -246c0 -91 41 -149 117 -149c80 0 143 65 159 163zM457 42l-8 -39c-11 -5 -24 -8 -40 -8c-40 0 -60 23 -60 61c0 5 0 12 6 46c-25 -67 -86 -111 -158 -111c-91 0 -155 64 -155 187c0 161 89 293 225 293
c73 0 122 -41 132 -107l25 98h42l-65 -373c-2 -9 -3 -17 -3 -25c0 -18 8 -29 28 -29c9 0 18 2 31 7zM410 564h-222l8 43h221z" />
    <glyph glyph-name="amacron.school" unicode="&#xe159;" horiz-adv-x="468" 
d="M322 148l12 73c-19 4 -41 5 -65 5c-109 0 -181 -37 -181 -114c0 -52 31 -82 90 -82c69 0 131 48 144 118zM398 302l-36 -209c-2 -11 -3 -19 -3 -27c0 -17 8 -29 28 -29c9 0 18 2 31 8l-8 -40c-11 -5 -24 -8 -40 -8c-40 0 -61 21 -61 59c0 7 2 19 4 27
c-26 -61 -83 -92 -149 -92c-84 0 -127 47 -127 118c0 102 88 153 235 153c23 0 49 -2 68 -6l7 45c3 18 5 33 5 44c0 57 -37 84 -95 84c-61 0 -105 -27 -121 -90l-46 8c23 94 99 124 173 124c81 0 141 -32 141 -116c0 -14 -3 -36 -6 -53zM394 564h-222l7 43h222z" />
    <glyph glyph-name="amacron.smcp" unicode="&#xe228;" horiz-adv-x="486" 
d="M262 481h61l108 -481h-52l-31 139h-229l-78 -139h-55zM226 326l-83 -145h196l-32 144c-18 84 -20 120 -20 120h-3s-10 -36 -58 -119zM418 582h-222l8 42h221z" />
    <glyph glyph-name="amacron.smcp" unicode="&#xf641;" horiz-adv-x="486" 
d="M262 481h61l108 -481h-52l-31 139h-229l-78 -139h-55zM226 326l-83 -145h196l-32 144c-18 84 -20 120 -20 120h-3s-10 -36 -58 -119zM418 582h-222l8 42h221z" />
    <glyph glyph-name="ampersand" unicode="&#x26;" horiz-adv-x="553" 
d="M424 477c0 -81 -59 -129 -154 -172l129 -159c28 36 50 89 62 142l47 -11c-16 -58 -43 -120 -82 -165l73 -88l-38 -31l-67 82c-56 -55 -127 -84 -205 -84c-104 0 -162 51 -162 138c0 98 73 146 175 188l-24 29c-23 29 -46 65 -46 114c0 88 72 138 156 138
c89 0 136 -50 136 -121zM190 32c71 0 133 29 180 75l-145 179c-83 -41 -148 -70 -148 -154c0 -59 41 -100 113 -100zM180 462c0 -36 15 -60 35 -86l30 -39c81 36 130 70 130 140c0 52 -35 83 -90 83c-60 0 -105 -36 -105 -98z" />
    <glyph glyph-name="ampersand.smcp" unicode="&#xe401;" horiz-adv-x="480" 
d="M366 389c0 -69 -60 -111 -134 -141l113 -130c27 32 47 73 57 114l47 -7c-14 -49 -43 -97 -77 -135l65 -71l-37 -28l-59 65c-51 -43 -108 -65 -175 -65c-94 0 -144 45 -144 113c0 86 67 123 144 154l-17 20c-21 24 -40 54 -40 94c0 74 62 118 138 118
c78 0 119 -40 119 -101zM170 30c56 0 102 18 144 55l-125 145c-66 -29 -118 -58 -118 -121c0 -46 34 -79 99 -79zM157 374c0 -31 12 -49 30 -70l23 -28c65 28 107 55 107 111c0 44 -32 65 -73 65c-53 0 -87 -30 -87 -78z" />
    <glyph glyph-name="ampersand.smcp" unicode="&#xf726;" horiz-adv-x="480" 
d="M366 389c0 -69 -60 -111 -134 -141l113 -130c27 32 47 73 57 114l47 -7c-14 -49 -43 -97 -77 -135l65 -71l-37 -28l-59 65c-51 -43 -108 -65 -175 -65c-94 0 -144 45 -144 113c0 86 67 123 144 154l-17 20c-21 24 -40 54 -40 94c0 74 62 118 138 118
c78 0 119 -40 119 -101zM170 30c56 0 102 18 144 55l-125 145c-66 -29 -118 -58 -118 -121c0 -46 34 -79 99 -79zM157 374c0 -31 12 -49 30 -70l23 -28c65 28 107 55 107 111c0 44 -32 65 -73 65c-53 0 -87 -30 -87 -78z" />
    <glyph glyph-name="anglebracketleft" unicode="&#x3008;" horiz-adv-x="328" 
d="M70 235l242 433h50l-241 -434l85 -437h-46z" />
    <glyph glyph-name="anglebracketleft.cap" unicode="&#xe497;" horiz-adv-x="327" 
d="M71 298l235 370h50l-235 -372l90 -374h-46z" />
    <glyph glyph-name="anglebracketleft.smcp" unicode="&#xe49f;" horiz-adv-x="299" 
d="M59 237l200 321h50l-200 -323l83 -315h-47z" />
    <glyph glyph-name="anglebracketright" unicode="&#x3009;" horiz-adv-x="327" 
d="M261 228l-242 -432h-51l242 434l-86 437h47z" />
    <glyph glyph-name="anglebracketright.cap" unicode="&#xe498;" horiz-adv-x="327" 
d="M285 293l-235 -371h-50l235 373l-90 373h46z" />
    <glyph glyph-name="anglebracketright.smcp" unicode="&#xe490;" horiz-adv-x="299" 
d="M258 241l-200 -321h-49l199 323l-82 315h47z" />
    <glyph glyph-name="anocross.smcp" unicode="&#xe220;" horiz-adv-x="486" 
d="M226 326l-185 -326h-55l276 481h61l108 -481h-52l-72 325c-18 84 -20 120 -20 120h-3s-11 -36 -58 -119z" />
    <glyph glyph-name="aogonek" unicode="&#x105;" horiz-adv-x="515" 
d="M419 -128l20 -25c-17 -27 -44 -48 -90 -48c-52 0 -80 28 -80 75c0 60 50 107 102 134c-14 8 -22 28 -22 50c0 5 0 9 6 44c-24 -65 -86 -111 -158 -111c-91 0 -155 64 -155 187c0 161 89 293 225 293c73 0 122 -41 132 -107l25 98h42l-65 -373c-2 -9 -3 -17 -3 -25
c0 -18 8 -29 28 -29c9 0 18 2 31 7l-8 -39c-59 -15 -134 -52 -134 -125c0 -27 15 -42 42 -42c29 0 46 13 62 36zM381 268c14 82 -22 161 -111 161c-106 0 -178 -106 -178 -246c0 -91 41 -149 117 -149c80 0 143 65 159 163z" />
    <glyph glyph-name="aogonek.school" unicode="&#xe150;" horiz-adv-x="468" 
d="M322 148l12 73c-19 4 -41 5 -65 5c-109 0 -181 -37 -181 -114c0 -52 31 -82 90 -82c69 0 131 48 144 118zM309 56c0 7 2 19 4 27c-26 -61 -83 -92 -149 -92c-84 0 -127 47 -127 118c0 102 88 153 235 153c23 0 49 -2 68 -6l7 45c3 18 5 33 5 44c0 57 -37 84 -95 84
c-61 0 -105 -27 -121 -90l-46 8c23 94 99 124 173 124c81 0 141 -32 141 -116c0 -14 -3 -36 -6 -53l-36 -209c-2 -11 -3 -19 -3 -27c0 -17 7 -31 27 -31c9 0 18 2 31 7l-7 -39c-60 -15 -135 -52 -135 -125c0 -27 16 -42 42 -42c29 0 46 13 62 36l21 -25
c-17 -27 -44 -48 -91 -48c-52 0 -80 28 -80 75c0 60 51 107 103 134c-15 7 -23 27 -23 48z" />
    <glyph glyph-name="aogonek.smcp" unicode="&#xe22f;" horiz-adv-x="492" 
d="M383 -128l21 -25c-17 -27 -44 -48 -91 -48c-52 0 -80 28 -80 75c0 77 75 131 140 152l-25 113h-229l-78 -139h-55l276 481h61l108 -481c-86 -15 -152 -61 -152 -122c0 -27 16 -42 42 -42c29 0 46 13 62 36zM226 326l-83 -145h196l-32 144c-18 84 -20 120 -20 120h-3
s-10 -36 -58 -119z" />
    <glyph glyph-name="aogonek.smcp" unicode="&#xf642;" horiz-adv-x="492" 
d="M383 -128l21 -25c-17 -27 -44 -48 -91 -48c-52 0 -80 28 -80 75c0 77 75 131 140 152l-25 113h-229l-78 -139h-55l276 481h61l108 -481c-86 -15 -152 -61 -152 -122c0 -27 16 -42 42 -42c29 0 46 13 62 36zM226 326l-83 -145h196l-32 144c-18 84 -20 120 -20 120h-3
s-10 -36 -58 -119z" />
    <glyph glyph-name="approxequal" unicode="&#x2248;" horiz-adv-x="525" 
d="M381 299c33 0 69 18 100 49l-7 -44c-28 -27 -63 -39 -99 -39c-76 0 -140 51 -214 51c-37 0 -71 -18 -103 -51l7 40c29 32 68 45 99 45c74 0 142 -51 217 -51zM360 180c33 0 70 18 100 50l-7 -45c-28 -27 -63 -40 -99 -40c-76 0 -140 52 -214 52c-37 0 -70 -17 -103 -51
l7 41c29 31 68 44 99 44c74 0 142 -51 217 -51z" />
    <glyph glyph-name="aring" unicode="&#xe5;" horiz-adv-x="515" 
d="M368 197l13 71c14 82 -22 161 -111 161c-106 0 -178 -106 -178 -246c0 -91 41 -149 117 -149c80 0 143 65 159 163zM457 42l-8 -39c-11 -5 -24 -8 -40 -8c-40 0 -60 23 -60 61c0 5 0 12 6 46c-25 -67 -86 -111 -158 -111c-91 0 -155 64 -155 187c0 161 89 293 225 293
c73 0 122 -41 132 -107l25 98h42l-65 -373c-2 -9 -3 -17 -3 -25c0 -18 8 -29 28 -29c9 0 18 2 31 7zM304 556c35 0 59 28 59 62c0 30 -17 51 -50 51c-35 0 -60 -28 -60 -62c0 -30 18 -51 51 -51zM301 528c-53 0 -80 33 -80 77c0 50 38 92 94 92c51 0 80 -34 80 -77
c0 -50 -38 -92 -94 -92z" />
    <glyph glyph-name="ring" unicode="&#x2da;" horiz-adv-x="307" 
d="M150 556c34 0 58 28 58 62c0 30 -17 51 -50 51c-35 0 -59 -28 -59 -62c0 -30 17 -51 51 -51zM146 528c-52 0 -79 33 -79 77c0 50 38 92 94 92c50 0 79 -34 79 -77c0 -50 -37 -92 -94 -92z" />
    <glyph glyph-name="aring.school" unicode="&#xe157;" horiz-adv-x="468" 
d="M322 148l12 73c-19 4 -41 5 -65 5c-109 0 -181 -37 -181 -114c0 -52 31 -82 90 -82c69 0 131 48 144 118zM398 302l-36 -209c-2 -11 -3 -19 -3 -27c0 -17 8 -29 28 -29c9 0 18 2 31 8l-8 -40c-11 -5 -24 -8 -40 -8c-40 0 -61 21 -61 59c0 7 2 19 4 27
c-26 -61 -83 -92 -149 -92c-84 0 -127 47 -127 118c0 102 88 153 235 153c23 0 49 -2 68 -6l7 45c3 18 5 33 5 44c0 57 -37 84 -95 84c-61 0 -105 -27 -121 -90l-46 8c23 94 99 124 173 124c81 0 141 -32 141 -116c0 -14 -3 -36 -6 -53zM284 556c34 0 58 28 58 62
c0 30 -17 51 -49 51c-36 0 -60 -28 -60 -62c0 -30 18 -51 51 -51zM281 528c-53 0 -80 33 -80 77c0 50 38 92 94 92c50 0 79 -34 79 -77c0 -50 -37 -92 -93 -92z" />
    <glyph glyph-name="aring.smcp" unicode="&#xe226;" horiz-adv-x="486" 
d="M262 481h61l108 -481h-52l-31 139h-229l-78 -139h-55zM226 326l-83 -145h196l-32 144c-18 84 -20 120 -20 120h-3s-10 -36 -58 -119zM312 574c35 0 59 28 59 61c0 31 -17 52 -50 52c-35 0 -60 -28 -60 -62c0 -31 18 -51 51 -51zM309 546c-53 0 -80 33 -80 76
c0 51 38 93 94 93c51 0 80 -34 80 -77c0 -50 -38 -92 -94 -92z" />
    <glyph glyph-name="aring.smcp" unicode="&#xf7e5;" horiz-adv-x="486" 
d="M262 481h61l108 -481h-52l-31 139h-229l-78 -139h-55zM226 326l-83 -145h196l-32 144c-18 84 -20 120 -20 120h-3s-10 -36 -58 -119zM312 574c35 0 59 28 59 61c0 31 -17 52 -50 52c-35 0 -60 -28 -60 -62c0 -31 18 -51 51 -51zM309 546c-53 0 -80 33 -80 76
c0 51 38 93 94 93c51 0 80 -34 80 -77c0 -50 -38 -92 -94 -92z" />
    <glyph glyph-name="aringacute" unicode="&#x1fb;" horiz-adv-x="515" 
d="M381 268c14 82 -22 161 -111 161c-106 0 -178 -106 -178 -246c0 -91 41 -149 117 -149c80 0 143 65 159 163zM457 42l-8 -39c-11 -5 -24 -8 -40 -8c-40 0 -60 23 -60 61c0 5 0 12 6 46c-25 -67 -86 -111 -158 -111c-91 0 -155 64 -155 187c0 161 89 293 225 293
c73 0 122 -41 132 -107l25 98h42l-65 -373c-2 -9 -3 -17 -3 -25c0 -18 8 -29 28 -29c9 0 18 2 31 7zM301 532c35 0 59 28 59 62c0 30 -17 51 -50 51c-35 0 -60 -28 -60 -62c0 -30 18 -51 51 -51zM298 504c-52 0 -80 33 -80 77c0 50 38 92 94 92c51 0 80 -34 80 -77
c0 -50 -38 -92 -94 -92zM352 703h-46l73 121h71z" />
    <glyph glyph-name="aringacute.school" unicode="&#xe15e;" horiz-adv-x="468" 
d="M322 148l12 73c-19 4 -41 5 -65 5c-109 0 -181 -37 -181 -114c0 -52 31 -82 90 -82c69 0 131 48 144 118zM398 302l-36 -209c-2 -11 -3 -19 -3 -27c0 -17 8 -29 28 -29c9 0 18 2 31 8l-8 -40c-11 -5 -24 -8 -40 -8c-40 0 -61 21 -61 59c0 7 2 19 4 27
c-26 -61 -83 -92 -149 -92c-84 0 -127 47 -127 118c0 102 88 153 235 153c23 0 49 -2 68 -6l7 45c3 18 5 33 5 44c0 57 -37 84 -95 84c-61 0 -105 -27 -121 -90l-46 8c23 94 99 124 173 124c81 0 141 -32 141 -116c0 -14 -3 -36 -6 -53zM289 533c35 0 59 29 59 62
c0 30 -17 52 -50 52c-35 0 -60 -29 -60 -62c0 -31 18 -52 51 -52zM286 505c-53 0 -80 34 -80 77c0 51 38 93 94 93c50 0 79 -34 79 -77c0 -51 -37 -93 -93 -93zM327 709h-46l73 121h70z" />
    <glyph glyph-name="aringacute.smcp" unicode="&#xe22d;" horiz-adv-x="486" 
d="M262 481h61l108 -481h-52l-31 139h-229l-78 -139h-55zM226 326l-83 -145h196l-32 144c-18 84 -20 120 -20 120h-3s-10 -36 -58 -119zM307 540c35 0 59 28 59 62c0 30 -17 51 -50 51c-35 0 -60 -28 -60 -62c0 -30 18 -51 51 -51zM304 512c-53 0 -80 33 -80 77
c0 50 38 92 94 92c51 0 80 -34 80 -77c0 -50 -38 -92 -94 -92zM354 700h-45l73 121h70z" />
    <glyph glyph-name="aringacute.smcp" unicode="&#xf625;" horiz-adv-x="486" 
d="M262 481h61l108 -481h-52l-31 139h-229l-78 -139h-55zM226 326l-83 -145h196l-32 144c-18 84 -20 120 -20 120h-3s-10 -36 -58 -119zM307 540c35 0 59 28 59 62c0 30 -17 51 -50 51c-35 0 -60 -28 -60 -62c0 -30 18 -51 51 -51zM304 512c-53 0 -80 33 -80 77
c0 50 38 92 94 92c51 0 80 -34 80 -77c0 -50 -38 -92 -94 -92zM354 700h-45l73 121h70z" />
    <glyph glyph-name="arrowdown" unicode="&#x2193;" horiz-adv-x="694" 
d="M40 281l33 36l247 -239v511h49v-512l248 240l32 -36l-303 -292z" />
    <glyph glyph-name="arrowleft" unicode="&#x2190;" horiz-adv-x="670" 
d="M111 318h509v-48h-510l239 -248l-36 -33l-291 304l291 305l37 -32z" />
    <glyph glyph-name="arrowright" unicode="&#x2192;" horiz-adv-x="670" 
d="M35 318h509l-237 248l37 32l289 -305l-288 -304l-36 33l237 248h-511v48z" />
    <glyph glyph-name="arrowup" unicode="&#x2191;" horiz-adv-x="690" 
d="M321 512l-248 -239l-33 36l304 291l305 -291l-32 -37l-247 239v-511h-49v512z" />
    <glyph glyph-name="asciicircum" unicode="^" horiz-adv-x="480" 
d="M401 330l-65 189c-24 69 -28 108 -28 108h-4s-17 -39 -66 -108l-133 -189h-54l241 338h40l121 -338h-52z" />
    <glyph glyph-name="asciitilde" unicode="~" horiz-adv-x="374" 
d="M196 233l-41 24c-13 9 -25 16 -39 16c-25 0 -36 -15 -39 -52l-22 10c-2 9 -3 16 -3 24c0 41 33 63 67 63c24 0 39 -9 58 -21l41 -25c12 -9 25 -15 40 -15c24 0 37 17 38 55l25 -11c2 -8 2 -15 2 -22c-1 -41 -31 -67 -68 -67c-25 0 -40 9 -59 21z" />
    <glyph glyph-name="asterisk" unicode="*" horiz-adv-x="340" 
d="M194 443l-78 -71l-28 37l90 58l-93 53l26 37l81 -66l23 103l45 -13l-37 -99l103 11l3 -46l-107 7l43 -99l-43 -15z" />
    <glyph glyph-name="at" unicode="@" horiz-adv-x="862" 
d="M620 29c85 0 148 88 148 227c0 187 -131 300 -320 300c-201 0 -353 -134 -353 -366c0 -250 172 -349 371 -349c69 0 132 11 190 33l11 -39c-54 -20 -122 -35 -202 -35c-217 0 -418 102 -418 390c0 236 150 406 403 406c245 0 364 -156 364 -335
c0 -165 -78 -270 -201 -270c-55 0 -89 26 -93 72c-1 10 -1 20 0 32c-21 -69 -77 -104 -142 -104c-83 0 -136 58 -136 167c0 148 84 249 193 249c62 0 113 -35 120 -97l28 92h38l-52 -280c-4 -20 -5 -27 -5 -41c0 -34 19 -52 56 -52zM531 179l8 48c14 80 -29 141 -98 141
c-86 0 -149 -85 -149 -210c0 -77 31 -126 95 -126c68 0 129 56 144 147z" />
    <glyph glyph-name="at.cap" unicode="&#xe513;" horiz-adv-x="848" 
d="M624 100c84 0 147 88 147 227c0 187 -131 300 -320 300c-201 0 -353 -134 -353 -366c0 -250 172 -349 371 -349c69 0 132 11 190 33l11 -39c-54 -20 -121 -35 -201 -35c-218 0 -419 102 -419 390c0 236 150 406 403 406c246 0 365 -156 365 -335
c0 -165 -79 -270 -202 -270c-55 0 -89 26 -93 72c-1 10 -1 20 1 32c-22 -69 -78 -104 -142 -104c-84 0 -137 58 -137 167c0 148 84 249 193 249c62 0 113 -35 120 -97l28 92h38l-52 -280c-4 -20 -5 -27 -5 -41c0 -34 19 -52 57 -52zM534 250l9 48c13 80 -30 141 -99 141
c-86 0 -149 -85 -149 -210c0 -77 31 -126 95 -126c68 0 129 56 144 147z" />
    <glyph glyph-name="atilde" unicode="&#xe3;" horiz-adv-x="515" 
d="M381 268c14 82 -22 161 -111 161c-106 0 -178 -106 -178 -246c0 -91 41 -149 117 -149c80 0 143 65 159 163zM457 42l-8 -39c-11 -5 -24 -8 -40 -8c-40 0 -60 23 -60 61c0 5 0 12 6 46c-25 -67 -86 -111 -158 -111c-91 0 -155 64 -155 187c0 161 89 293 225 293
c73 0 122 -41 132 -107l25 98h42l-65 -373c-2 -9 -3 -17 -3 -25c0 -18 8 -29 28 -29c9 0 18 2 31 7zM198 543l-33 2c-2 7 -3 14 -3 22c0 44 33 76 75 76c25 0 42 -9 60 -22l37 -27c13 -9 23 -13 37 -13c24 0 36 18 38 57l34 -1c1 -8 2 -15 2 -22c0 -45 -32 -77 -75 -77
c-25 0 -42 9 -60 22l-36 27c-13 9 -23 14 -37 14c-24 0 -36 -19 -39 -58z" />
    <glyph glyph-name="tilde" unicode="&#x2dc;" horiz-adv-x="416" 
d="M103 543l-34 2c-1 7 -2 14 -2 22c0 44 32 76 74 76c26 0 42 -9 61 -22l36 -27c13 -9 23 -13 37 -13c24 0 36 18 39 57l33 -1c2 -8 3 -15 3 -22c0 -45 -33 -77 -75 -77c-25 0 -42 9 -61 22l-36 27c-13 9 -23 14 -37 14c-24 0 -36 -19 -38 -58z" />
    <glyph glyph-name="atilde.school" unicode="&#xe156;" horiz-adv-x="468" 
d="M322 148l12 73c-19 4 -41 5 -65 5c-109 0 -181 -37 -181 -114c0 -52 31 -82 90 -82c69 0 131 48 144 118zM398 302l-36 -209c-2 -11 -3 -19 -3 -27c0 -17 8 -29 28 -29c9 0 18 2 31 8l-8 -40c-11 -5 -24 -8 -40 -8c-40 0 -61 21 -61 59c0 7 2 19 4 27
c-26 -61 -83 -92 -149 -92c-84 0 -127 47 -127 118c0 102 88 153 235 153c23 0 49 -2 68 -6l7 45c3 18 5 33 5 44c0 57 -37 84 -95 84c-61 0 -105 -27 -121 -90l-46 8c23 94 99 124 173 124c81 0 141 -32 141 -116c0 -14 -3 -36 -6 -53zM182 543l-34 2c-1 7 -2 14 -2 22
c0 44 32 76 75 76c25 0 42 -9 60 -22l36 -27c13 -9 23 -13 37 -13c24 0 37 18 39 57l33 -1c2 -8 3 -15 3 -22c0 -45 -33 -77 -75 -77c-25 0 -42 9 -60 22l-37 27c-13 9 -23 14 -37 14c-24 0 -36 -19 -38 -58z" />
    <glyph glyph-name="atilde.smcp" unicode="&#xe225;" horiz-adv-x="486" 
d="M262 481h61l108 -481h-52l-31 139h-229l-78 -139h-55zM226 326l-83 -145h196l-32 144c-18 84 -20 120 -20 120h-3s-10 -36 -58 -119zM206 561l-33 1c-2 8 -3 15 -3 22c0 45 33 77 75 77c25 0 42 -9 60 -22l37 -27c13 -9 23 -14 37 -14c24 0 36 19 38 58l34 -2
c1 -7 2 -14 2 -22c0 -44 -32 -76 -74 -76c-26 0 -42 9 -61 22l-36 27c-13 9 -23 13 -37 13c-24 0 -36 -18 -39 -57z" />
    <glyph glyph-name="atilde.smcp" unicode="&#xf7e3;" horiz-adv-x="486" 
d="M262 481h61l108 -481h-52l-31 139h-229l-78 -139h-55zM226 326l-83 -145h196l-32 144c-18 84 -20 120 -20 120h-3s-10 -36 -58 -119zM206 561l-33 1c-2 8 -3 15 -3 22c0 45 33 77 75 77c25 0 42 -9 60 -22l37 -27c13 -9 23 -14 37 -14c24 0 36 19 38 58l34 -2
c1 -7 2 -14 2 -22c0 -44 -32 -76 -74 -76c-26 0 -42 9 -61 22l-36 27c-13 9 -23 13 -37 13c-24 0 -36 -18 -39 -57z" />
    <glyph glyph-name="b" unicode="b" horiz-adv-x="513" 
d="M210 668l-55 -314c27 69 86 117 163 117c96 0 153 -65 153 -188c0 -165 -88 -292 -226 -292c-76 0 -129 46 -138 106l-27 -97h-37l116 668h51zM139 263l-14 -77c-13 -74 26 -152 117 -152c110 0 177 112 177 249c0 91 -41 146 -115 146c-80 0 -148 -69 -165 -166z" />
    <glyph glyph-name="b.smcp" unicode="&#xe202;" horiz-adv-x="474" 
d="M318 249v-3c60 -3 97 -42 97 -99c0 -102 -77 -147 -195 -147h-168l84 481h155c92 0 139 -34 139 -106c0 -75 -45 -117 -112 -126zM151 268h108c65 0 120 27 120 100c0 51 -35 70 -96 70h-102zM144 225l-32 -182h110c88 0 143 26 143 102c0 54 -36 80 -104 80h-117z" />
    <glyph glyph-name="b.smcp" unicode="&#xf762;" horiz-adv-x="474" 
d="M318 249v-3c60 -3 97 -42 97 -99c0 -102 -77 -147 -195 -147h-168l84 481h155c92 0 139 -34 139 -106c0 -75 -45 -117 -112 -126zM151 268h108c65 0 120 27 120 100c0 51 -35 70 -96 70h-102zM144 225l-32 -182h110c88 0 143 26 143 102c0 54 -36 80 -104 80h-117z" />
    <glyph glyph-name="b.superior" unicode="&#xe362;" horiz-adv-x="369" 
d="M189 720l-37 -193c21 45 61 73 110 73c69 0 109 -44 109 -126c0 -109 -61 -192 -160 -192c-49 0 -89 29 -97 67l-17 -61h-34l82 432h44zM140 460l-9 -51c-7 -45 18 -94 77 -94c74 0 117 70 117 158c0 57 -26 91 -75 91c-53 0 -99 -42 -110 -104z" />
    <glyph glyph-name="backslash" unicode="\" horiz-adv-x="343" 
d="M153 669l122 -872h-44l-122 872h44z" />
    <glyph glyph-name="backslash.cap" unicode="&#xe462;" horiz-adv-x="316" 
d="M136 667l121 -745h-45l-122 745h46z" />
    <glyph glyph-name="backslash.smcp" unicode="&#xe468;" horiz-adv-x="321" 
d="M143 559l94 -637h-45l-94 637h45z" />
    <glyph glyph-name="bar" unicode="|" horiz-adv-x="232" 
d="M64 -203h-46l153 872h46z" />
    <glyph glyph-name="bar.cap" unicode="&#xe463;" horiz-adv-x="231" 
d="M85 -78h-46l131 745h46z" />
    <glyph glyph-name="bar.smcp" unicode="&#xe469;" horiz-adv-x="221" 
d="M84 -78h-46l112 637h46z" />
    <glyph glyph-name="barredO" horiz-adv-x="610" 
d="M277 -9c-138 0 -222 94 -222 239c0 230 134 368 295 368c137 0 222 -94 222 -240c0 -230 -135 -367 -295 -367zM281 36c117 0 205 95 229 236h-400c-1 -13 -1 -26 -1 -39c0 -121 63 -197 172 -197zM345 552c-116 0 -204 -93 -229 -232h400c1 11 1 23 1 35
c0 116 -57 197 -172 197z" />
    <glyph glyph-name="barredo" horiz-adv-x="480" 
d="M212 -9c-104 0 -170 67 -170 193c0 149 78 287 227 287c108 0 169 -71 169 -194c0 -150 -79 -286 -226 -286zM217 32c92 0 150 83 166 183h-290c-1 -9 -1 -18 -1 -26c0 -105 47 -157 125 -157zM262 427c-89 0 -146 -77 -164 -172h289c1 6 1 12 1 19
c0 101 -46 153 -126 153z" />
    <glyph glyph-name="o" unicode="o" horiz-adv-x="480" 
d="M217 32c110 0 171 118 171 242c0 101 -46 153 -126 153c-109 0 -170 -115 -170 -238c0 -105 47 -157 125 -157zM212 -9c-104 0 -170 67 -170 193c0 149 78 287 227 287c108 0 169 -71 169 -194c0 -150 -79 -286 -226 -286z" />
    <glyph glyph-name="barredo.smcp" unicode="&#xe297;" horiz-adv-x="535" 
d="M239 -9c-108 0 -185 74 -185 200c0 175 100 299 251 299c113 0 185 -78 185 -202c0 -175 -103 -297 -251 -297zM298 447c-93 0 -167 -76 -187 -189h325c0 9 1 18 1 28c0 98 -54 161 -139 161zM245 33c90 0 163 72 185 182h-324v-18c0 -101 55 -164 139 -164z" />
    <glyph glyph-name="o.smcp" unicode="&#xe20f;" horiz-adv-x="535" 
d="M239 -9c-108 0 -185 74 -185 200c0 175 100 299 251 299c113 0 185 -78 185 -202c0 -175 -103 -297 -251 -297zM245 33c109 0 192 104 192 253c0 98 -54 161 -139 161c-109 0 -192 -104 -192 -250c0 -101 55 -164 139 -164z" />
    <glyph glyph-name="o.smcp" unicode="&#xf76f;" horiz-adv-x="535" 
d="M239 -9c-108 0 -185 74 -185 200c0 175 100 299 251 299c113 0 185 -78 185 -202c0 -175 -103 -297 -251 -297zM245 33c109 0 192 104 192 253c0 98 -54 161 -139 161c-109 0 -192 -104 -192 -250c0 -101 55 -164 139 -164z" />
    <glyph glyph-name="blackcircle" unicode="&#x25cf;" horiz-adv-x="712" 
d="M49 294c0 169 137 307 306 307s307 -138 307 -307s-138 -306 -307 -306s-306 137 -306 306z" />
    <glyph glyph-name="blacksmallsquare" unicode="&#x25aa;" horiz-adv-x="505" 
d="M89 139v325h326v-325h-326z" />
    <glyph glyph-name="blacksquare" unicode="&#x25a0;" horiz-adv-x="768" 
d="M89 0v589h589v-589h-589z" />
    <glyph glyph-name="braceleft" unicode="{" horiz-adv-x="391" 
d="M43 213l7 41h44c38 0 75 15 87 84l34 202c14 82 54 134 140 134c34 0 58 -5 86 -17l-18 -39c-17 9 -36 17 -66 17c-51 0 -81 -29 -93 -97l-36 -204c-13 -72 -46 -94 -93 -99v-3c37 -4 60 -21 60 -68c0 -8 -1 -19 -3 -31l-36 -204c-2 -13 -4 -25 -4 -35
c0 -44 23 -62 63 -62c30 0 52 8 72 17l5 -40c-32 -11 -60 -16 -91 -16c-71 0 -98 34 -98 92c0 11 1 26 4 42l36 201c2 11 3 21 3 30c0 44 -27 55 -60 55h-43z" />
    <glyph glyph-name="braceleft.cap" unicode="&#xe495;" horiz-adv-x="391" 
d="M48 271l7 41h43c38 0 76 16 87 85l25 143c15 82 54 134 140 134c33 0 57 -6 85 -17l-17 -40c-17 10 -37 17 -67 17c-50 0 -80 -28 -93 -97l-26 -145c-13 -72 -46 -94 -93 -99v-3c37 -4 60 -21 60 -68c0 -8 -1 -18 -3 -31l-25 -145c-2 -12 -4 -24 -4 -35
c0 -43 22 -62 62 -62c31 0 52 8 73 17l4 -39c-32 -12 -59 -17 -90 -17c-72 0 -99 34 -99 92c0 12 2 26 5 42l25 142c2 11 3 21 3 31c0 43 -27 54 -59 54h-43z" />
    <glyph glyph-name="braceleft.smcp" unicode="&#xe49d;" horiz-adv-x="372" 
d="M122 239v-3c36 -4 60 -23 60 -68c0 -9 -1 -20 -3 -31l-16 -85c-2 -12 -3 -26 -3 -36c0 -40 16 -61 57 -61c31 0 50 8 71 17l4 -39c-32 -12 -57 -17 -88 -17c-67 0 -93 34 -93 90c0 13 2 29 5 44l14 83c2 11 2 19 2 28c0 45 -26 56 -58 56h-43l7 41h43c38 0 75 16 87 85
l14 83c14 81 51 134 135 134c30 0 56 -6 82 -19l-19 -39c-16 10 -33 18 -61 18c-53 0 -79 -34 -90 -96l-15 -86c-13 -72 -47 -93 -92 -99z" />
    <glyph glyph-name="braceleft.smcp" unicode="&#xf60c;" horiz-adv-x="372" 
d="M122 239v-3c36 -4 60 -23 60 -68c0 -9 -1 -20 -3 -31l-16 -85c-2 -12 -3 -26 -3 -36c0 -40 16 -61 57 -61c31 0 50 8 71 17l4 -39c-32 -12 -57 -17 -88 -17c-67 0 -93 34 -93 90c0 13 2 29 5 44l14 83c2 11 2 19 2 28c0 45 -26 56 -58 56h-43l7 41h43c38 0 75 16 87 85
l14 83c14 81 51 134 135 134c30 0 56 -6 82 -19l-19 -39c-16 10 -33 18 -61 18c-53 0 -79 -34 -90 -96l-15 -86c-13 -72 -47 -93 -92 -99z" />
    <glyph glyph-name="braceright" unicode="}" horiz-adv-x="391" 
d="M345 254l-8 -41h-43c-39 0 -76 -16 -87 -85l-35 -201c-14 -82 -54 -134 -139 -134c-34 0 -58 5 -86 16l17 40c18 -9 37 -17 67 -17c50 0 81 29 93 97l36 204c12 72 46 94 93 99v3c-37 4 -60 21 -60 68c0 8 1 18 3 31l35 204c2 12 4 24 4 35c0 43 -22 62 -62 62
c-31 0 -52 -8 -73 -17l-4 39c32 12 59 17 91 17c71 0 98 -34 98 -92c0 -12 -2 -26 -5 -42l-35 -202c-2 -10 -3 -20 -3 -30c0 -43 27 -54 59 -54h44z" />
    <glyph glyph-name="braceright.cap" unicode="&#xe496;" horiz-adv-x="391" 
d="M362 312l-7 -41h-43c-38 0 -76 -16 -87 -85l-25 -142c-15 -82 -54 -134 -139 -134c-34 0 -58 5 -86 16l17 40c17 -10 37 -17 67 -17c50 0 80 28 93 97l26 145c12 72 45 94 93 99v3c-37 4 -60 21 -60 68c0 8 1 19 3 31l25 145c2 12 4 24 4 35c0 43 -22 62 -62 62
c-31 0 -52 -8 -73 -17l-4 39c32 12 59 17 90 17c72 0 99 -34 99 -92c0 -12 -2 -26 -5 -42l-25 -142c-2 -11 -3 -21 -3 -31c0 -43 27 -54 59 -54h43z" />
    <glyph glyph-name="braceright.smcp" unicode="&#xe49e;" horiz-adv-x="372" 
d="M255 237v3c-36 4 -60 23 -60 67c0 9 1 20 3 31l16 86c2 12 3 25 3 36c0 39 -17 60 -57 60c-32 0 -51 -7 -71 -16l-4 39c32 11 57 17 87 17c68 0 93 -34 93 -90c0 -13 -2 -29 -4 -44l-14 -83c-2 -11 -3 -20 -3 -28c0 -46 26 -57 59 -57h43l-8 -41h-43
c-38 0 -74 -15 -86 -84l-14 -83c-14 -82 -51 -134 -135 -134c-30 0 -56 6 -82 18l18 39c17 -10 34 -18 62 -18c53 0 79 34 90 97l15 85c12 72 46 94 92 100z" />
    <glyph glyph-name="braceright.smcp" unicode="&#xf60d;" horiz-adv-x="372" 
d="M255 237v3c-36 4 -60 23 -60 67c0 9 1 20 3 31l16 86c2 12 3 25 3 36c0 39 -17 60 -57 60c-32 0 -51 -7 -71 -16l-4 39c32 11 57 17 87 17c68 0 93 -34 93 -90c0 -13 -2 -29 -4 -44l-14 -83c-2 -11 -3 -20 -3 -28c0 -46 26 -57 59 -57h43l-8 -41h-43
c-38 0 -74 -15 -86 -84l-14 -83c-14 -82 -51 -134 -135 -134c-30 0 -56 6 -82 18l18 39c17 -10 34 -18 62 -18c53 0 79 34 90 97l15 85c12 72 46 94 92 100z" />
    <glyph glyph-name="bracketleft" unicode="[" horiz-adv-x="316" 
d="M218 629l-139 -792h157l-7 -40h-205l153 872h205l-7 -40h-157z" />
    <glyph glyph-name="bracketleft.cap" unicode="&#xe493;" horiz-adv-x="331" 
d="M214 624l-118 -666h157l-6 -40h-206l131 746h206l-7 -40h-157z" />
    <glyph glyph-name="bracketleft.smcp" unicode="&#xe49b;" horiz-adv-x="312" 
d="M195 518l-98 -559h158l-7 -39h-205l112 638h205l-7 -40h-158z" />
    <glyph glyph-name="bracketleft.smcp" unicode="&#xf60e;" horiz-adv-x="312" 
d="M195 518l-98 -559h158l-7 -39h-205l112 638h205l-7 -40h-158z" />
    <glyph glyph-name="bracketright" unicode="]" horiz-adv-x="316" 
d="M97 -163l140 792h-157l7 40h205l-153 -872h-205l7 40h156z" />
    <glyph glyph-name="bracketright.cap" unicode="&#xe494;" horiz-adv-x="331" 
d="M140 -42l117 666h-156l6 40h205l-131 -746h-205l7 40h157z" />
    <glyph glyph-name="bracketright.smcp" unicode="&#xe49c;" horiz-adv-x="312" 
d="M133 -41l99 560h-158l7 39h205l-112 -638h-205l6 39h158z" />
    <glyph glyph-name="bracketright.smcp" unicode="&#xf60f;" horiz-adv-x="312" 
d="M133 -41l99 560h-158l7 39h205l-112 -638h-205l6 39h158z" />
    <glyph glyph-name="brokenbar" unicode="&#xa6;" horiz-adv-x="232" 
d="M149 278h-46l68 391h46zM64 -203h-46l69 391h46z" />
    <glyph glyph-name="brokenbar.cap" unicode="&#xe465;" horiz-adv-x="231" 
d="M156 328h-46l60 339h46zM85 -78h-46l55 316h46z" />
    <glyph glyph-name="brokenbar.smcp" unicode="&#xe46b;" horiz-adv-x="221" 
d="M148 287h-46l48 272h46zM84 -78h-46l48 269h45z" />
    <glyph glyph-name="bullet" unicode="&#x2022;" horiz-adv-x="293" 
d="M85 251c0 35 28 63 61 63c35 0 63 -28 63 -63c0 -33 -28 -61 -63 -61c-33 0 -61 28 -61 61z" />
    <glyph glyph-name="bullet.cap" unicode="&#xe466;" horiz-adv-x="293" 
d="M93 293c0 34 28 63 62 63s62 -29 62 -63c0 -33 -28 -61 -62 -61s-62 28 -62 61z" />
    <glyph glyph-name="bullet.smcp" unicode="&#xe46c;" horiz-adv-x="293" 
d="M84 234c0 35 29 63 62 63c34 0 62 -28 62 -63c0 -33 -28 -61 -62 -61c-33 0 -62 28 -62 61z" />
    <glyph glyph-name="c" unicode="c" horiz-adv-x="441" 
d="M92 189c0 -105 46 -157 127 -157c77 0 113 44 131 101l47 -11c-27 -80 -83 -131 -184 -131c-104 0 -171 67 -171 192c0 143 75 288 225 288c102 0 146 -59 146 -149l-45 -8c-1 65 -30 113 -106 113c-113 0 -170 -122 -170 -238z" />
    <glyph glyph-name="c.smcp" unicode="&#xe203;" horiz-adv-x="491" 
d="M240 -9c-111 0 -186 76 -186 199c0 178 101 300 253 300c90 0 142 -44 158 -117l-46 -22c-12 64 -57 96 -119 96c-113 0 -194 -104 -194 -251c0 -99 52 -163 141 -163c62 0 114 27 149 96l38 -27c-41 -77 -105 -111 -194 -111z" />
    <glyph glyph-name="c.smcp" unicode="&#xf763;" horiz-adv-x="491" 
d="M240 -9c-111 0 -186 76 -186 199c0 178 101 300 253 300c90 0 142 -44 158 -117l-46 -22c-12 64 -57 96 -119 96c-113 0 -194 -104 -194 -251c0 -99 52 -163 141 -163c62 0 114 27 149 96l38 -27c-41 -77 -105 -111 -194 -111z" />
    <glyph glyph-name="c.superior" unicode="&#xe363;" horiz-adv-x="312" 
d="M105 415c0 -67 32 -99 85 -99c51 0 73 29 87 66l41 -9c-21 -57 -61 -91 -132 -91c-75 0 -124 45 -124 128c0 95 54 190 163 190c74 0 104 -40 104 -104l-42 -4c-1 41 -17 72 -66 72c-76 0 -116 -75 -116 -149z" />
    <glyph glyph-name="cacute" unicode="&#x107;" horiz-adv-x="441" 
d="M92 189c0 -105 46 -157 127 -157c77 0 113 44 131 101l47 -11c-27 -80 -83 -131 -184 -131c-104 0 -171 67 -171 192c0 143 75 288 225 288c102 0 146 -59 146 -149l-45 -8c-1 65 -30 113 -106 113c-113 0 -170 -122 -170 -238zM298 533h-43l79 136h72z" />
    <glyph glyph-name="cacute.smcp" unicode="&#xe234;" horiz-adv-x="491" 
d="M334 550h-43l80 136h71zM240 -9c-111 0 -186 76 -186 199c0 178 101 300 253 300c90 0 142 -44 158 -117l-46 -22c-12 64 -57 96 -119 96c-113 0 -194 -104 -194 -251c0 -99 52 -163 141 -163c62 0 114 27 149 96l38 -27c-41 -77 -105 -111 -194 -111z" />
    <glyph glyph-name="cacute.smcp" unicode="&#xf643;" horiz-adv-x="491" 
d="M334 550h-43l80 136h71zM240 -9c-111 0 -186 76 -186 199c0 178 101 300 253 300c90 0 142 -44 158 -117l-46 -22c-12 64 -57 96 -119 96c-113 0 -194 -104 -194 -251c0 -99 52 -163 141 -163c62 0 114 27 149 96l38 -27c-41 -77 -105 -111 -194 -111z" />
    <glyph glyph-name="ccaron" unicode="&#x10d;" horiz-adv-x="441" 
d="M92 189c0 -105 46 -157 127 -157c77 0 113 44 131 101l47 -11c-27 -80 -83 -131 -184 -131c-104 0 -171 67 -171 192c0 143 75 288 225 288c102 0 146 -59 146 -149l-45 -8c-1 65 -30 113 -106 113c-113 0 -170 -122 -170 -238zM295 533h-29l-91 136h53l35 -54
c15 -24 21 -41 21 -41h4s11 17 35 42l54 53h57z" />
    <glyph glyph-name="ccaron.smcp" unicode="&#xe236;" horiz-adv-x="491" 
d="M331 550h-28l-92 136h53l36 -54c15 -23 21 -40 21 -40h3s11 17 36 41l53 53h57zM240 -9c-111 0 -186 76 -186 199c0 178 101 300 253 300c90 0 142 -44 158 -117l-46 -22c-12 64 -57 96 -119 96c-113 0 -194 -104 -194 -251c0 -99 52 -163 141 -163c62 0 114 27 149 96
l38 -27c-41 -77 -105 -111 -194 -111z" />
    <glyph glyph-name="ccaron.smcp" unicode="&#xf644;" horiz-adv-x="491" 
d="M331 550h-28l-92 136h53l36 -54c15 -23 21 -40 21 -40h3s11 17 36 41l53 53h57zM240 -9c-111 0 -186 76 -186 199c0 178 101 300 253 300c90 0 142 -44 158 -117l-46 -22c-12 64 -57 96 -119 96c-113 0 -194 -104 -194 -251c0 -99 52 -163 141 -163c62 0 114 27 149 96
l38 -27c-41 -77 -105 -111 -194 -111z" />
    <glyph glyph-name="ccedilla" unicode="&#xe7;" horiz-adv-x="441" 
d="M261 -124c0 -52 -44 -81 -98 -81c-41 0 -70 17 -86 40l19 32c16 -25 38 -38 67 -38c32 0 54 17 54 47c0 31 -25 48 -75 50l27 70c-79 16 -127 80 -127 187c0 143 75 288 225 288c102 0 146 -59 146 -149l-45 -8c-1 65 -30 113 -106 113c-113 0 -170 -122 -170 -238
c0 -105 46 -157 127 -157c77 0 113 44 131 101l47 -11c-27 -80 -83 -131 -184 -131c-6 0 -11 1 -16 1l-16 -38c49 -8 80 -31 80 -78z" />
    <glyph glyph-name="ccedilla.smcp" unicode="&#xe238;" horiz-adv-x="491" 
d="M292 -124c0 -52 -43 -81 -98 -81c-41 0 -69 17 -85 40l19 32c16 -25 38 -38 66 -38c33 0 54 17 54 47c0 31 -25 48 -75 50l26 69c-88 16 -145 87 -145 195c0 178 102 300 253 300c91 0 141 -44 158 -117l-46 -22c-11 64 -56 96 -119 96c-112 0 -194 -104 -194 -251
c0 -99 53 -163 141 -163c63 0 113 27 149 96l38 -27c-42 -77 -104 -111 -193 -111h-13l-15 -37c48 -8 79 -31 79 -78z" />
    <glyph glyph-name="ccedilla.smcp" unicode="&#xf7e7;" horiz-adv-x="491" 
d="M292 -124c0 -52 -43 -81 -98 -81c-41 0 -69 17 -85 40l19 32c16 -25 38 -38 66 -38c33 0 54 17 54 47c0 31 -25 48 -75 50l26 69c-88 16 -145 87 -145 195c0 178 102 300 253 300c91 0 141 -44 158 -117l-46 -22c-11 64 -56 96 -119 96c-112 0 -194 -104 -194 -251
c0 -99 53 -163 141 -163c63 0 113 27 149 96l38 -27c-42 -77 -104 -111 -193 -111h-13l-15 -37c48 -8 79 -31 79 -78z" />
    <glyph glyph-name="ccircumflex" unicode="&#x109;" horiz-adv-x="441" 
d="M92 189c0 -105 46 -157 127 -157c77 0 113 44 131 101l47 -11c-27 -80 -83 -131 -184 -131c-104 0 -171 67 -171 192c0 143 75 288 225 288c102 0 146 -59 146 -149l-45 -8c-1 65 -30 113 -106 113c-113 0 -170 -122 -170 -238zM286 669h29l92 -136h-54l-35 54
c-15 23 -21 40 -21 40h-3s-12 -17 -36 -41l-54 -53h-57z" />
    <glyph glyph-name="ccircumflex.smcp" unicode="&#xe235;" horiz-adv-x="491" 
d="M323 686h28l92 -136h-54l-35 54c-15 24 -21 41 -21 41h-3s-12 -17 -36 -42l-54 -53h-56zM240 -9c-111 0 -186 76 -186 199c0 178 101 300 253 300c90 0 142 -44 158 -117l-46 -22c-12 64 -57 96 -119 96c-113 0 -194 -104 -194 -251c0 -99 52 -163 141 -163
c62 0 114 27 149 96l38 -27c-41 -77 -105 -111 -194 -111z" />
    <glyph glyph-name="ccircumflex.smcp" unicode="&#xf628;" horiz-adv-x="491" 
d="M323 686h28l92 -136h-54l-35 54c-15 24 -21 41 -21 41h-3s-12 -17 -36 -42l-54 -53h-56zM240 -9c-111 0 -186 76 -186 199c0 178 101 300 253 300c90 0 142 -44 158 -117l-46 -22c-12 64 -57 96 -119 96c-113 0 -194 -104 -194 -251c0 -99 52 -163 141 -163
c62 0 114 27 149 96l38 -27c-41 -77 -105 -111 -194 -111z" />
    <glyph glyph-name="cdotaccent" unicode="&#x10b;" horiz-adv-x="441" 
d="M92 189c0 -105 46 -157 127 -157c77 0 113 44 131 101l47 -11c-27 -80 -83 -131 -184 -131c-104 0 -171 67 -171 192c0 143 75 288 225 288c102 0 146 -59 146 -149l-45 -8c-1 65 -30 113 -106 113c-113 0 -170 -122 -170 -238zM252 604c0 22 16 39 37 39
c22 0 39 -17 39 -39c0 -21 -17 -37 -39 -37c-21 0 -37 16 -37 37z" />
    <glyph glyph-name="cdotaccent.smcp" unicode="&#xe237;" horiz-adv-x="491" 
d="M288 622c0 22 16 39 37 39c22 0 39 -17 39 -39c0 -21 -17 -38 -39 -38c-21 0 -37 17 -37 38zM240 -9c-111 0 -186 76 -186 199c0 178 101 300 253 300c90 0 142 -44 158 -117l-46 -22c-12 64 -57 96 -119 96c-113 0 -194 -104 -194 -251c0 -99 52 -163 141 -163
c62 0 114 27 149 96l38 -27c-41 -77 -105 -111 -194 -111z" />
    <glyph glyph-name="cdotaccent.smcp" unicode="&#xf629;" horiz-adv-x="491" 
d="M288 622c0 22 16 39 37 39c22 0 39 -17 39 -39c0 -21 -17 -38 -39 -38c-21 0 -37 17 -37 38zM240 -9c-111 0 -186 76 -186 199c0 178 101 300 253 300c90 0 142 -44 158 -117l-46 -22c-12 64 -57 96 -119 96c-113 0 -194 -104 -194 -251c0 -99 52 -163 141 -163
c62 0 114 27 149 96l38 -27c-41 -77 -105 -111 -194 -111z" />
    <glyph glyph-name="cent" unicode="&#xa2;" horiz-adv-x="484" 
d="M237 -9h-2l-17 -97h-37l17 101c-89 15 -147 87 -147 195c0 171 93 290 235 299l15 85h36l-15 -85c79 -5 125 -48 140 -116l-48 -22c-11 58 -47 89 -100 95l-72 -413h2c62 0 114 27 149 96l38 -27c-41 -77 -105 -111 -194 -111zM103 196c0 -84 38 -143 103 -159l72 409
c-102 -11 -175 -112 -175 -250z" />
    <glyph glyph-name="cent.LP" unicode="&#xe523;" horiz-adv-x="488" 
d="M243 50h-2l-17 -97h-36l17 100c-90 15 -148 87 -148 197c0 171 93 290 235 299l15 84h36l-15 -84c79 -6 125 -49 141 -117l-49 -22c-10 58 -46 89 -100 95l-72 -413h2c62 0 114 27 149 97l38 -27c-41 -77 -104 -112 -194 -112zM110 255c0 -84 37 -143 103 -159l71 409
c-102 -11 -174 -111 -174 -250z" />
    <glyph glyph-name="circle" horiz-adv-x="532" 
d="M49 295c0 120 96 217 216 217s217 -97 217 -217s-97 -216 -217 -216s-216 96 -216 216zM94 294c0 -96 77 -174 172 -174s173 78 173 174c0 97 -78 176 -173 176s-172 -79 -172 -176z" />
    <glyph glyph-name="colon" unicode=":" horiz-adv-x="246" 
d="M47 39c0 24 18 42 43 42c24 0 42 -18 42 -42s-18 -42 -42 -42c-25 0 -43 18 -43 42zM111 402c0 24 18 42 42 42s42 -18 42 -42s-18 -42 -42 -42s-42 18 -42 42z" />
    <glyph glyph-name="comma" unicode="," horiz-adv-x="246" 
d="M142 14c0 -72 -60 -106 -130 -109v28c41 4 90 21 90 61c0 5 0 7 -2 11c-3 -4 -8 -6 -15 -6c-21 0 -35 16 -35 37c0 24 16 40 41 40c30 0 51 -23 51 -62z" />
    <glyph glyph-name="copyright" unicode="&#xa9;" horiz-adv-x="703" 
d="M667 294c0 -177 -137 -303 -304 -303c-168 0 -304 126 -304 303s136 304 304 304c167 0 304 -127 304 -304zM642 294c0 163 -125 280 -279 280c-153 0 -278 -117 -278 -280s125 -279 278 -279c154 0 279 116 279 279zM343 100c-88 0 -146 59 -146 156
c0 138 78 233 197 233c72 0 112 -36 125 -92l-42 -19c-8 48 -40 74 -89 74c-85 0 -147 -79 -147 -192c0 -74 40 -123 108 -123c47 0 86 22 113 75l33 -23c-32 -61 -82 -89 -152 -89z" />
    <glyph glyph-name="cordinal" unicode="&#xe181;" horiz-adv-x="310" 
d="M104 415c0 -67 31 -99 84 -99c51 0 74 29 88 66l41 -9c-22 -57 -61 -91 -132 -91c-76 0 -125 45 -125 128c0 95 55 190 164 190c73 0 103 -40 103 -104l-42 -4c0 41 -17 72 -66 72c-76 0 -115 -75 -115 -149z" />
    <glyph glyph-name="cordinal.smcp" unicode="&#xe353;" horiz-adv-x="325" 
d="M100 414c0 -67 32 -100 86 -100c52 0 77 29 92 66l41 -8c-21 -58 -65 -93 -137 -93c-76 0 -125 46 -125 131c0 96 55 190 165 190c74 0 107 -41 107 -105l-42 -5c0 44 -19 74 -69 74c-79 0 -118 -75 -118 -150z" />
    <glyph glyph-name="currency" unicode="&#xa4;" horiz-adv-x="471" 
d="M225 132c-41 0 -74 14 -94 42l-86 -73l-22 25l91 77c-6 17 -9 36 -9 58c0 48 13 94 38 129l-59 72l28 23l56 -69c25 22 57 35 96 35c41 0 73 -14 92 -41l89 75l21 -25l-92 -78c6 -18 10 -38 10 -61c0 -46 -13 -90 -36 -125l59 -70l-27 -23l-57 67
c-25 -23 -58 -38 -98 -38zM229 167c71 0 111 75 111 152c0 64 -30 96 -80 96c-73 0 -113 -72 -113 -150c0 -66 31 -98 82 -98z" />
    <glyph glyph-name="d" unicode="d" horiz-adv-x="512" 
d="M368 196l14 72c14 82 -23 161 -112 161c-106 0 -179 -107 -179 -247c0 -90 41 -148 117 -148c81 0 144 65 160 162zM355 102c-23 -70 -86 -111 -158 -111c-91 0 -155 64 -155 187c0 161 89 293 225 293c73 0 122 -41 132 -107l53 304h50l-101 -579c-2 -9 -3 -17 -3 -25
c0 -18 8 -29 28 -29c9 0 18 2 31 7l-8 -39c-11 -5 -24 -8 -40 -8c-40 0 -60 23 -60 61c0 5 0 10 6 46z" />
    <glyph glyph-name="d.smcp" unicode="&#xe204;" horiz-adv-x="530" 
d="M112 43h89c137 0 231 71 231 244c0 105 -63 151 -163 151h-88zM191 0h-139l84 481h136c129 0 214 -59 214 -192c0 -201 -118 -289 -295 -289z" />
    <glyph glyph-name="d.smcp" unicode="&#xf764;" horiz-adv-x="530" 
d="M112 43h89c137 0 231 71 231 244c0 105 -63 151 -163 151h-88zM191 0h-139l84 481h136c129 0 214 -59 214 -192c0 -201 -118 -289 -295 -289z" />
    <glyph glyph-name="d.superior" unicode="&#xe364;" horiz-adv-x="364" 
d="M228 566c-72 0 -122 -67 -122 -157c0 -58 28 -94 79 -94c53 0 95 40 107 103l9 47c10 52 -15 101 -73 101zM322 350c0 -5 -1 -9 -1 -14c0 -10 5 -17 17 -17c5 0 10 0 24 5l-6 -33c-10 -4 -21 -6 -32 -6c-25 0 -41 13 -45 32c-1 5 0 17 2 30c-20 -36 -60 -65 -106 -65
c-66 0 -113 43 -113 125c0 106 65 193 163 193c47 0 81 -25 89 -65l35 186h44z" />
    <glyph glyph-name="dagger" unicode="&#x2020;" horiz-adv-x="534" 
d="M284 327l-202 -9l10 55l199 -8l31 224h57l-47 -224l202 8l-10 -55l-198 9l-77 -476h-57z" />
    <glyph glyph-name="daggerdbl" unicode="&#x2021;" horiz-adv-x="533" 
d="M326 332l-41 -225l203 8l-9 -53l-199 9l-31 -221h-57l47 221l-202 -9l9 53l199 -8l40 225l-202 -8l9 53l200 -8l30 220h57l-47 -220l202 8l-9 -53z" />
    <glyph glyph-name="dcaron" unicode="&#x10f;" horiz-adv-x="512" 
d="M368 196l14 72c14 82 -23 161 -112 161c-106 0 -179 -107 -179 -247c0 -90 41 -148 117 -148c81 0 144 65 160 162zM355 102c-23 -70 -86 -111 -158 -111c-91 0 -155 64 -155 187c0 161 89 293 225 293c73 0 122 -41 132 -107l53 304h50l-101 -579c-2 -9 -3 -17 -3 -25
c0 -18 8 -29 28 -29c9 0 18 2 31 7l-8 -39c-11 -5 -24 -8 -40 -8c-40 0 -60 23 -60 61c0 5 0 10 6 46zM626 668l-53 -175h-37l30 175h60z" />
    <glyph glyph-name="dcaron.smcp" unicode="&#xe239;" horiz-adv-x="530" 
d="M112 43h89c137 0 231 71 231 244c0 105 -63 151 -163 151h-88zM191 0h-139l84 481h136c129 0 214 -59 214 -192c0 -201 -118 -289 -295 -289zM316 550h-29l-91 136h53l35 -54c15 -23 21 -40 21 -40h3s12 17 36 41l54 53h57z" />
    <glyph glyph-name="dcaron.smcp" unicode="&#xf645;" horiz-adv-x="530" 
d="M112 43h89c137 0 231 71 231 244c0 105 -63 151 -163 151h-88zM191 0h-139l84 481h136c129 0 214 -59 214 -192c0 -201 -118 -289 -295 -289zM316 550h-29l-91 136h53l35 -54c15 -23 21 -40 21 -40h3s12 17 36 41l54 53h57z" />
    <glyph glyph-name="dcedilla" unicode="&#x1e11;" horiz-adv-x="512" 
d="M290 -124c0 -52 -44 -81 -98 -81c-41 0 -70 17 -86 40l19 32c16 -25 38 -38 67 -38c32 0 54 17 54 47c0 31 -25 48 -75 50l24 65c-91 1 -153 65 -153 187c0 161 89 293 225 293c73 0 122 -41 132 -107l53 304h50l-101 -579c-2 -9 -3 -17 -3 -25c0 -18 8 -29 28 -29
c9 0 18 2 31 7l-8 -39c-11 -5 -24 -8 -40 -8c-40 0 -60 23 -60 61c0 4 0 12 6 46c-20 -60 -69 -101 -129 -109l-16 -39c49 -8 80 -31 80 -78zM368 196l14 72c14 82 -23 161 -112 161c-106 0 -179 -107 -179 -247c0 -90 41 -148 117 -148c81 0 144 65 160 162z" />
    <glyph glyph-name="dcedilla.smcp" unicode="&#xe23a;" horiz-adv-x="530" 
d="M279 -124c0 -52 -44 -81 -98 -81c-41 0 -69 17 -85 40l19 32c15 -25 38 -38 66 -38c32 0 54 17 54 47c0 31 -25 48 -75 50l29 74h-137l84 481h136c129 0 214 -59 214 -192c0 -191 -106 -280 -267 -289l-19 -46c48 -8 79 -31 79 -78zM112 43h89c137 0 231 71 231 244
c0 105 -63 151 -163 151h-88z" />
    <glyph glyph-name="dcroat" unicode="&#x111;" horiz-adv-x="512" 
d="M272 541l8 41h156l16 86h50l-16 -86h74l-8 -41h-73l-78 -452c-2 -9 -3 -17 -3 -25c0 -18 8 -29 28 -29c9 0 18 2 31 7l-8 -39c-11 -5 -24 -8 -40 -8c-40 0 -60 23 -60 61c0 4 0 12 6 46c-23 -70 -86 -111 -158 -111c-91 0 -155 64 -155 187c0 161 89 293 225 293
c73 0 122 -41 132 -107l30 177h-157zM368 196l14 72c14 82 -23 161 -112 161c-106 0 -179 -107 -179 -247c0 -90 41 -148 117 -148c81 0 144 65 160 162z" />
    <glyph glyph-name="dcroat.smcp" unicode="&#xe23c;" horiz-adv-x="535" 
d="M196 0h-139l38 221h-68l7 44h69l38 216h135c130 0 214 -59 214 -192c0 -201 -118 -289 -294 -289zM116 43h89c138 0 232 71 232 244c0 105 -64 151 -164 151h-88l-31 -173h127l-8 -44h-126z" />
    <glyph glyph-name="dcroat.smcp" unicode="&#xf646;" horiz-adv-x="535" 
d="M196 0h-139l38 221h-68l7 44h69l38 216h135c130 0 214 -59 214 -192c0 -201 -118 -289 -294 -289zM116 43h89c138 0 232 71 232 244c0 105 -64 151 -164 151h-88l-31 -173h127l-8 -44h-126z" />
    <glyph glyph-name="ddotbelow" unicode="&#x1e0d;" horiz-adv-x="512" 
d="M368 196l14 72c14 82 -23 161 -112 161c-106 0 -179 -107 -179 -247c0 -90 41 -148 117 -148c81 0 144 65 160 162zM355 102c-23 -70 -86 -111 -158 -111c-91 0 -155 64 -155 187c0 161 89 293 225 293c73 0 122 -41 132 -107l53 304h50l-101 -579c-2 -9 -3 -17 -3 -25
c0 -18 8 -29 28 -29c9 0 18 2 31 7l-8 -39c-11 -5 -24 -8 -40 -8c-40 0 -60 23 -60 61c0 5 0 10 6 46zM151 -139c0 22 16 39 37 39c22 0 39 -17 39 -39c0 -21 -17 -38 -39 -38c-21 0 -37 17 -37 38z" />
    <glyph glyph-name="ddotbelow.smcp" unicode="&#xe23b;" horiz-adv-x="530" 
d="M112 43h89c137 0 231 71 231 244c0 105 -63 151 -163 151h-88zM191 0h-139l84 481h136c129 0 214 -59 214 -192c0 -201 -118 -289 -295 -289zM142 -139c0 22 17 39 38 39c22 0 38 -17 38 -39c0 -21 -16 -38 -38 -38c-21 0 -38 17 -38 38z" />
    <glyph glyph-name="degree" unicode="&#xb0;" horiz-adv-x="259" 
d="M149 427c44 0 74 35 74 78c0 40 -23 67 -63 67c-46 0 -76 -35 -76 -78c0 -41 23 -67 65 -67zM145 397c-63 0 -94 42 -94 94c0 60 44 110 112 110c60 0 94 -42 94 -93c0 -62 -45 -111 -112 -111z" />
    <glyph glyph-name="divide" unicode="&#xf7;" horiz-adv-x="496" 
d="M49 265h408l-6 -34h-408zM245 415c0 20 15 36 34 36s35 -16 35 -36c0 -19 -16 -34 -35 -34s-34 15 -34 34zM176 74c0 19 15 35 34 35s35 -16 35 -35s-16 -34 -35 -34s-34 15 -34 34z" />
    <glyph glyph-name="divide.cap" unicode="&#xe594;" horiz-adv-x="496" 
d="M49 318h408l-6 -34h-408zM245 468c0 20 15 36 34 36s35 -16 35 -36c0 -19 -16 -34 -35 -34s-34 15 -34 34zM176 126c0 20 15 35 34 35s35 -15 35 -35c0 -19 -16 -34 -35 -34s-34 15 -34 34z" />
    <glyph glyph-name="dollar" unicode="$" horiz-adv-x="445" 
d="M28 127l45 10c0 -66 46 -100 99 -108l35 199c-75 28 -117 62 -117 128c0 88 68 132 162 134l15 84h36l-15 -86c78 -9 121 -53 121 -125l-46 -8c-1 53 -30 86 -82 94l-32 -186c80 -30 118 -70 118 -135c0 -92 -68 -135 -166 -137l-17 -97h-36l17 99
c-81 9 -137 57 -137 134zM319 122c0 43 -23 70 -79 94l-33 -189c65 2 112 31 112 95zM137 363c0 -47 27 -67 78 -88l30 176c-65 -3 -108 -31 -108 -88z" />
    <glyph glyph-name="dollar.LP" unicode="&#xe522;" horiz-adv-x="458" 
d="M16 151l49 9c0 -76 40 -117 109 -126l44 251c-78 29 -134 61 -134 152c0 118 97 161 183 161h6l15 86h36l-16 -89c84 -10 133 -55 135 -151l-50 -8c-1 69 -34 107 -92 118l-41 -231c84 -34 135 -74 135 -163c0 -115 -85 -167 -193 -169l-17 -97h-36l17 99
c-95 9 -150 62 -150 158zM342 155c0 58 -29 90 -91 118l-42 -241c78 2 133 40 133 123zM135 443c0 -60 31 -82 92 -107l38 221h-1c-75 0 -129 -39 -129 -114z" />
    <glyph glyph-name="dotlessi" unicode="&#x131;" horiz-adv-x="218" 
d="M169 462l-65 -373c-2 -9 -3 -17 -3 -25c0 -18 8 -29 28 -29c9 0 18 2 31 7l-8 -39c-11 -5 -24 -8 -40 -8c-43 0 -62 23 -62 60c0 9 1 17 3 29l65 378h51z" />
    <glyph glyph-name="dotlessj" unicode="&#x237;" horiz-adv-x="204" 
d="M24 -86l97 548h51l-97 -547c-15 -87 -55 -126 -124 -126c-34 0 -64 13 -79 28l19 41c19 -17 36 -27 63 -27c39 0 60 26 70 83z" />
    <glyph glyph-name="doublebar" unicode="&#x2016;" horiz-adv-x="350" 
d="M64 -203h-46l153 872h46zM182 -203h-46l153 872h46z" />
    <glyph glyph-name="doublebar.cap" unicode="&#xe464;" horiz-adv-x="349" 
d="M85 -78h-46l131 745h46zM203 -78h-46l131 745h46z" />
    <glyph glyph-name="doublebar.smcp" unicode="&#xe46a;" horiz-adv-x="339" 
d="M84 -78h-46l112 637h46zM202 -78h-46l112 637h46z" />
    <glyph glyph-name="e" unicode="e" horiz-adv-x="451" 
d="M348 125l46 -12c-28 -85 -88 -122 -176 -122c-113 0 -176 71 -176 193c0 168 95 287 221 287c109 0 153 -73 153 -158c0 -31 -6 -61 -19 -85h-305c-2 -13 -3 -27 -3 -40c0 -92 41 -156 129 -156c76 0 111 34 130 93zM261 429c-90 0 -143 -73 -163 -159h262
c5 12 7 29 7 44c0 64 -32 115 -106 115z" />
    <glyph glyph-name="e.smcp" unicode="&#xe205;" horiz-adv-x="446" 
d="M365 44l-8 -44h-305l84 481h305l-7 -44h-253l-31 -177h224l-9 -45h-223l-30 -171h253z" />
    <glyph glyph-name="e.smcp" unicode="&#xf765;" horiz-adv-x="446" 
d="M365 44l-8 -44h-305l84 481h305l-7 -44h-253l-31 -177h224l-9 -45h-223l-30 -171h253z" />
    <glyph glyph-name="e.superior" unicode="&#xe365;" horiz-adv-x="323" 
d="M277 376l40 -10c-22 -59 -66 -84 -131 -84c-80 0 -124 47 -124 127c0 114 70 191 158 191c81 0 113 -49 113 -107c0 -20 -6 -41 -16 -59h-212c-1 -7 -1 -14 -1 -21c0 -58 27 -97 84 -97c51 0 75 22 89 60zM218 565c-54 0 -94 -42 -106 -96h174c2 7 4 17 4 25
c0 40 -22 71 -72 71z" />
    <glyph glyph-name="eacute" unicode="&#xe9;" horiz-adv-x="451" 
d="M348 125l46 -12c-28 -85 -88 -122 -176 -122c-113 0 -176 71 -176 193c0 168 95 287 221 287c109 0 153 -73 153 -158c0 -31 -6 -61 -19 -85h-305c-2 -13 -3 -27 -3 -40c0 -92 41 -156 129 -156c76 0 111 34 130 93zM261 429c-90 0 -143 -73 -163 -159h262
c5 12 7 29 7 44c0 64 -32 115 -106 115zM286 533h-43l80 136h71z" />
    <glyph glyph-name="eacute.smcp" unicode="&#xe23d;" horiz-adv-x="446" 
d="M365 44l-8 -44h-305l84 481h305l-7 -44h-253l-31 -177h224l-9 -45h-223l-30 -171h253zM313 550h-43l80 136h71z" />
    <glyph glyph-name="eacute.smcp" unicode="&#xf7e9;" horiz-adv-x="446" 
d="M365 44l-8 -44h-305l84 481h305l-7 -44h-253l-31 -177h224l-9 -45h-223l-30 -171h253zM313 550h-43l80 136h71z" />
    <glyph glyph-name="ebreve" unicode="&#x115;" horiz-adv-x="451" 
d="M348 125l46 -12c-28 -85 -88 -122 -176 -122c-113 0 -176 71 -176 193c0 168 95 287 221 287c109 0 153 -73 153 -158c0 -31 -6 -61 -19 -85h-305c-2 -13 -3 -27 -3 -40c0 -92 41 -156 129 -156c76 0 111 34 130 93zM261 429c-90 0 -143 -73 -163 -159h262
c5 12 7 29 7 44c0 64 -32 115 -106 115zM276 530c-65 0 -100 35 -100 95c0 11 1 21 3 33h41c-1 -9 -1 -16 -1 -25c0 -40 18 -63 63 -63c55 0 82 32 96 88h41c-14 -81 -67 -128 -143 -128z" />
    <glyph glyph-name="ebreve.smcp" unicode="&#xe243;" horiz-adv-x="446" 
d="M365 44l-8 -44h-305l84 481h305l-7 -44h-253l-31 -177h224l-9 -45h-223l-30 -171h253zM292 548c-65 0 -101 35 -101 95c0 10 1 21 3 33h42c-1 -10 -1 -16 -1 -25c0 -40 18 -63 62 -63c56 0 83 32 96 88h42c-15 -82 -67 -128 -143 -128z" />
    <glyph glyph-name="ebreve.smcp" unicode="&#xf62a;" horiz-adv-x="446" 
d="M365 44l-8 -44h-305l84 481h305l-7 -44h-253l-31 -177h224l-9 -45h-223l-30 -171h253zM292 548c-65 0 -101 35 -101 95c0 10 1 21 3 33h42c-1 -10 -1 -16 -1 -25c0 -40 18 -63 62 -63c56 0 83 32 96 88h42c-15 -82 -67 -128 -143 -128z" />
    <glyph glyph-name="ecaron" unicode="&#x11b;" horiz-adv-x="451" 
d="M348 125l46 -12c-28 -85 -88 -122 -176 -122c-113 0 -176 71 -176 193c0 168 95 287 221 287c109 0 153 -73 153 -158c0 -31 -6 -61 -19 -85h-305c-2 -13 -3 -27 -3 -40c0 -92 41 -156 129 -156c76 0 111 34 130 93zM261 429c-90 0 -143 -73 -163 -159h262
c5 12 7 29 7 44c0 64 -32 115 -106 115zM283 533h-29l-91 136h53l35 -54c15 -24 21 -41 21 -41h4s11 17 36 42l53 53h57z" />
    <glyph glyph-name="ecaron.smcp" unicode="&#xe241;" horiz-adv-x="446" 
d="M365 44l-8 -44h-305l84 481h305l-7 -44h-253l-31 -177h224l-9 -45h-223l-30 -171h253zM310 550h-28l-92 136h53l36 -54c15 -23 21 -40 21 -40h3s11 17 36 41l54 53h56z" />
    <glyph glyph-name="ecaron.smcp" unicode="&#xf647;" horiz-adv-x="446" 
d="M365 44l-8 -44h-305l84 481h305l-7 -44h-253l-31 -177h224l-9 -45h-223l-30 -171h253zM310 550h-28l-92 136h53l36 -54c15 -23 21 -40 21 -40h3s11 17 36 41l54 53h56z" />
    <glyph glyph-name="ecircumflex" unicode="&#xea;" horiz-adv-x="451" 
d="M348 125l46 -12c-28 -85 -88 -122 -176 -122c-113 0 -176 71 -176 193c0 168 95 287 221 287c109 0 153 -73 153 -158c0 -31 -6 -61 -19 -85h-305c-2 -13 -3 -27 -3 -40c0 -92 41 -156 129 -156c76 0 111 34 130 93zM261 429c-90 0 -143 -73 -163 -159h262
c5 12 7 29 7 44c0 64 -32 115 -106 115zM285 669h29l92 -136h-54l-35 54c-15 23 -21 40 -21 40h-3s-12 -17 -36 -41l-54 -53h-56z" />
    <glyph glyph-name="ecircumflex.smcp" unicode="&#xe23f;" horiz-adv-x="446" 
d="M365 44l-8 -44h-305l84 481h305l-7 -44h-253l-31 -177h224l-9 -45h-223l-30 -171h253zM302 686h28l92 -136h-54l-35 54c-15 24 -21 41 -21 41h-3s-12 -17 -36 -42l-54 -53h-56z" />
    <glyph glyph-name="ecircumflex.smcp" unicode="&#xf7ea;" horiz-adv-x="446" 
d="M365 44l-8 -44h-305l84 481h305l-7 -44h-253l-31 -177h224l-9 -45h-223l-30 -171h253zM302 686h28l92 -136h-54l-35 54c-15 24 -21 41 -21 41h-3s-12 -17 -36 -42l-54 -53h-56z" />
    <glyph glyph-name="edieresis" unicode="&#xeb;" horiz-adv-x="451" 
d="M348 125l46 -12c-28 -85 -88 -122 -176 -122c-113 0 -176 71 -176 193c0 168 95 287 221 287c109 0 153 -73 153 -158c0 -31 -6 -61 -19 -85h-305c-2 -13 -3 -27 -3 -40c0 -92 41 -156 129 -156c76 0 111 34 130 93zM261 429c-90 0 -143 -73 -163 -159h262
c5 12 7 29 7 44c0 64 -32 115 -106 115zM156 595c0 21 17 38 38 38s38 -17 38 -38s-17 -38 -38 -38s-38 17 -38 38zM328 594c0 22 16 38 37 38c22 0 38 -16 38 -38c0 -20 -16 -37 -38 -37c-21 0 -37 17 -37 37z" />
    <glyph glyph-name="edieresis.smcp" unicode="&#xe230;" horiz-adv-x="446" 
d="M365 44l-8 -44h-305l84 481h305l-7 -44h-253l-31 -177h224l-9 -45h-223l-30 -171h253zM183 613c0 21 17 38 38 38c22 0 38 -17 38 -38s-16 -38 -38 -38c-21 0 -38 17 -38 38zM355 612c0 22 17 38 38 38s37 -16 37 -38c0 -21 -16 -38 -37 -38s-38 17 -38 38z" />
    <glyph glyph-name="edieresis.smcp" unicode="&#xf7eb;" horiz-adv-x="446" 
d="M365 44l-8 -44h-305l84 481h305l-7 -44h-253l-31 -177h224l-9 -45h-223l-30 -171h253zM183 613c0 21 17 38 38 38c22 0 38 -17 38 -38s-16 -38 -38 -38c-21 0 -38 17 -38 38zM355 612c0 22 17 38 38 38s37 -16 37 -38c0 -21 -16 -38 -37 -38s-38 17 -38 38z" />
    <glyph glyph-name="edotaccent" unicode="&#x117;" horiz-adv-x="451" 
d="M348 125l46 -12c-28 -85 -88 -122 -176 -122c-113 0 -176 71 -176 193c0 168 95 287 221 287c109 0 153 -73 153 -158c0 -31 -6 -61 -19 -85h-305c-2 -13 -3 -27 -3 -40c0 -92 41 -156 129 -156c76 0 111 34 130 93zM261 429c-90 0 -143 -73 -163 -159h262
c5 12 7 29 7 44c0 64 -32 115 -106 115zM251 604c0 22 16 39 37 39c22 0 39 -17 39 -39c0 -21 -17 -37 -39 -37c-21 0 -37 16 -37 37z" />
    <glyph glyph-name="edotaccent.smcp" unicode="&#xe246;" horiz-adv-x="446" 
d="M365 44l-8 -44h-305l84 481h305l-7 -44h-253l-31 -177h224l-9 -45h-223l-30 -171h253zM267 622c0 22 16 39 37 39c22 0 39 -17 39 -39c0 -21 -17 -38 -39 -38c-21 0 -37 17 -37 38z" />
    <glyph glyph-name="edotaccent.smcp" unicode="&#xf648;" horiz-adv-x="446" 
d="M365 44l-8 -44h-305l84 481h305l-7 -44h-253l-31 -177h224l-9 -45h-223l-30 -171h253zM267 622c0 22 16 39 37 39c22 0 39 -17 39 -39c0 -21 -17 -38 -39 -38c-21 0 -37 17 -37 38z" />
    <glyph glyph-name="edoublegrave" unicode="&#x201;" horiz-adv-x="451" 
d="M348 125l46 -12c-28 -85 -88 -122 -176 -122c-113 0 -176 71 -176 193c0 168 95 287 221 287c109 0 153 -73 153 -158c0 -31 -6 -61 -19 -85h-305c-2 -13 -3 -27 -3 -40c0 -92 41 -156 129 -156c76 0 111 34 130 93zM261 429c-90 0 -143 -73 -163 -159h262
c5 12 7 29 7 44c0 64 -32 115 -106 115zM231 533h-40l-89 136h67zM353 533h-39l-84 136h66z" />
    <glyph glyph-name="edoublegrave" unicode="&#x205;" horiz-adv-x="451" 
d="M348 125l46 -12c-28 -85 -88 -122 -176 -122c-113 0 -176 71 -176 193c0 168 95 287 221 287c109 0 153 -73 153 -158c0 -31 -6 -61 -19 -85h-305c-2 -13 -3 -27 -3 -40c0 -92 41 -156 129 -156c76 0 111 34 130 93zM261 429c-90 0 -143 -73 -163 -159h262
c5 12 7 29 7 44c0 64 -32 115 -106 115zM231 533h-40l-89 136h67zM353 533h-39l-84 136h66z" />
    <glyph glyph-name="edoublegrave.smcp" unicode="&#xe245;" horiz-adv-x="446" 
d="M365 44l-8 -44h-305l84 481h305l-7 -44h-253l-31 -177h224l-9 -45h-223l-30 -171h253zM257 550h-40l-89 136h67zM379 550h-38l-84 136h66z" />
    <glyph glyph-name="egrave" unicode="&#xe8;" horiz-adv-x="451" 
d="M348 125l46 -12c-28 -85 -88 -122 -176 -122c-113 0 -176 71 -176 193c0 168 95 287 221 287c109 0 153 -73 153 -158c0 -31 -6 -61 -19 -85h-305c-2 -13 -3 -27 -3 -40c0 -92 41 -156 129 -156c76 0 111 34 130 93zM261 429c-90 0 -143 -73 -163 -159h262
c5 12 7 29 7 44c0 64 -32 115 -106 115zM296 533h-42l-89 136h69z" />
    <glyph glyph-name="egrave.smcp" unicode="&#xe23e;" horiz-adv-x="446" 
d="M365 44l-8 -44h-305l84 481h305l-7 -44h-253l-31 -177h224l-9 -45h-223l-30 -171h253zM324 550h-43l-89 136h70z" />
    <glyph glyph-name="egrave.smcp" unicode="&#xf7e8;" horiz-adv-x="446" 
d="M365 44l-8 -44h-305l84 481h305l-7 -44h-253l-31 -177h224l-9 -45h-223l-30 -171h253zM324 550h-43l-89 136h70z" />
    <glyph glyph-name="eight" unicode="8" horiz-adv-x="479" 
d="M285 598c94 0 167 -56 167 -147c0 -87 -63 -142 -135 -154v-4c63 -17 102 -68 102 -134c0 -116 -93 -168 -204 -168c-109 0 -187 56 -187 150c0 92 63 147 147 159l1 4c-51 15 -87 60 -87 121c0 112 87 173 196 173zM218 33c87 0 150 45 150 128c0 75 -62 116 -136 116
c-86 0 -150 -49 -150 -131c0 -74 60 -113 136 -113zM143 428c0 -67 48 -108 116 -108c84 0 138 51 138 130c0 62 -45 106 -117 106c-83 0 -137 -51 -137 -128z" />
    <glyph glyph-name="eight.LP" unicode="&#xe53d;" horiz-adv-x="487" 
d="M289 598c94 0 167 -56 167 -147c0 -87 -63 -142 -134 -154l-1 -4c63 -17 103 -68 103 -134c0 -116 -94 -168 -205 -168c-109 0 -187 56 -187 150c0 92 63 147 148 159v4c-51 15 -87 60 -87 121c0 112 87 173 196 173zM222 33c87 0 150 45 150 128c0 75 -62 116 -135 116
c-86 0 -151 -49 -151 -131c0 -74 60 -113 136 -113zM148 428c0 -67 47 -108 115 -108c84 0 138 51 138 130c0 62 -45 106 -117 106c-83 0 -136 -51 -136 -128z" />
    <glyph glyph-name="eight.LT" unicode="&#xe548;" horiz-adv-x="570" 
d="M321 598c94 0 167 -56 167 -147c0 -87 -63 -142 -134 -154l-1 -4c63 -17 103 -68 103 -134c0 -116 -94 -168 -205 -168c-109 0 -187 56 -187 150c0 92 63 147 148 159v4c-51 15 -87 60 -87 121c0 112 87 173 196 173zM254 33c87 0 150 45 150 128c0 75 -62 116 -135 116
c-86 0 -151 -49 -151 -131c0 -74 60 -113 136 -113zM180 428c0 -67 47 -108 115 -108c84 0 138 51 138 130c0 62 -45 106 -117 106c-83 0 -136 -51 -136 -128z" />
    <glyph glyph-name="eight.OP" unicode="&#xe553;" horiz-adv-x="469" 
d="M276 598c100 0 166 -57 166 -143c0 -94 -61 -144 -133 -157v-4c64 -20 101 -66 101 -135c0 -108 -91 -168 -205 -168c-110 0 -182 57 -182 152c0 91 67 149 146 160v4c-48 20 -83 61 -83 122c0 112 88 169 190 169zM208 32c84 0 150 44 150 130c0 72 -56 117 -134 117
c-80 0 -150 -47 -150 -133c0 -72 55 -114 134 -114zM138 430c0 -65 47 -110 114 -110c76 0 139 44 139 130c0 63 -45 109 -119 109c-77 0 -134 -45 -134 -129z" />
    <glyph glyph-name="eight.OT" unicode="&#xe55e;" horiz-adv-x="570" 
d="M330 598c100 0 166 -57 166 -143c0 -94 -61 -144 -133 -157v-4c64 -20 101 -66 101 -135c0 -108 -90 -168 -204 -168c-111 0 -183 57 -183 152c0 91 68 149 147 160v4c-49 20 -83 61 -83 122c0 112 87 169 189 169zM263 32c83 0 149 44 149 130c0 72 -55 117 -133 117
c-81 0 -151 -47 -151 -133c0 -72 55 -114 135 -114zM192 430c0 -65 47 -110 114 -110c76 0 139 44 139 130c0 63 -45 109 -118 109c-78 0 -135 -45 -135 -129z" />
    <glyph glyph-name="eight.inf" unicode="&#xe579;" horiz-adv-x="316" 
d="M141 157c67 0 108 -34 108 -86c0 -56 -37 -86 -83 -94v-3c40 -13 64 -39 64 -81c0 -64 -59 -102 -134 -102c-72 0 -117 35 -117 91c0 54 41 89 91 97v3c-31 12 -54 37 -54 73c0 66 59 102 125 102zM100 -178c47 0 86 25 86 74c0 40 -30 64 -76 64c-45 0 -86 -25 -86 -73
c0 -41 30 -65 76 -65zM58 52c0 -35 28 -59 67 -59c43 0 81 23 81 71c0 34 -26 59 -69 59c-44 0 -79 -24 -79 -71z" />
    <glyph glyph-name="einvertedbreve" unicode="&#x207;" horiz-adv-x="451" 
d="M348 125l46 -12c-28 -85 -88 -122 -176 -122c-113 0 -176 71 -176 193c0 168 95 287 221 287c109 0 153 -73 153 -158c0 -31 -6 -61 -19 -85h-305c-2 -13 -3 -27 -3 -40c0 -92 41 -156 129 -156c76 0 111 34 130 93zM261 429c-90 0 -143 -73 -163 -159h262
c5 12 7 29 7 44c0 64 -32 115 -106 115zM300 661c65 0 101 -35 101 -96c0 -11 -1 -21 -3 -33h-42c1 10 2 17 2 26c0 39 -19 63 -63 63c-56 0 -83 -33 -96 -89h-42c15 82 67 129 143 129z" />
    <glyph glyph-name="einvertedbreve.smcp" unicode="&#xe244;" horiz-adv-x="446" 
d="M365 44l-8 -44h-305l84 481h305l-7 -44h-253l-31 -177h224l-9 -45h-223l-30 -171h253zM316 679c66 0 101 -35 101 -96c0 -11 -1 -21 -3 -33h-42c1 10 2 16 2 25c0 40 -19 64 -63 64c-55 0 -82 -33 -96 -89h-42c15 82 67 129 143 129z" />
    <glyph glyph-name="ellipsis" unicode="&#x2026;" horiz-adv-x="739" 
d="M47 39c0 24 18 42 43 42c24 0 42 -18 42 -42s-18 -42 -42 -42c-25 0 -43 18 -43 42zM294 39c0 24 18 42 42 42s42 -18 42 -42s-18 -42 -42 -42s-42 18 -42 42zM540 39c0 24 18 42 42 42s42 -18 42 -42s-18 -42 -42 -42s-42 18 -42 42z" />
    <glyph glyph-name="emacron" unicode="&#x113;" horiz-adv-x="451" 
d="M348 125l46 -12c-28 -85 -88 -122 -180 -122c-109 0 -172 71 -172 193c0 168 95 287 221 287c109 0 153 -73 153 -158c0 -31 -6 -61 -19 -85h-305c-2 -13 -3 -27 -3 -40c0 -92 41 -156 129 -156c76 0 111 34 130 93zM261 429c-90 0 -143 -73 -163 -159h262
c5 12 7 29 7 44c0 64 -32 115 -106 115zM385 564h-222l8 43h221z" />
    <glyph glyph-name="emacron.smcp" unicode="&#xe242;" horiz-adv-x="446" 
d="M365 44l-8 -44h-305l84 481h305l-7 -44h-253l-31 -177h224l-9 -45h-223l-30 -171h253zM413 582h-222l7 42h222z" />
    <glyph glyph-name="emacron.smcp" unicode="&#xf649;" horiz-adv-x="446" 
d="M365 44l-8 -44h-305l84 481h305l-7 -44h-253l-31 -177h224l-9 -45h-223l-30 -171h253zM413 582h-222l7 42h222z" />
    <glyph glyph-name="emdash" unicode="&#x2014;" horiz-adv-x="1014" 
d="M72 240l8 39h860l-8 -39h-860z" />
    <glyph glyph-name="emdash.cap" unicode="&#xe486;" horiz-adv-x="1014" 
d="M75 271l7 39h860l-7 -39h-860z" />
    <glyph glyph-name="emspace" unicode="&#x2003;" horiz-adv-x="900" 
 />
    <glyph glyph-name="endash" unicode="&#x2013;" horiz-adv-x="514" 
d="M72 240l8 39h360l-8 -39h-360z" />
    <glyph glyph-name="endash.cap" unicode="&#xe484;" horiz-adv-x="514" 
d="M75 271l7 39h360l-7 -39h-360z" />
    <glyph glyph-name="eng" unicode="&#x14b;" horiz-adv-x="488" 
d="M309 -86l69 392c3 19 5 33 5 46c0 46 -26 75 -79 75c-69 0 -145 -54 -166 -173l-44 -254h-50l80 462h44l-12 -108c29 68 83 117 160 117c71 0 118 -37 118 -109c0 -14 -2 -34 -6 -57l-67 -390c-15 -87 -56 -126 -125 -126c-33 0 -63 13 -78 28l18 41
c19 -17 37 -27 64 -27c38 0 59 26 69 83z" />
    <glyph glyph-name="eng.smcp" unicode="&#xe32b;" horiz-adv-x="567" 
d="M134 -148l35 35c18 -44 52 -72 99 -72c64 0 94 32 110 117l12 63l-167 318c-28 53 -48 106 -48 106h-3s-6 -63 -17 -124l-51 -295h-52l84 481h58l165 -320c27 -54 41 -95 41 -95h3s10 58 21 120l51 295h52l-97 -555c-21 -116 -78 -153 -163 -153c-72 0 -115 38 -133 79z
" />
    <glyph glyph-name="eng.smcp" unicode="&#xf62b;" horiz-adv-x="567" 
d="M134 -148l35 35c18 -44 52 -72 99 -72c64 0 94 32 110 117l12 63l-167 318c-28 53 -48 106 -48 106h-3s-6 -63 -17 -124l-51 -295h-52l84 481h58l165 -320c27 -54 41 -95 41 -95h3s10 58 21 120l51 295h52l-97 -555c-21 -116 -78 -153 -163 -153c-72 0 -115 38 -133 79z
" />
    <glyph glyph-name="enspace" unicode="&#x2002;" horiz-adv-x="450" 
 />
    <glyph glyph-name="eogonek" unicode="&#x119;" horiz-adv-x="451" 
d="M296 -125l21 -25c-17 -27 -44 -48 -91 -48c-52 0 -80 28 -80 75c0 46 27 86 67 115c-9 0 -17 1 -26 2c-93 11 -145 78 -145 190c0 168 95 287 221 287c109 0 153 -73 153 -158c0 -31 -6 -61 -19 -85h-305c-2 -13 -3 -27 -3 -40c0 -92 41 -156 129 -156
c76 0 111 34 130 93l46 -12c-21 -64 -61 -94 -117 -115c-51 -21 -85 -68 -85 -117c0 -27 16 -43 42 -43c29 0 46 14 62 37zM261 429c-90 0 -143 -73 -163 -159h262c5 12 7 29 7 44c0 64 -32 115 -106 115z" />
    <glyph glyph-name="eogonek.smcp" unicode="&#xe249;" horiz-adv-x="446" 
d="M329 -128l21 -25c-17 -27 -44 -48 -90 -48c-53 0 -80 28 -80 75c0 51 37 98 86 126h-214l84 481h305l-7 -44h-253l-31 -177h224l-9 -45h-223l-30 -171h253l-8 -44c-75 -15 -131 -60 -131 -122c0 -27 15 -42 42 -42c29 0 46 13 61 36z" />
    <glyph glyph-name="eogonek.smcp" unicode="&#xf64a;" horiz-adv-x="446" 
d="M329 -128l21 -25c-17 -27 -44 -48 -90 -48c-53 0 -80 28 -80 75c0 51 37 98 86 126h-214l84 481h305l-7 -44h-253l-31 -177h224l-9 -45h-223l-30 -171h253l-8 -44c-75 -15 -131 -60 -131 -122c0 -27 15 -42 42 -42c29 0 46 13 61 36z" />
    <glyph glyph-name="equal" unicode="=" 
d="M45 198h408l-6 -34h-408zM67 326h408l-6 -35h-408z" />
    <glyph glyph-name="equal.cap" unicode="&#xe595;" 
d="M45 251h408l-6 -35h-408zM67 378h408l-6 -34h-408z" />
    <glyph glyph-name="equal.inf" unicode="&#xe57d;" horiz-adv-x="451" 
d="M-16 -89l6 31h355l-6 -31h-355zM5 25l5 30h355l-5 -30h-355z" />
    <glyph glyph-name="estimated" unicode="&#x212e;" horiz-adv-x="647" 
d="M323 600c196 0 279 -151 279 -306v-26h-431v-168c37 -36 88 -58 152 -58c89 0 149 37 184 103h66c-38 -91 -119 -156 -250 -156c-194 0 -278 151 -278 305c0 155 84 306 278 306zM323 547c-64 0 -115 -21 -152 -58v-169h304v169c-37 37 -87 58 -152 58z" />
    <glyph glyph-name="eth" unicode="&#xf0;" horiz-adv-x="479" 
d="M142 505l-7 29l142 36c-42 33 -94 58 -159 74l37 28c70 -19 128 -47 173 -88l91 23l8 -30l-74 -19c55 -64 84 -154 84 -275c0 -161 -78 -292 -225 -292c-104 0 -170 65 -170 190c0 148 78 284 219 284c54 0 102 -26 121 -70h3c-14 60 -40 111 -80 151zM217 31
c110 0 170 117 170 240c0 103 -46 151 -125 151c-109 0 -170 -114 -170 -236c0 -103 47 -155 125 -155z" />
    <glyph glyph-name="eth.smcp" unicode="&#xe32c;" horiz-adv-x="535" 
d="M196 0h-139l38 221h-68l7 44h69l38 216h135c130 0 214 -59 214 -192c0 -201 -118 -289 -294 -289zM116 43h89c138 0 232 71 232 244c0 105 -64 151 -164 151h-88l-31 -173h127l-8 -44h-126z" />
    <glyph glyph-name="eth.smcp" unicode="&#xf7f0;" horiz-adv-x="535" 
d="M196 0h-139l38 221h-68l7 44h69l38 216h135c130 0 214 -59 214 -192c0 -201 -118 -289 -294 -289zM116 43h89c138 0 232 71 232 244c0 105 -64 151 -164 151h-88l-31 -173h127l-8 -44h-126z" />
    <glyph glyph-name="exclam" unicode="!" horiz-adv-x="219" 
d="M141 589h66l-89 -423h-36zM40 36c0 23 17 40 40 40c22 0 39 -17 39 -40c0 -22 -17 -39 -39 -39c-23 0 -40 17 -40 39z" />
    <glyph glyph-name="exclam.smcp" unicode="&#xe442;" horiz-adv-x="229" 
d="M130 481h65l-78 -338h-36zM40 36c0 23 17 40 39 40c23 0 40 -17 40 -40c0 -22 -17 -39 -40 -39c-22 0 -39 17 -39 39z" />
    <glyph glyph-name="exclam.smcp" unicode="&#xf721;" horiz-adv-x="229" 
d="M130 481h65l-78 -338h-36zM40 36c0 23 17 40 39 40c23 0 40 -17 40 -40c0 -22 -17 -39 -40 -39c-22 0 -39 17 -39 39z" />
    <glyph glyph-name="exclamdown" unicode="&#xa1;" horiz-adv-x="219" 
d="M79 -124h-66l89 423h36zM180 428c0 -22 -17 -39 -40 -39c-22 0 -39 17 -39 39c0 23 17 40 39 40c23 0 40 -17 40 -40z" />
    <glyph glyph-name="exclamdown.cap" unicode="&#xe441;" horiz-adv-x="219" 
d="M103 0h-66l89 423h36zM204 553c0 -23 -17 -40 -40 -40c-22 0 -39 17 -39 40c0 22 17 39 39 39c23 0 40 -17 40 -39z" />
    <glyph glyph-name="exclamdown.smcp" unicode="&#xe443;" horiz-adv-x="229" 
d="M114 0h-66l78 338h36zM204 445c0 -23 -17 -40 -40 -40c-22 0 -39 17 -39 40c0 22 17 39 39 39c23 0 40 -17 40 -39z" />
    <glyph glyph-name="exclamdown.smcp" unicode="&#xf7a1;" horiz-adv-x="229" 
d="M114 0h-66l78 338h36zM204 445c0 -23 -17 -40 -40 -40c-22 0 -39 17 -39 40c0 22 17 39 39 39c23 0 40 -17 40 -39z" />
    <glyph glyph-name="ezh" unicode="&#x292;" horiz-adv-x="398" 
d="M119 202l138 146c43 45 69 69 69 69l1 3s-30 -2 -93 -2h-161l8 44h317l-6 -35l-227 -236c101 0 167 -62 167 -154c0 -125 -103 -191 -205 -191c-103 0 -154 59 -154 140l43 10c0 -70 47 -111 114 -111c87 0 152 56 152 151c0 78 -53 124 -169 129z" />
    <glyph glyph-name="ezh.smcp" unicode="&#xe32e;" horiz-adv-x="394" 
d="M114 212l142 156c43 46 67 69 67 69v3s-27 -3 -90 -3h-163l7 44h317l-6 -35l-228 -240v-3c95 -6 168 -66 168 -159c0 -129 -93 -197 -202 -197c-99 0 -166 54 -166 140l46 10c-1 -69 51 -110 122 -110c89 0 149 53 149 152c0 78 -54 131 -170 136z" />
    <glyph glyph-name="ezhcaron" unicode="&#x1ef;" horiz-adv-x="398" 
d="M266 533h-28l-92 136h54l35 -54c15 -24 21 -41 21 -41h3s12 17 36 42l54 53h56zM119 202l138 146c43 46 70 68 69 69l1 3s-30 -2 -93 -2h-161l8 44h317l-6 -35l-227 -236c101 0 167 -62 167 -154c0 -125 -103 -191 -205 -191c-103 0 -154 59 -154 140l43 10
c0 -70 47 -111 114 -111c87 0 152 56 152 151c0 78 -53 124 -169 129z" />
    <glyph glyph-name="ezhcaron.smcp" unicode="&#xe32f;" horiz-adv-x="394" 
d="M114 212l142 156c43 46 67 69 67 69v3s-27 -3 -90 -3h-163l7 44h317l-6 -35l-228 -240v-3c95 -6 168 -66 168 -159c0 -129 -93 -197 -202 -197c-99 0 -166 54 -166 140l46 10c-1 -69 51 -110 122 -110c89 0 149 53 149 152c0 78 -54 131 -170 136zM259 550h-28l-92 136
h53l36 -54c15 -23 21 -40 21 -40h3s11 17 36 41l54 53h56z" />
    <glyph glyph-name="f" unicode="f" horiz-adv-x="264" 
d="M31 -103l92 523h-70l8 42h69l14 71c20 109 71 142 141 142c39 0 71 -12 95 -34l-24 -41c-19 20 -39 31 -69 31c-46 0 -79 -20 -94 -98l-12 -71h116l-7 -42h-117l-91 -524c-14 -75 -45 -107 -105 -107c-33 0 -61 12 -76 28l14 40c18 -17 36 -26 57 -26c35 0 51 21 59 66z
" />
    <glyph glyph-name="f.smcp" unicode="&#xe206;" horiz-adv-x="417" 
d="M104 0h-52l84 481h291l-7 -44h-239l-31 -177h210l-8 -46h-210z" />
    <glyph glyph-name="f.smcp" unicode="&#xf766;" horiz-adv-x="417" 
d="M104 0h-52l84 481h291l-7 -44h-239l-31 -177h210l-8 -46h-210z" />
    <glyph glyph-name="f.superior" unicode="&#xe366;" horiz-adv-x="214" 
d="M66 242l60 319h-50l7 35h50l9 43c14 72 52 96 103 96c30 0 52 -8 72 -24l-20 -33c-16 13 -31 20 -51 20c-30 0 -51 -11 -60 -59l-8 -43h81l-7 -35h-81l-61 -321c-9 -52 -35 -72 -78 -72c-25 0 -46 9 -58 20l12 34c15 -12 28 -18 42 -18c22 0 33 13 38 38z" />
    <glyph glyph-name="figuredash" unicode="&#x2012;" horiz-adv-x="592" 
d="M72 240l8 39h437l-7 -39h-438z" />
    <glyph glyph-name="figuredash.cap" unicode="&#xe487;" horiz-adv-x="592" 
d="M75 271l7 39h438l-8 -39h-437z" />
    <glyph glyph-name="figurespace" unicode="&#x2007;" horiz-adv-x="513" 
 />
    <glyph glyph-name="five" unicode="5" horiz-adv-x="442" 
d="M64 158l70 323h286l-8 -45h-239l-54 -241c20 23 54 41 100 41c99 0 155 -72 155 -164c-1 -139 -95 -210 -211 -210c-107 0 -169 54 -172 140l49 11c4 -77 54 -109 128 -109c81 0 154 49 154 162c0 76 -44 131 -120 131c-45 0 -73 -16 -97 -39h-41z" />
    <glyph glyph-name="five.LP" unicode="&#xe53a;" horiz-adv-x="445" 
d="M84 286l65 303h286l-7 -46h-239l-50 -219c20 23 54 41 100 41c99 0 155 -72 155 -165c-1 -138 -94 -209 -212 -209c-107 0 -173 54 -176 141l50 10c4 -79 59 -110 132 -110c81 0 154 51 154 162c0 77 -44 132 -120 132c-44 0 -73 -16 -96 -40h-42z" />
    <glyph glyph-name="five.LT" unicode="&#xe545;" horiz-adv-x="570" 
d="M139 286l65 303h287l-8 -46h-239l-49 -219c20 23 53 41 100 41c98 0 155 -72 154 -165c0 -138 -93 -209 -212 -209c-106 0 -172 54 -175 141l49 10c4 -79 59 -110 132 -110c81 0 154 51 154 162c0 77 -43 132 -120 132c-44 0 -72 -16 -96 -40h-42z" />
    <glyph glyph-name="five.OP" unicode="&#xe540;" horiz-adv-x="442" 
d="M64 158l70 323h286l-8 -45h-239l-54 -241c20 23 54 41 100 41c99 0 155 -72 155 -164c-1 -139 -95 -210 -211 -210c-107 0 -169 54 -172 140l49 11c4 -77 54 -109 128 -109c81 0 154 49 154 162c0 76 -44 131 -120 131c-45 0 -73 -16 -97 -39h-41z" />
    <glyph glyph-name="five.OT" unicode="&#xe55b;" horiz-adv-x="570" 
d="M131 158l70 323h286l-8 -45h-239l-53 -241c19 23 53 41 99 41c99 0 156 -72 155 -164c0 -139 -94 -210 -211 -210c-106 0 -169 54 -172 140l49 11c4 -77 54 -109 129 -109c81 0 153 49 153 162c0 76 -43 131 -120 131c-44 0 -73 -16 -96 -39h-42z" />
    <glyph glyph-name="five.inf" unicode="&#xe576;" horiz-adv-x="304" 
d="M12 -41l41 191h190l-6 -37h-155l-27 -121c12 16 37 29 68 29c60 0 97 -40 97 -103c0 -83 -57 -127 -132 -127c-71 0 -113 33 -118 88l40 12c4 -48 37 -67 78 -67c53 0 89 32 89 92c0 45 -28 73 -64 73c-34 0 -50 -12 -66 -30h-35z" />
    <glyph glyph-name="florin" unicode="&#x192;" horiz-adv-x="393" 
d="M40 192l13 46h77l32 116c26 100 77 136 145 136c48 0 83 -21 97 -48l-33 -38c-17 31 -36 42 -69 42c-46 0 -71 -27 -89 -91l-32 -117h122l-12 -46h-122l-83 -313h-50l82 313h-78z" />
    <glyph glyph-name="florin.LP" unicode="&#xe525;" horiz-adv-x="375" 
d="M43 307l12 46h78l29 109c26 100 77 136 145 136c48 0 84 -21 98 -48l-34 -38c-16 31 -36 42 -69 42c-46 0 -70 -27 -88 -91l-31 -110h122l-12 -46h-122l-80 -307h-51l80 307h-77z" />
    <glyph glyph-name="four" unicode="4" horiz-adv-x="509" 
d="M268 -131l33 185h-300l6 36l368 391h52l-67 -384h98l-7 -43h-98l-33 -185h-52zM141 97h167l39 227c10 60 21 95 21 95h-3s-24 -32 -75 -88l-155 -167c-43 -47 -68 -67 -68 -67v-3s25 3 74 3z" />
    <glyph glyph-name="four.LP" unicode="&#xe539;" horiz-adv-x="498" 
d="M281 0l28 160h-299l7 38l366 391h53l-67 -384h98l-8 -45h-97l-29 -160h-52zM152 205h165l39 224c10 59 21 95 21 95h-3s-24 -33 -76 -89l-152 -163c-44 -46 -68 -67 -68 -67v-3s24 3 74 3z" />
    <glyph glyph-name="four.LT" unicode="&#xe544;" horiz-adv-x="570" 
d="M306 0l28 160h-299l7 38l367 391h52l-66 -384h98l-9 -45h-97l-29 -160h-52zM177 205h165l39 224c10 59 21 95 21 95h-3s-24 -33 -75 -89l-153 -163c-44 -46 -68 -67 -68 -67v-3s25 3 74 3z" />
    <glyph glyph-name="four.OP" unicode="&#xe54f;" horiz-adv-x="509" 
d="M268 -131l33 185h-300l6 36l368 391h52l-67 -384h98l-7 -43h-98l-33 -185h-52zM141 97h167l39 227c10 60 21 95 21 95h-3s-24 -32 -75 -88l-155 -167c-43 -47 -68 -67 -68 -67v-3s25 3 74 3z" />
    <glyph glyph-name="four.OT" unicode="&#xe55a;" horiz-adv-x="570" 
d="M306 -131l33 185h-300l7 36l367 391h52l-66 -384h98l-8 -43h-98l-33 -185h-52zM179 97h167l39 227c11 60 22 95 22 95h-4s-23 -32 -75 -88l-155 -167c-43 -47 -67 -67 -67 -67v-3s24 3 73 3z" />
    <glyph glyph-name="four.inf" unicode="&#xe575;" horiz-adv-x="332" 
d="M135 -203l16 94h-185l6 35l221 224h47l-39 -225h60l-7 -34h-60l-16 -94h-43zM60 -75h98l22 127c6 35 14 58 14 58h-3s-14 -22 -44 -54l-85 -87c-30 -30 -51 -44 -51 -44v-3s16 3 49 3z" />
    <glyph glyph-name="fourperemspace" unicode="&#x2005;" horiz-adv-x="225" 
 />
    <glyph glyph-name="fraction" unicode="&#x2044;" horiz-adv-x="129" 
d="M-153 0l410 590h42l-409 -590h-43z" />
    <glyph glyph-name="franc" unicode="&#x20a3;" horiz-adv-x="433" 
d="M353 266h-183l-11 -64h182l-6 -36h-182l-29 -166h-52l29 166h-81l6 36h81l11 64h-80l6 36h81l31 179h291l-7 -44h-239l-24 -135h182z" />
    <glyph glyph-name="g" unicode="g" horiz-adv-x="490" 
d="M332 -17l22 118c-25 -67 -82 -110 -155 -110c-92 0 -156 65 -156 187c0 161 90 293 226 293c73 0 121 -41 131 -107l25 98h42l-84 -477c-23 -131 -90 -196 -216 -196c-110 0 -164 51 -171 127l45 15c6 -65 53 -103 129 -103c98 0 144 60 162 155zM369 195l14 73
c14 82 -22 161 -111 161c-108 0 -180 -107 -180 -247c0 -90 41 -148 117 -148c82 0 144 64 160 161z" />
    <glyph glyph-name="g.school" unicode="&#xe161;" horiz-adv-x="456" 
d="M224 153c-24 0 -47 4 -62 10c-37 -10 -57 -29 -57 -60c0 -27 18 -43 60 -43h116c74 0 127 -32 127 -106c0 -127 -131 -165 -246 -165c-106 0 -187 33 -187 121c0 74 62 118 144 123c-35 5 -59 27 -59 65c0 41 29 71 76 78c-40 23 -64 64 -64 119c0 110 86 176 184 176
c53 0 95 -19 123 -51c26 13 47 41 54 81l44 -14c-15 -52 -42 -80 -83 -93c9 -18 14 -37 14 -65c0 -115 -85 -176 -184 -176zM272 14h-105c-78 0 -142 -31 -142 -101c0 -61 58 -85 144 -85c90 0 190 27 190 122c0 40 -28 64 -87 64zM227 191c74 0 133 50 133 135
c-2 67 -45 105 -109 105c-71 0 -129 -49 -129 -132c0 -65 39 -108 105 -108z" />
    <glyph glyph-name="g.smcp" unicode="&#xe207;" 
d="M250 32c76 0 137 55 155 141l4 20h-137l8 43h185l-41 -236h-39l5 88c-24 -57 -74 -97 -150 -97c-111 0 -186 75 -186 202c0 175 101 297 253 297c90 0 142 -44 158 -117l-46 -22c-12 65 -57 96 -119 96c-111 0 -194 -104 -194 -251c0 -99 56 -164 144 -164z" />
    <glyph glyph-name="g.smcp" unicode="&#xf767;" 
d="M250 32c76 0 137 55 155 141l4 20h-137l8 43h185l-41 -236h-39l5 88c-24 -57 -74 -97 -150 -97c-111 0 -186 75 -186 202c0 175 101 297 253 297c90 0 142 -44 158 -117l-46 -22c-12 65 -57 96 -119 96c-111 0 -194 -104 -194 -251c0 -99 56 -164 144 -164z" />
    <glyph glyph-name="g.superior" unicode="&#xe367;" horiz-adv-x="360" 
d="M274 289l14 68c-20 -41 -59 -67 -103 -67c-67 0 -112 43 -112 125c0 107 61 185 159 185c47 0 81 -28 89 -68l17 62h38l-55 -296c-16 -86 -65 -130 -158 -130c-81 0 -119 37 -125 89l41 12c4 -42 36 -67 87 -67c63 0 97 34 108 87zM232 566c-68 0 -116 -58 -116 -149
c0 -57 27 -94 78 -94c53 0 95 41 107 103l7 39c11 52 -15 101 -76 101z" />
    <glyph glyph-name="gacute" unicode="&#x1f5;" horiz-adv-x="490" 
d="M332 -17l22 118c-25 -67 -82 -110 -155 -110c-92 0 -156 65 -156 187c0 161 90 293 226 293c73 0 121 -41 131 -107l25 98h42l-84 -477c-23 -131 -90 -196 -216 -196c-110 0 -164 51 -171 127l45 15c6 -65 53 -103 129 -103c98 0 144 60 162 155zM369 195l14 73
c14 82 -22 161 -111 161c-108 0 -180 -107 -180 -247c0 -90 41 -148 117 -148c82 0 144 64 160 161zM310 533h-43l80 136h71z" />
    <glyph glyph-name="gacute.school" unicode="&#xe162;" horiz-adv-x="456" 
d="M224 153c-24 0 -47 4 -62 10c-37 -10 -57 -29 -57 -60c0 -27 18 -43 60 -43h116c74 0 127 -32 127 -106c0 -127 -131 -165 -246 -165c-106 0 -187 33 -187 121c0 74 62 118 144 123c-35 5 -59 27 -59 65c0 41 29 71 76 78c-40 23 -64 64 -64 119c0 110 86 176 184 176
c53 0 95 -19 123 -51c26 13 47 41 54 81l44 -14c-15 -52 -42 -80 -83 -93c9 -18 14 -37 14 -65c0 -115 -85 -176 -184 -176zM272 14h-105c-78 0 -142 -31 -142 -101c0 -61 58 -85 144 -85c90 0 190 27 190 122c0 40 -28 64 -87 64zM227 191c74 0 133 50 133 135
c-2 67 -45 105 -109 105c-71 0 -129 -49 -129 -132c0 -65 39 -108 105 -108zM287 533h-43l80 136h71z" />
    <glyph glyph-name="gacute.smcp" unicode="&#xe24a;" 
d="M331 550h-44l80 136h72zM250 32c76 0 137 55 155 141l4 20h-137l8 43h185l-41 -236h-39l5 88c-24 -57 -74 -97 -150 -97c-111 0 -186 75 -186 202c0 175 101 297 253 297c90 0 142 -44 158 -117l-46 -22c-12 65 -57 96 -119 96c-111 0 -194 -104 -194 -251
c0 -99 56 -164 144 -164z" />
    <glyph glyph-name="gbreve" unicode="&#x11f;" horiz-adv-x="490" 
d="M332 -17l22 118c-25 -67 -82 -110 -155 -110c-92 0 -156 65 -156 187c0 161 90 293 226 293c73 0 121 -41 131 -107l25 98h42l-84 -477c-23 -131 -90 -196 -216 -196c-110 0 -164 51 -171 127l45 15c6 -65 53 -103 129 -103c98 0 144 60 162 155zM369 195l14 73
c14 82 -22 161 -111 161c-108 0 -180 -107 -180 -247c0 -90 41 -148 117 -148c82 0 144 64 160 161zM289 530c-65 0 -100 35 -100 95c0 11 1 21 3 33h42c-2 -9 -2 -16 -2 -25c0 -40 18 -63 63 -63c55 0 82 32 96 88h41c-14 -81 -66 -128 -143 -128z" />
    <glyph glyph-name="gbreve.school" unicode="&#xe166;" horiz-adv-x="456" 
d="M224 153c-24 0 -47 4 -62 10c-37 -10 -57 -29 -57 -60c0 -27 18 -43 60 -43h116c74 0 127 -32 127 -106c0 -127 -131 -165 -246 -165c-106 0 -187 33 -187 121c0 74 62 118 144 123c-35 5 -59 27 -59 65c0 41 29 71 76 78c-40 23 -64 64 -64 119c0 110 86 176 184 176
c53 0 95 -19 123 -51c26 13 47 41 54 81l44 -14c-15 -52 -42 -80 -83 -93c9 -18 14 -37 14 -65c0 -115 -85 -176 -184 -176zM272 14h-105c-78 0 -142 -31 -142 -101c0 -61 58 -85 144 -85c90 0 190 27 190 122c0 40 -28 64 -87 64zM227 191c74 0 133 50 133 135
c-2 67 -45 105 -109 105c-71 0 -129 -49 -129 -132c0 -65 39 -108 105 -108zM284 530c-65 0 -100 35 -100 95c0 11 1 21 3 33h41c-1 -9 -1 -16 -1 -25c0 -40 18 -63 63 -63c55 0 82 32 96 88h41c-14 -81 -67 -128 -143 -128z" />
    <glyph glyph-name="gbreve.smcp" unicode="&#xe24e;" 
d="M315 548c-65 0 -101 35 -101 95c0 10 1 21 3 33h42c-2 -10 -2 -16 -2 -25c0 -40 19 -63 63 -63c56 0 83 32 96 88h42c-15 -82 -67 -128 -143 -128zM250 32c76 0 137 55 155 141l4 20h-137l8 43h185l-41 -236h-39l5 88c-24 -57 -74 -97 -150 -97c-111 0 -186 75 -186 202
c0 175 101 297 253 297c90 0 142 -44 158 -117l-46 -22c-12 65 -57 96 -119 96c-111 0 -194 -104 -194 -251c0 -99 56 -164 144 -164z" />
    <glyph glyph-name="gbreve.smcp" unicode="&#xf64b;" 
d="M315 548c-65 0 -101 35 -101 95c0 10 1 21 3 33h42c-2 -10 -2 -16 -2 -25c0 -40 19 -63 63 -63c56 0 83 32 96 88h42c-15 -82 -67 -128 -143 -128zM250 32c76 0 137 55 155 141l4 20h-137l8 43h185l-41 -236h-39l5 88c-24 -57 -74 -97 -150 -97c-111 0 -186 75 -186 202
c0 175 101 297 253 297c90 0 142 -44 158 -117l-46 -22c-12 65 -57 96 -119 96c-111 0 -194 -104 -194 -251c0 -99 56 -164 144 -164z" />
    <glyph glyph-name="gcaron" unicode="&#x1e7;" horiz-adv-x="490" 
d="M332 -17l22 118c-25 -67 -82 -110 -155 -110c-92 0 -156 65 -156 187c0 161 90 293 226 293c73 0 121 -41 131 -107l25 98h42l-84 -477c-23 -131 -90 -196 -216 -196c-110 0 -164 51 -171 127l45 15c6 -65 53 -103 129 -103c98 0 144 60 162 155zM369 195l14 73
c14 82 -22 161 -111 161c-108 0 -180 -107 -180 -247c0 -90 41 -148 117 -148c82 0 144 64 160 161zM307 533h-28l-92 136h53l36 -54c15 -24 21 -41 21 -41h3s11 17 36 42l54 53h56z" />
    <glyph glyph-name="gcaron.school" unicode="&#xe165;" horiz-adv-x="456" 
d="M224 153c-24 0 -47 4 -62 10c-37 -10 -57 -29 -57 -60c0 -27 18 -43 60 -43h116c74 0 127 -32 127 -106c0 -127 -131 -165 -246 -165c-106 0 -187 33 -187 121c0 74 62 118 144 123c-35 5 -59 27 -59 65c0 41 29 71 76 78c-40 23 -64 64 -64 119c0 110 86 176 184 176
c53 0 95 -19 123 -51c26 13 47 41 54 81l44 -14c-15 -52 -42 -80 -83 -93c9 -18 14 -37 14 -65c0 -115 -85 -176 -184 -176zM272 14h-105c-78 0 -142 -31 -142 -101c0 -61 58 -85 144 -85c90 0 190 27 190 122c0 40 -28 64 -87 64zM227 191c74 0 133 50 133 135
c-2 67 -45 105 -109 105c-71 0 -129 -49 -129 -132c0 -65 39 -108 105 -108zM295 533h-28l-92 136h54l35 -54c15 -24 21 -41 21 -41h3s12 17 36 42l54 53h56z" />
    <glyph glyph-name="gcaron.smcp" unicode="&#xe24d;" 
d="M328 550h-29l-92 136h54l35 -54c15 -23 21 -40 21 -40h3s12 17 36 41l54 53h57zM250 32c76 0 137 55 155 141l4 20h-137l8 43h185l-41 -236h-39l5 88c-24 -57 -74 -97 -150 -97c-111 0 -186 75 -186 202c0 175 101 297 253 297c90 0 142 -44 158 -117l-46 -22
c-12 65 -57 96 -119 96c-111 0 -194 -104 -194 -251c0 -99 56 -164 144 -164z" />
    <glyph glyph-name="gcaron.smcp" unicode="&#xf626;" 
d="M328 550h-29l-92 136h54l35 -54c15 -23 21 -40 21 -40h3s12 17 36 41l54 53h57zM250 32c76 0 137 55 155 141l4 20h-137l8 43h185l-41 -236h-39l5 88c-24 -57 -74 -97 -150 -97c-111 0 -186 75 -186 202c0 175 101 297 253 297c90 0 142 -44 158 -117l-46 -22
c-12 65 -57 96 -119 96c-111 0 -194 -104 -194 -251c0 -99 56 -164 144 -164z" />
    <glyph glyph-name="gcircumflex" unicode="&#x11d;" horiz-adv-x="490" 
d="M332 -17l22 118c-25 -67 -82 -110 -155 -110c-92 0 -156 65 -156 187c0 161 90 293 226 293c73 0 121 -41 131 -107l25 98h42l-84 -477c-23 -131 -90 -196 -216 -196c-110 0 -164 51 -171 127l45 15c6 -65 53 -103 129 -103c98 0 144 60 162 155zM369 195l14 73
c14 82 -22 161 -111 161c-108 0 -180 -107 -180 -247c0 -90 41 -148 117 -148c82 0 144 64 160 161zM299 669h28l92 -136h-54l-35 54c-15 23 -21 40 -21 40h-3s-12 -17 -36 -41l-54 -53h-56z" />
    <glyph glyph-name="gcircumflex.school" unicode="&#xe163;" horiz-adv-x="456" 
d="M224 153c-24 0 -47 4 -62 10c-37 -10 -57 -29 -57 -60c0 -27 18 -43 60 -43h116c74 0 127 -32 127 -106c0 -127 -131 -165 -246 -165c-106 0 -187 33 -187 121c0 74 62 118 144 123c-35 5 -59 27 -59 65c0 41 29 71 76 78c-40 23 -64 64 -64 119c0 110 86 176 184 176
c53 0 95 -19 123 -51c26 13 47 41 54 81l44 -14c-15 -52 -42 -80 -83 -93c9 -18 14 -37 14 -65c0 -115 -85 -176 -184 -176zM272 14h-105c-78 0 -142 -31 -142 -101c0 -61 58 -85 144 -85c90 0 190 27 190 122c0 40 -28 64 -87 64zM227 191c74 0 133 50 133 135
c-2 67 -45 105 -109 105c-71 0 -129 -49 -129 -132c0 -65 39 -108 105 -108zM287 669h28l92 -136h-53l-36 54c-15 23 -21 40 -21 40h-3s-11 -17 -36 -41l-54 -53h-56z" />
    <glyph glyph-name="gcircumflex.smcp" unicode="&#xe24b;" 
d="M319 686h29l91 -136h-53l-35 54c-15 24 -21 41 -21 41h-4s-11 -17 -35 -42l-54 -53h-57zM250 32c76 0 137 55 155 141l4 20h-137l8 43h185l-41 -236h-39l5 88c-24 -57 -74 -97 -150 -97c-111 0 -186 75 -186 202c0 175 101 297 253 297c90 0 142 -44 158 -117l-46 -22
c-12 65 -57 96 -119 96c-111 0 -194 -104 -194 -251c0 -99 56 -164 144 -164z" />
    <glyph glyph-name="gcircumflex.smcp" unicode="&#xf62c;" 
d="M319 686h29l91 -136h-53l-35 54c-15 24 -21 41 -21 41h-4s-11 -17 -35 -42l-54 -53h-57zM250 32c76 0 137 55 155 141l4 20h-137l8 43h185l-41 -236h-39l5 88c-24 -57 -74 -97 -150 -97c-111 0 -186 75 -186 202c0 175 101 297 253 297c90 0 142 -44 158 -117l-46 -22
c-12 65 -57 96 -119 96c-111 0 -194 -104 -194 -251c0 -99 56 -164 144 -164z" />
    <glyph glyph-name="gcommaaccent" unicode="&#x123;" horiz-adv-x="490" 
d="M332 -17l22 118c-25 -67 -82 -110 -155 -110c-92 0 -156 65 -156 187c0 161 90 293 226 293c73 0 121 -41 131 -107l25 98h42l-84 -477c-23 -131 -90 -196 -216 -196c-110 0 -164 51 -171 127l45 15c6 -65 53 -103 129 -103c98 0 144 60 162 155zM369 195l14 73
c14 82 -22 161 -111 161c-108 0 -180 -107 -180 -247c0 -90 41 -148 117 -148c82 0 144 64 160 161zM260 599c0 61 49 91 113 91v-26c-36 -1 -76 -14 -76 -46c0 -5 1 -7 2 -10c4 3 9 5 15 5c19 0 31 -13 31 -32c0 -22 -15 -36 -38 -36c-25 0 -47 18 -47 54z" />
    <glyph glyph-name="uni0312" unicode="&#x312;" horiz-adv-x="255" 
d="M67 708c0 61 49 91 113 91v-26c-36 -1 -76 -15 -76 -47c0 -4 0 -6 2 -9c3 3 9 5 15 5c19 0 31 -14 31 -32c0 -22 -15 -36 -38 -36c-26 0 -47 18 -47 54z" />
    <glyph glyph-name="gcommaaccent.school" unicode="&#xe168;" horiz-adv-x="456" 
d="M224 153c-24 0 -47 4 -62 10c-37 -10 -57 -29 -57 -60c0 -27 18 -43 60 -43h116c74 0 127 -32 127 -106c0 -127 -131 -165 -246 -165c-106 0 -187 33 -187 121c0 74 62 118 144 123c-35 5 -59 27 -59 65c0 41 29 71 76 78c-40 23 -64 64 -64 119c0 110 86 176 184 176
c53 0 95 -19 123 -51c26 13 47 41 54 81l44 -14c-15 -52 -42 -80 -83 -93c9 -18 14 -37 14 -65c0 -115 -85 -176 -184 -176zM272 14h-105c-78 0 -142 -31 -142 -101c0 -61 58 -85 144 -85c90 0 190 27 190 122c0 40 -28 64 -87 64zM227 191c74 0 133 50 133 135
c-2 67 -45 105 -109 105c-71 0 -129 -49 -129 -132c0 -65 39 -108 105 -108zM234 598c0 61 50 91 113 91v-26c-36 -1 -76 -14 -76 -46c0 -4 1 -7 2 -10c4 4 9 5 15 5c19 0 32 -13 32 -32c0 -22 -16 -36 -39 -36c-25 0 -47 18 -47 54z" />
    <glyph glyph-name="gcommaaccent.smcp" unicode="&#xe240;" 
d="M248 -141c0 -61 -49 -91 -113 -91v25c36 2 76 15 76 47c0 4 -1 7 -2 10c-4 -4 -9 -5 -15 -5c-19 0 -32 13 -32 32c0 22 16 36 39 36c25 0 47 -18 47 -54zM250 32c76 0 137 55 155 141l4 20h-137l8 43h185l-41 -236h-39l5 88c-24 -57 -74 -97 -150 -97
c-111 0 -186 75 -186 202c0 175 101 297 253 297c90 0 142 -44 158 -117l-46 -22c-12 65 -57 96 -119 96c-111 0 -194 -104 -194 -251c0 -99 56 -164 144 -164z" />
    <glyph glyph-name="gcommaaccent.smcp" unicode="&#xf64c;" 
d="M248 -141c0 -61 -49 -91 -113 -91v25c36 2 76 15 76 47c0 4 -1 7 -2 10c-4 -4 -9 -5 -15 -5c-19 0 -32 13 -32 32c0 22 16 36 39 36c25 0 47 -18 47 -54zM250 32c76 0 137 55 155 141l4 20h-137l8 43h185l-41 -236h-39l5 88c-24 -57 -74 -97 -150 -97
c-111 0 -186 75 -186 202c0 175 101 297 253 297c90 0 142 -44 158 -117l-46 -22c-12 65 -57 96 -119 96c-111 0 -194 -104 -194 -251c0 -99 56 -164 144 -164z" />
    <glyph glyph-name="gcommaturnedabove" unicode="&#xe108;" horiz-adv-x="490" 
d="M332 -17l22 118c-25 -67 -82 -110 -155 -110c-92 0 -156 65 -156 187c0 161 90 293 226 293c73 0 121 -41 131 -107l25 98h42l-84 -477c-23 -131 -90 -196 -216 -196c-110 0 -164 51 -171 127l45 15c6 -65 53 -103 129 -103c98 0 144 60 162 155zM369 195l14 73
c14 82 -22 161 -111 161c-108 0 -180 -107 -180 -247c0 -90 41 -148 117 -148c82 0 144 64 160 161zM260 599c0 61 49 91 113 91v-26c-36 -1 -76 -14 -76 -46c0 -5 1 -7 2 -10c4 3 9 5 15 5c19 0 31 -13 31 -32c0 -22 -15 -36 -38 -36c-25 0 -47 18 -47 54z" />
    <glyph glyph-name="gcommaturnedabove.school" unicode="&#xe169;" horiz-adv-x="456" 
d="M224 153c-24 0 -47 4 -62 10c-37 -10 -57 -29 -57 -60c0 -27 18 -43 60 -43h116c74 0 127 -32 127 -106c0 -127 -131 -165 -246 -165c-106 0 -187 33 -187 121c0 74 62 118 144 123c-35 5 -59 27 -59 65c0 41 29 71 76 78c-40 23 -64 64 -64 119c0 110 86 176 184 176
c53 0 95 -19 123 -51c26 13 47 41 54 81l44 -14c-15 -52 -42 -80 -83 -93c9 -18 14 -37 14 -65c0 -115 -85 -176 -184 -176zM272 14h-105c-78 0 -142 -31 -142 -101c0 -61 58 -85 144 -85c90 0 190 27 190 122c0 40 -28 64 -87 64zM227 191c74 0 133 50 133 135
c-2 67 -45 105 -109 105c-71 0 -129 -49 -129 -132c0 -65 39 -108 105 -108zM234 598c0 61 50 91 113 91v-26c-36 -1 -76 -14 -76 -46c0 -4 1 -7 2 -10c4 4 9 5 15 5c19 0 32 -13 32 -32c0 -22 -16 -36 -39 -36c-25 0 -47 18 -47 54z" />
    <glyph glyph-name="gcommaturnedabove.smcp" unicode="&#xe251;" 
d="M286 617c0 61 49 91 113 91v-26c-36 -1 -76 -14 -76 -46c0 -5 1 -7 2 -10c4 3 9 5 15 5c19 0 32 -13 32 -32c0 -22 -16 -36 -39 -36c-25 0 -47 18 -47 54zM250 32c76 0 137 55 155 141l4 20h-137l8 43h185l-41 -236h-39l5 88c-24 -57 -74 -97 -150 -97
c-111 0 -186 75 -186 202c0 175 101 297 253 297c90 0 142 -44 158 -117l-46 -22c-12 65 -57 96 -119 96c-111 0 -194 -104 -194 -251c0 -99 56 -164 144 -164z" />
    <glyph glyph-name="gdotaccent" unicode="&#x121;" horiz-adv-x="490" 
d="M332 -17l22 118c-25 -67 -82 -110 -155 -110c-92 0 -156 65 -156 187c0 161 90 293 226 293c73 0 121 -41 131 -107l25 98h42l-84 -477c-23 -131 -90 -196 -216 -196c-110 0 -164 51 -171 127l45 15c6 -65 53 -103 129 -103c98 0 144 60 162 155zM369 195l14 73
c14 82 -22 161 -111 161c-108 0 -180 -107 -180 -247c0 -90 41 -148 117 -148c82 0 144 64 160 161zM264 604c0 22 16 39 37 39c22 0 39 -17 39 -39c0 -21 -17 -37 -39 -37c-21 0 -37 16 -37 37z" />
    <glyph glyph-name="gdotaccent.school" unicode="&#xe167;" horiz-adv-x="456" 
d="M224 153c-24 0 -47 4 -62 10c-37 -10 -57 -29 -57 -60c0 -27 18 -43 60 -43h116c74 0 127 -32 127 -106c0 -127 -131 -165 -246 -165c-106 0 -187 33 -187 121c0 74 62 118 144 123c-35 5 -59 27 -59 65c0 41 29 71 76 78c-40 23 -64 64 -64 119c0 110 86 176 184 176
c53 0 95 -19 123 -51c26 13 47 41 54 81l44 -14c-15 -52 -42 -80 -83 -93c9 -18 14 -37 14 -65c0 -115 -85 -176 -184 -176zM272 14h-105c-78 0 -142 -31 -142 -101c0 -61 58 -85 144 -85c90 0 190 27 190 122c0 40 -28 64 -87 64zM227 191c74 0 133 50 133 135
c-2 67 -45 105 -109 105c-71 0 -129 -49 -129 -132c0 -65 39 -108 105 -108zM255 594c0 22 16 39 37 39c22 0 39 -17 39 -39c0 -20 -17 -37 -39 -37c-21 0 -37 17 -37 37z" />
    <glyph glyph-name="gdotaccent.smcp" unicode="&#xe24f;" 
d="M284 622c0 22 17 39 38 39c22 0 38 -17 38 -39c0 -21 -16 -38 -38 -38c-21 0 -38 17 -38 38zM250 32c76 0 137 55 155 141l4 20h-137l8 43h185l-41 -236h-39l5 88c-24 -57 -74 -97 -150 -97c-111 0 -186 75 -186 202c0 175 101 297 253 297c90 0 142 -44 158 -117
l-46 -22c-12 65 -57 96 -119 96c-111 0 -194 -104 -194 -251c0 -99 56 -164 144 -164z" />
    <glyph glyph-name="gdotaccent.smcp" unicode="&#xf62d;" 
d="M284 622c0 22 17 39 38 39c22 0 38 -17 38 -39c0 -21 -16 -38 -38 -38c-21 0 -38 17 -38 38zM250 32c76 0 137 55 155 141l4 20h-137l8 43h185l-41 -236h-39l5 88c-24 -57 -74 -97 -150 -97c-111 0 -186 75 -186 202c0 175 101 297 253 297c90 0 142 -44 158 -117
l-46 -22c-12 65 -57 96 -119 96c-111 0 -194 -104 -194 -251c0 -99 56 -164 144 -164z" />
    <glyph glyph-name="germandbls" unicode="&#xdf;" horiz-adv-x="514" 
d="M331 634c-66 0 -135 -33 -158 -165l-100 -573c-13 -75 -46 -107 -106 -107c-33 0 -61 12 -76 28l14 40c18 -17 36 -26 57 -26c35 0 51 21 59 66l101 574c27 154 115 204 213 204c103 0 155 -56 155 -137c0 -104 -81 -152 -155 -162v-3c85 -7 138 -67 138 -156
c0 -143 -84 -226 -196 -226c-67 0 -110 26 -124 78l36 30c12 -44 41 -68 91 -68c73 0 141 58 141 184c0 85 -53 139 -152 139h-39l8 42h35c87 0 166 45 166 136c0 62 -36 102 -108 102z" />
    <glyph glyph-name="greater" unicode="&#x3e;" horiz-adv-x="411" 
d="M347 246l-290 -212l-22 31l253 185l-185 182l28 27z" />
    <glyph glyph-name="greater.cap" unicode="&#xe597;" horiz-adv-x="411" 
d="M358 299l-290 -212l-22 31l253 185l-185 182l28 27z" />
    <glyph glyph-name="greaterequal" unicode="&#x2265;" horiz-adv-x="448" 
d="M331 21h-306l6 34h306zM391 288l-292 -199l-22 31l252 171l-187 170l28 27z" />
    <glyph glyph-name="gstroke" unicode="&#x1e5;" horiz-adv-x="490" 
d="M332 -17l22 118c-25 -67 -82 -110 -155 -110c-92 0 -156 65 -156 187c0 161 90 293 226 293c73 0 121 -41 131 -107l25 98h42l-84 -477c-1 -7 -8 -35 -10 -42h68l-5 -27h-71c-33 -84 -97 -127 -198 -127c-110 0 -164 51 -171 127l45 15c6 -65 53 -103 129 -103
c72 0 116 33 141 88h-167l4 27h174c4 13 7 27 10 40zM369 195l14 73c14 82 -22 161 -111 161c-108 0 -180 -107 -180 -247c0 -90 41 -148 117 -148c82 0 144 64 160 161z" />
    <glyph glyph-name="gstroke.smcp" unicode="&#xe252;" horiz-adv-x="529" 
d="M502 138h-54l-24 -138h-39l5 85c-24 -57 -74 -94 -150 -94c-111 0 -186 75 -186 202c0 175 101 297 253 297c90 0 142 -44 158 -117l-46 -22c-12 65 -57 96 -119 96c-111 0 -194 -104 -194 -251c0 -99 56 -164 144 -164c67 0 121 37 146 106h-132l7 36h134l8 46h-136
l7 39h185l-15 -85h55z" />
    <glyph glyph-name="gsuperior.school" unicode="&#xe183;" horiz-adv-x="334" 
d="M190 391c-15 0 -31 2 -41 7c-21 -7 -33 -18 -33 -37c0 -15 14 -25 42 -25h82c55 0 86 -23 86 -67c0 -78 -94 -101 -177 -101c-71 0 -126 20 -126 74c0 40 31 70 86 73c-19 4 -33 20 -33 42c0 23 20 45 47 52c-25 16 -38 42 -38 73c0 76 64 121 135 121
c36 0 65 -12 83 -33c15 10 25 28 30 53l39 -13c-12 -33 -29 -53 -54 -62c4 -10 7 -21 7 -35c0 -80 -65 -122 -135 -122zM234 300h-91c-42 0 -79 -17 -79 -56c0 -33 40 -47 88 -47c63 0 130 14 130 67c0 21 -16 36 -48 36zM194 421c45 0 89 29 89 86c0 40 -27 64 -69 64
c-45 0 -87 -33 -87 -86c0 -39 25 -64 67 -64z" />
    <glyph glyph-name="gtilde" unicode="&#xe106;" horiz-adv-x="490" 
d="M332 -17l22 118c-25 -67 -82 -110 -155 -110c-92 0 -156 65 -156 187c0 161 90 293 226 293c73 0 121 -41 131 -107l25 98h42l-84 -477c-23 -131 -90 -196 -216 -196c-110 0 -164 51 -171 127l45 15c6 -65 53 -103 129 -103c98 0 144 60 162 155zM369 195l14 73
c14 82 -22 161 -111 161c-108 0 -180 -107 -180 -247c0 -90 41 -148 117 -148c82 0 144 64 160 161zM199 543l-34 2c-1 7 -2 14 -2 22c0 44 32 76 74 76c26 0 42 -9 61 -22l36 -27c13 -9 23 -13 37 -13c24 0 36 18 39 57l33 -1c2 -8 3 -15 3 -22c0 -45 -33 -77 -75 -77
c-25 0 -42 9 -61 22l-36 27c-13 9 -23 14 -37 14c-24 0 -36 -19 -38 -58z" />
    <glyph glyph-name="gtilde.school" unicode="&#xe164;" horiz-adv-x="456" 
d="M224 153c-24 0 -47 4 -62 10c-37 -10 -57 -29 -57 -60c0 -27 18 -43 60 -43h116c74 0 127 -32 127 -106c0 -127 -131 -165 -246 -165c-106 0 -187 33 -187 121c0 74 62 118 144 123c-35 5 -59 27 -59 65c0 41 29 71 76 78c-40 23 -64 64 -64 119c0 110 86 176 184 176
c53 0 95 -19 123 -51c26 13 47 41 54 81l44 -14c-15 -52 -42 -80 -83 -93c9 -18 14 -37 14 -65c0 -115 -85 -176 -184 -176zM272 14h-105c-78 0 -142 -31 -142 -101c0 -61 58 -85 144 -85c90 0 190 27 190 122c0 40 -28 64 -87 64zM227 191c74 0 133 50 133 135
c-2 67 -45 105 -109 105c-71 0 -129 -49 -129 -132c0 -65 39 -108 105 -108zM190 543l-34 2c-1 7 -2 14 -2 22c0 44 32 76 74 76c26 0 42 -9 61 -22l36 -27c13 -9 23 -13 37 -13c24 0 36 18 39 57l33 -1c2 -8 3 -15 3 -22c0 -45 -33 -77 -75 -77c-25 0 -42 9 -61 22l-36 27
c-13 9 -23 14 -37 14c-24 0 -36 -19 -38 -58z" />
    <glyph glyph-name="gtilde.smcp" unicode="&#xe24c;" 
d="M222 561l-34 1c-1 8 -2 15 -2 22c0 45 32 77 75 77c25 0 42 -9 60 -22l36 -27c13 -9 23 -14 37 -14c24 0 37 19 39 58l33 -2c2 -7 3 -14 3 -22c0 -44 -33 -76 -75 -76c-25 0 -42 9 -60 22l-37 27c-13 9 -23 13 -37 13c-24 0 -36 -18 -38 -57zM250 32c76 0 137 55 155 141
l4 20h-137l8 43h185l-41 -236h-39l5 88c-24 -57 -74 -97 -150 -97c-111 0 -186 75 -186 202c0 175 101 297 253 297c90 0 142 -44 158 -117l-46 -22c-12 65 -57 96 -119 96c-111 0 -194 -104 -194 -251c0 -99 56 -164 144 -164z" />
    <glyph glyph-name="guillemotleft" unicode="&#xab;" horiz-adv-x="456" 
d="M236 233v-4s7 -3 38 -48l88 -127l-35 -27l-138 206l211 206l26 -29l-129 -127c-39 -39 -61 -50 -61 -50zM91 233v-4s7 -3 38 -48l88 -127l-35 -27l-139 206l211 206l27 -29l-129 -127c-40 -39 -61 -50 -61 -50z" />
    <glyph glyph-name="guillemotleft.cap" unicode="&#xe453;" horiz-adv-x="456" 
d="M246 293v-4s7 -3 38 -48l88 -127l-35 -27l-138 206l211 206l26 -29l-129 -127c-39 -39 -61 -50 -61 -50zM101 293v-4s7 -3 38 -48l88 -127l-35 -27l-139 206l211 206l27 -29l-129 -127c-40 -39 -61 -50 -61 -50z" />
    <glyph glyph-name="guillemotright" unicode="&#xbb;" horiz-adv-x="456" 
d="M223 233v4s-7 3 -37 48l-89 127l35 27l139 -206l-211 -206l-27 29l129 127c40 39 61 50 61 50zM369 233v4s-7 3 -38 48l-88 127l34 27l139 -206l-211 -206l-27 29l129 127c40 39 62 50 62 50z" />
    <glyph glyph-name="guillemotright.cap" unicode="&#xe454;" horiz-adv-x="456" 
d="M223 292v3s-8 4 -38 49l-89 127l35 27l139 -206l-211 -206l-27 28l129 128c40 39 62 50 62 50zM368 292v3s-7 4 -38 49l-88 127l34 27l139 -206l-211 -206l-27 28l129 128c40 39 62 50 62 50z" />
    <glyph glyph-name="guilsinglleft" unicode="&#x2039;" horiz-adv-x="311" 
d="M91 233v-4s7 -3 38 -48l88 -127l-35 -27l-139 206l211 206l27 -29l-129 -127c-40 -39 -61 -50 -61 -50z" />
    <glyph glyph-name="guilsinglleft.cap" unicode="&#xe451;" horiz-adv-x="311" 
d="M101 293v-4s7 -3 38 -48l88 -127l-35 -27l-139 206l211 206l27 -29l-129 -127c-40 -39 -61 -50 -61 -50z" />
    <glyph glyph-name="guilsinglright" unicode="&#x203a;" horiz-adv-x="311" 
d="M223 233v4s-7 3 -37 48l-89 127l35 27l139 -206l-211 -206l-27 29l129 127c40 39 61 50 61 50z" />
    <glyph glyph-name="guilsinglright.cap" unicode="&#xe452;" horiz-adv-x="311" 
d="M223 293v4s-8 3 -38 48l-89 127l35 27l139 -206l-211 -206l-27 29l129 127c40 39 62 50 62 50z" />
    <glyph glyph-name="h" unicode="h" horiz-adv-x="493" 
d="M338 84l39 222c3 19 5 33 5 46c0 46 -26 75 -79 75c-69 0 -145 -54 -165 -173l-44 -254h-51l116 668h52l-56 -314c29 68 84 117 161 117c70 0 117 -37 117 -109c0 -14 -2 -34 -6 -57l-38 -216c-1 -9 -3 -17 -3 -25c0 -18 8 -29 28 -29c9 0 18 2 31 7l-7 -39
c-11 -5 -24 -8 -40 -8c-44 0 -63 23 -63 60c0 9 1 18 3 29z" />
    <glyph glyph-name="h.smcp" unicode="&#xe208;" horiz-adv-x="566" 
d="M104 0h-52l84 481h52l-38 -221h285l39 221h52l-84 -481h-52l37 215h-285z" />
    <glyph glyph-name="h.smcp" unicode="&#xf768;" horiz-adv-x="566" 
d="M104 0h-52l84 481h52l-38 -221h285l39 221h52l-84 -481h-52l37 215h-285z" />
    <glyph glyph-name="h.superior" unicode="&#xe368;" horiz-adv-x="356" 
d="M272 353l26 139c2 10 2 18 2 25c0 28 -16 46 -50 46c-49 0 -98 -34 -112 -109l-31 -166h-45l82 432h45l-36 -188c21 42 59 68 107 68c52 0 86 -25 86 -74c0 -9 -1 -22 -4 -36l-25 -135c-2 -10 -2 -15 -2 -20c0 -10 3 -16 15 -16c6 0 12 0 26 5l-7 -33
c-9 -4 -20 -6 -32 -6c-34 0 -48 17 -48 43c0 6 1 15 3 25z" />
    <glyph glyph-name="hairspace" unicode="&#x200a;" horiz-adv-x="45" 
 />
    <glyph glyph-name="hbar" unicode="&#x127;" horiz-adv-x="493" 
d="M61 541l8 41h74l16 86h52l-16 -86h154l-8 -41h-154l-32 -187c29 68 84 117 161 117c70 0 117 -37 117 -109c0 -14 -2 -34 -6 -57l-38 -216c-1 -9 -3 -17 -3 -25c0 -18 8 -29 28 -29c9 0 18 2 31 7l-7 -39c-11 -5 -24 -8 -40 -8c-44 0 -63 23 -63 60c0 9 1 17 3 29l39 222
c3 19 5 33 5 46c0 46 -26 75 -79 75c-69 0 -145 -54 -165 -173l-44 -254h-51l93 541h-75z" />
    <glyph glyph-name="hbar.smcp" unicode="&#xe257;" horiz-adv-x="572" 
d="M107 0h-52l60 347h-70l8 44h70l16 90h52l-16 -90h285l16 90h52l-16 -90h74l-8 -44h-73l-61 -347h-52l38 215h-286zM153 260h285l15 87h-286z" />
    <glyph glyph-name="hbar.smcp" unicode="&#xf62e;" horiz-adv-x="572" 
d="M107 0h-52l60 347h-70l8 44h70l16 90h52l-16 -90h285l16 90h52l-16 -90h74l-8 -44h-73l-61 -347h-52l38 215h-286zM153 260h285l15 87h-286z" />
    <glyph glyph-name="hcaron" unicode="&#x21f;" horiz-adv-x="493" 
d="M338 84l39 222c3 19 5 33 5 46c0 46 -26 75 -79 75c-69 0 -145 -54 -165 -173l-44 -254h-51l116 668h52l-56 -314c29 68 84 117 161 117c70 0 117 -37 117 -109c0 -14 -2 -34 -6 -57l-38 -216c-1 -9 -3 -17 -3 -25c0 -18 8 -29 28 -29c9 0 18 2 31 7l-7 -39
c-11 -5 -24 -8 -40 -8c-44 0 -63 23 -63 60c0 9 1 17 3 29zM204 704h-31l-93 125h57l34 -48c16 -22 21 -39 22 -38h2s11 16 35 39l51 47h60z" />
    <glyph glyph-name="hcaron.smcp" unicode="&#xe254;" horiz-adv-x="566" 
d="M104 0h-52l84 481h52l-38 -221h285l39 221h52l-84 -481h-52l37 215h-285zM358 550h-29l-91 136h53l35 -54c15 -23 21 -40 21 -40h3s12 17 36 41l54 53h57z" />
    <glyph glyph-name="hcircumflex" unicode="&#x125;" horiz-adv-x="493" 
d="M338 84l39 222c3 19 5 33 5 46c0 46 -26 75 -79 75c-69 0 -145 -54 -165 -173l-44 -254h-51l116 668h52l-56 -314c29 68 84 117 161 117c70 0 117 -37 117 -109c0 -14 -2 -34 -6 -57l-38 -216c-1 -9 -3 -17 -3 -25c0 -18 8 -29 28 -29c9 0 18 2 31 7l-7 -39
c-11 -5 -24 -8 -40 -8c-44 0 -63 23 -63 60c0 9 1 17 3 29zM197 824h30l93 -126h-57l-34 49c-15 21 -21 38 -21 38h-2s-11 -16 -36 -39l-50 -48h-60z" />
    <glyph glyph-name="hcircumflex.smcp" unicode="&#xe253;" horiz-adv-x="566" 
d="M104 0h-52l84 481h52l-38 -221h285l39 221h52l-84 -481h-52l37 215h-285zM349 686h29l91 -136h-53l-35 54c-15 24 -21 41 -21 41h-3s-12 -17 -36 -42l-54 -53h-57z" />
    <glyph glyph-name="hcircumflex.smcp" unicode="&#xf62f;" horiz-adv-x="566" 
d="M104 0h-52l84 481h52l-38 -221h285l39 221h52l-84 -481h-52l37 215h-285zM349 686h29l91 -136h-53l-35 54c-15 24 -21 41 -21 41h-3s-12 -17 -36 -42l-54 -53h-57z" />
    <glyph glyph-name="hdotbelow" unicode="&#x1e25;" horiz-adv-x="493" 
d="M338 84l39 222c3 19 5 33 5 46c0 46 -26 75 -79 75c-69 0 -145 -54 -165 -173l-44 -254h-51l116 668h52l-56 -314c29 68 84 117 161 117c70 0 117 -37 117 -109c0 -14 -2 -34 -6 -57l-38 -216c-1 -9 -3 -17 -3 -25c0 -18 8 -29 28 -29c9 0 18 2 31 7l-7 -39
c-11 -5 -24 -8 -40 -8c-44 0 -63 23 -63 60c0 9 1 17 3 29zM165 -139c0 22 16 39 37 39c22 0 39 -17 39 -39c0 -21 -17 -38 -39 -38c-21 0 -37 17 -37 38z" />
    <glyph glyph-name="hdotbelow.smcp" unicode="&#xe255;" horiz-adv-x="566" 
d="M104 0h-52l84 481h52l-38 -221h285l39 221h52l-84 -481h-52l37 215h-285zM184 -139c0 22 17 39 38 39c22 0 38 -17 38 -39c0 -21 -16 -38 -38 -38c-21 0 -38 17 -38 38z" />
    <glyph glyph-name="hmacronbelow" unicode="&#xe10a;" horiz-adv-x="493" 
d="M338 84l39 222c3 19 5 33 5 46c0 46 -26 75 -79 75c-69 0 -145 -54 -165 -173l-44 -254h-51l116 668h52l-56 -314c29 68 84 117 161 117c70 0 117 -37 117 -109c0 -14 -2 -34 -6 -57l-38 -216c-1 -9 -3 -17 -3 -25c0 -18 8 -29 28 -29c9 0 18 2 31 7l-7 -39
c-11 -5 -24 -8 -40 -8c-44 0 -63 23 -63 60c0 9 1 17 3 29zM311 -169h-240l8 42h240z" />
    <glyph glyph-name="hmacronbelow.smcp" unicode="&#xe256;" horiz-adv-x="566" 
d="M104 0h-52l84 481h52l-38 -221h285l39 221h52l-84 -481h-52l37 215h-285zM339 -169h-239l7 42h240z" />
    <glyph glyph-name="hungarumlaut" unicode="&#x2dd;" horiz-adv-x="404" 
d="M106 533h-39l74 136h67zM229 533h-40l80 136h68z" />
    <glyph glyph-name="hyphen" unicode="-" horiz-adv-x="379" 
d="M72 244l8 44h224l-8 -44h-224z" />
    <glyph glyph-name="hyphen.cap" unicode="&#xe482;" horiz-adv-x="379" 
d="M75 275l7 44h224l-7 -44h-224z" />
    <glyph glyph-name="i" unicode="i" horiz-adv-x="218" 
d="M169 462l-65 -373c-2 -9 -3 -17 -3 -25c0 -18 8 -29 28 -29c9 0 18 2 31 7l-8 -39c-11 -5 -24 -8 -40 -8c-43 0 -62 23 -62 60c0 9 1 17 3 29l65 378h51zM128 604c0 22 16 39 37 39s38 -17 38 -39c0 -21 -17 -37 -38 -37s-37 16 -37 37z" />
    <glyph glyph-name="i.smcp" unicode="&#xe209;" horiz-adv-x="228" 
d="M136 481h52l-84 -481h-52z" />
    <glyph glyph-name="i.smcp" unicode="&#xf769;" horiz-adv-x="228" 
d="M136 481h52l-84 -481h-52z" />
    <glyph glyph-name="i.superior" unicode="&#xe369;" horiz-adv-x="158" 
d="M158 594l-46 -243c-1 -4 -2 -10 -2 -15c0 -11 4 -17 16 -17c6 0 11 0 25 5l-6 -33c-10 -4 -20 -6 -33 -6c-34 0 -48 17 -48 43c0 6 1 13 3 21l46 245h45zM118 679c0 19 15 33 32 33c19 0 32 -14 32 -33c0 -17 -13 -31 -32 -31c-17 0 -32 14 -32 31z" />
    <glyph glyph-name="iacute" unicode="&#xed;" horiz-adv-x="218" 
d="M169 462l-65 -373c-2 -9 -3 -17 -3 -25c0 -18 8 -29 28 -29c9 0 18 2 31 7l-8 -39c-11 -5 -24 -8 -40 -8c-43 0 -62 23 -62 60c0 9 1 17 3 29l65 378h51zM174 533h-43l80 136h71z" />
    <glyph glyph-name="iacute.smcp" unicode="&#xe258;" horiz-adv-x="228" 
d="M136 481h52l-84 -481h-52zM193 550h-44l80 136h71z" />
    <glyph glyph-name="iacute.smcp" unicode="&#xf7ed;" horiz-adv-x="228" 
d="M136 481h52l-84 -481h-52zM193 550h-44l80 136h71z" />
    <glyph glyph-name="ibreve" unicode="&#x12d;" horiz-adv-x="218" 
d="M169 462l-65 -373c-2 -9 -3 -17 -3 -25c0 -18 8 -29 28 -29c9 0 18 2 31 7l-8 -39c-11 -5 -24 -8 -40 -8c-43 0 -62 23 -62 60c0 9 1 18 3 29l65 378h51zM154 530c-66 0 -101 35 -101 95c0 11 1 21 3 33h42c-2 -9 -2 -16 -2 -25c0 -40 18 -63 63 -63c55 0 82 32 96 88h41
c-14 -81 -66 -128 -142 -128z" />
    <glyph glyph-name="ibreve.smcp" unicode="&#xe25f;" horiz-adv-x="228" 
d="M136 481h52l-84 -481h-52zM171 548c-65 0 -100 35 -100 95c0 10 1 21 3 33h41c-1 -10 -1 -16 -1 -25c0 -40 18 -63 63 -63c55 0 82 32 96 88h41c-15 -82 -67 -128 -143 -128z" />
    <glyph glyph-name="ibreve.smcp" unicode="&#xf630;" horiz-adv-x="228" 
d="M136 481h52l-84 -481h-52zM171 548c-65 0 -100 35 -100 95c0 10 1 21 3 33h41c-1 -10 -1 -16 -1 -25c0 -40 18 -63 63 -63c55 0 82 32 96 88h41c-15 -82 -67 -128 -143 -128z" />
    <glyph glyph-name="icaron" unicode="&#x1d0;" horiz-adv-x="218" 
d="M169 462l-65 -373c-2 -9 -3 -17 -3 -25c0 -18 8 -29 28 -29c9 0 18 2 31 7l-8 -39c-11 -5 -24 -8 -40 -8c-43 0 -62 23 -62 60c0 9 1 17 3 29l65 378h51zM172 533h-29l-91 136h53l35 -54c15 -24 21 -41 21 -41h3c0 -1 11 17 36 42l54 53h57z" />
    <glyph glyph-name="icaron.smcp" unicode="&#xe25d;" horiz-adv-x="228" 
d="M136 481h52l-84 -481h-52zM189 550h-28l-92 136h54l35 -54c15 -23 21 -40 21 -40h3s12 17 36 41l54 53h56z" />
    <glyph glyph-name="icircumflex" unicode="&#xee;" horiz-adv-x="218" 
d="M169 462l-65 -373c-2 -9 -3 -17 -3 -25c0 -18 8 -29 28 -29c9 0 18 2 31 7l-8 -39c-11 -5 -24 -8 -40 -8c-43 0 -62 23 -62 60c0 9 1 17 3 29l65 378h51zM163 669h29l91 -136h-53l-35 54c-15 23 -21 40 -21 40h-3c-1 0 -12 -17 -36 -41l-54 -53h-57z" />
    <glyph glyph-name="icircumflex.smcp" unicode="&#xe25a;" horiz-adv-x="228" 
d="M136 481h52l-84 -481h-52zM181 686h28l92 -136h-53l-36 54c-15 24 -21 41 -21 41h-3s-11 -17 -36 -42l-53 -53h-57z" />
    <glyph glyph-name="icircumflex.smcp" unicode="&#xf7ee;" horiz-adv-x="228" 
d="M136 481h52l-84 -481h-52zM181 686h28l92 -136h-53l-36 54c-15 24 -21 41 -21 41h-3s-11 -17 -36 -42l-53 -53h-57z" />
    <glyph glyph-name="idieresis" unicode="&#xef;" horiz-adv-x="218" 
d="M169 462l-65 -373c-2 -9 -3 -17 -3 -25c0 -18 8 -29 28 -29c9 0 18 2 31 7l-8 -39c-11 -5 -24 -8 -40 -8c-43 0 -62 23 -62 60c0 9 1 17 3 29l65 378h51zM45 595c0 21 17 38 38 38s38 -17 38 -38s-17 -38 -38 -38s-38 17 -38 38zM216 594c0 22 17 38 38 38
c22 0 38 -16 38 -38c0 -20 -16 -37 -38 -37c-21 0 -38 17 -38 37z" />
    <glyph glyph-name="idieresis.smcp" unicode="&#xe25b;" horiz-adv-x="228" 
d="M136 481h52l-84 -481h-52zM63 613c0 21 16 38 37 38c22 0 38 -17 38 -38s-16 -38 -38 -38c-21 0 -37 17 -37 38zM234 612c0 22 17 38 38 38s38 -16 38 -38c0 -21 -17 -38 -38 -38s-38 17 -38 38z" />
    <glyph glyph-name="idieresis.smcp" unicode="&#xf7ef;" horiz-adv-x="228" 
d="M136 481h52l-84 -481h-52zM63 613c0 21 16 38 37 38c22 0 38 -17 38 -38s-16 -38 -38 -38c-21 0 -37 17 -37 38zM234 612c0 22 17 38 38 38s38 -16 38 -38c0 -21 -17 -38 -38 -38s-38 17 -38 38z" />
    <glyph glyph-name="idotaccent" horiz-adv-x="218" 
d="M169 462l-65 -373c-2 -9 -3 -17 -3 -25c0 -18 8 -29 28 -29c9 0 18 2 31 7l-8 -39c-11 -5 -24 -8 -40 -8c-43 0 -62 23 -62 60c0 9 1 17 3 29l65 378h51zM129 604c0 22 16 39 37 39c22 0 38 -17 38 -39c0 -21 -16 -37 -38 -37c-21 0 -37 16 -37 37z" />
    </font>
</defs>
</svg>
